<svg width="15" height="14" viewBox="0 0 15 14" fill="none" xmlns="http://www.w3.org/2000/svg">
<path d="M0.46875 8.78125C0.59307 8.78125 0.712299 8.83064 0.800206 8.91854C0.888114 9.00645 0.9375 9.12568 0.9375 9.25V11.5938C0.9375 11.8424 1.03627 12.0808 1.21209 12.2567C1.3879 12.4325 1.62636 12.5312 1.875 12.5312H13.125C13.3736 12.5312 13.6121 12.4325 13.7879 12.2567C13.9637 12.0808 14.0625 11.8424 14.0625 11.5938V9.25C14.0625 9.12568 14.1119 9.00645 14.1998 8.91854C14.2877 8.83064 14.4069 8.78125 14.5312 8.78125C14.6556 8.78125 14.7748 8.83064 14.8627 8.91854C14.9506 9.00645 15 9.12568 15 9.25V11.5938C15 12.091 14.8025 12.5679 14.4508 12.9196C14.0992 13.2712 13.6223 13.4688 13.125 13.4688H1.875C1.37772 13.4688 0.900805 13.2712 0.549175 12.9196C0.197544 12.5679 0 12.091 0 11.5938V9.25C0 9.12568 0.049386 9.00645 0.137294 8.91854C0.225201 8.83064 0.34443 8.78125 0.46875 8.78125Z" fill="#4878BB"/>
<path d="M7.16813 10.6131C7.21167 10.6568 7.26339 10.6914 7.32034 10.715C7.37729 10.7387 7.43834 10.7508 7.5 10.7508C7.56166 10.7508 7.62271 10.7387 7.67966 10.715C7.7366 10.6914 7.78833 10.6568 7.83187 10.6131L10.6444 7.80062C10.7324 7.71261 10.7818 7.59323 10.7818 7.46875C10.7818 7.34427 10.7324 7.22489 10.6444 7.13688C10.5564 7.04886 10.437 6.99941 10.3125 6.99941C10.188 6.99941 10.0686 7.04886 9.98063 7.13688L7.96875 9.14969V0.90625C7.96875 0.78193 7.91936 0.662701 7.83146 0.574794C7.74355 0.486886 7.62432 0.4375 7.5 0.4375C7.37568 0.4375 7.25645 0.486886 7.16854 0.574794C7.08064 0.662701 7.03125 0.78193 7.03125 0.90625V9.14969L5.01937 7.13688C4.93136 7.04886 4.81198 6.99941 4.6875 6.99941C4.56302 6.99941 4.44364 7.04886 4.35563 7.13688C4.26761 7.22489 4.21816 7.34427 4.21816 7.46875C4.21816 7.59323 4.26761 7.71261 4.35563 7.80062L7.16813 10.6131Z" fill="#4878BB"/>
</svg>
