<svg width="15" height="14" viewBox="0 0 15 14" fill="none" xmlns="http://www.w3.org/2000/svg">
<path d="M2.8125 3.71875H12.1875C12.6848 3.71875 13.1617 3.91629 13.5133 4.26792C13.865 4.61956 14.0625 5.09647 14.0625 5.59375V8.40625C14.0625 8.90353 13.865 9.38044 13.5133 9.73207C13.1617 10.0837 12.6848 10.2812 12.1875 10.2812H2.8125C2.31522 10.2812 1.83831 10.0837 1.48667 9.73207C1.13504 9.38044 0.9375 8.90353 0.9375 8.40625V5.59375C0.9375 5.09647 1.13504 4.61956 1.48667 4.26792C1.83831 3.91629 2.31522 3.71875 2.8125 3.71875ZM2.8125 4.65625C2.56386 4.65625 2.3254 4.75502 2.14959 4.93084C1.97377 5.10665 1.875 5.34511 1.875 5.59375V8.40625C1.875 8.65489 1.97377 8.89335 2.14959 9.06916C2.3254 9.24498 2.56386 9.34375 2.8125 9.34375H12.1875C12.4361 9.34375 12.6746 9.24498 12.8504 9.06916C13.0262 8.89335 13.125 8.65489 13.125 8.40625V5.59375C13.125 5.34511 13.0262 5.10665 12.8504 4.93084C12.6746 4.75502 12.4361 4.65625 12.1875 4.65625H2.8125ZM0.9375 1.375C0.9375 1.25068 0.986886 1.13145 1.07479 1.04354C1.1627 0.955636 1.28193 0.90625 1.40625 0.90625H13.5938C13.7181 0.90625 13.8373 0.955636 13.9252 1.04354C14.0131 1.13145 14.0625 1.25068 14.0625 1.375C14.0625 1.49932 14.0131 1.61855 13.9252 1.70646C13.8373 1.79436 13.7181 1.84375 13.5938 1.84375H1.40625C1.28193 1.84375 1.1627 1.79436 1.07479 1.70646C0.986886 1.61855 0.9375 1.49932 0.9375 1.375ZM0.9375 12.625C0.9375 12.5007 0.986886 12.3815 1.07479 12.2935C1.1627 12.2056 1.28193 12.1562 1.40625 12.1562H13.5938C13.7181 12.1562 13.8373 12.2056 13.9252 12.2935C14.0131 12.3815 14.0625 12.5007 14.0625 12.625C14.0625 12.7493 14.0131 12.8685 13.9252 12.9565C13.8373 13.0444 13.7181 13.0938 13.5938 13.0938H1.40625C1.28193 13.0938 1.1627 13.0444 1.07479 12.9565C0.986886 12.8685 0.9375 12.7493 0.9375 12.625Z" fill="#4878BB"/>
</svg>
