<svg width="14" height="11" viewBox="0 0 14 11" fill="none" xmlns="http://www.w3.org/2000/svg">
<path d="M0 1.28125C0 1.15693 0.0526784 1.0377 0.146447 0.949794C0.240215 0.861886 0.367392 0.8125 0.5 0.8125H13.5C13.6326 0.8125 13.7598 0.861886 13.8536 0.949794C13.9473 1.0377 14 1.15693 14 1.28125V2.21875C14 2.34307 13.9473 2.4623 13.8536 2.55021C13.7598 2.63811 13.6326 2.6875 13.5 2.6875H0.5C0.367392 2.6875 0.240215 2.63811 0.146447 2.55021C0.0526784 2.4623 0 2.34307 0 2.21875V1.28125ZM0 5.03125C0 4.90693 0.0526784 4.7877 0.146447 4.69979C0.240215 4.61189 0.367392 4.5625 0.5 4.5625H5.5C5.63261 4.5625 5.75979 4.61189 5.85355 4.69979C5.94732 4.7877 6 4.90693 6 5.03125V5.96875C6 6.09307 5.94732 6.2123 5.85355 6.30021C5.75979 6.38811 5.63261 6.4375 5.5 6.4375H0.5C0.367392 6.4375 0.240215 6.38811 0.146447 6.30021C0.0526784 6.2123 0 6.09307 0 5.96875V5.03125ZM0 8.78125C0 8.65693 0.0526784 8.5377 0.146447 8.44979C0.240215 8.36189 0.367392 8.3125 0.5 8.3125H1.5C1.63261 8.3125 1.75979 8.36189 1.85355 8.44979C1.94732 8.5377 2 8.65693 2 8.78125V9.71875C2 9.84307 1.94732 9.9623 1.85355 10.0502C1.75979 10.1381 1.63261 10.1875 1.5 10.1875H0.5C0.367392 10.1875 0.240215 10.1381 0.146447 10.0502C0.0526784 9.9623 0 9.84307 0 9.71875V8.78125ZM8 8.78125C8 8.65693 8.05268 8.5377 8.14645 8.44979C8.24021 8.36189 8.36739 8.3125 8.5 8.3125H9.5C9.63261 8.3125 9.75979 8.36189 9.85355 8.44979C9.94732 8.5377 10 8.65693 10 8.78125V9.71875C10 9.84307 9.94732 9.9623 9.85355 10.0502C9.75979 10.1381 9.63261 10.1875 9.5 10.1875H8.5C8.36739 10.1875 8.24021 10.1381 8.14645 10.0502C8.05268 9.9623 8 9.84307 8 9.71875V8.78125ZM4 8.78125C4 8.65693 4.05268 8.5377 4.14645 8.44979C4.24021 8.36189 4.36739 8.3125 4.5 8.3125H5.5C5.63261 8.3125 5.75979 8.36189 5.85355 8.44979C5.94732 8.5377 6 8.65693 6 8.78125V9.71875C6 9.84307 5.94732 9.9623 5.85355 10.0502C5.75979 10.1381 5.63261 10.1875 5.5 10.1875H4.5C4.36739 10.1875 4.24021 10.1381 4.14645 10.0502C4.05268 9.9623 4 9.84307 4 9.71875V8.78125ZM12 8.78125C12 8.65693 12.0527 8.5377 12.1464 8.44979C12.2402 8.36189 12.3674 8.3125 12.5 8.3125H13.5C13.6326 8.3125 13.7598 8.36189 13.8536 8.44979C13.9473 8.5377 14 8.65693 14 8.78125V9.71875C14 9.84307 13.9473 9.9623 13.8536 10.0502C13.7598 10.1381 13.6326 10.1875 13.5 10.1875H12.5C12.3674 10.1875 12.2402 10.1381 12.1464 10.0502C12.0527 9.9623 12 9.84307 12 9.71875V8.78125ZM8 5.03125C8 4.90693 8.05268 4.7877 8.14645 4.69979C8.24021 4.61189 8.36739 4.5625 8.5 4.5625H13.5C13.6326 4.5625 13.7598 4.61189 13.8536 4.69979C13.9473 4.7877 14 4.90693 14 5.03125V5.96875C14 6.09307 13.9473 6.2123 13.8536 6.30021C13.7598 6.38811 13.6326 6.4375 13.5 6.4375H8.5C8.36739 6.4375 8.24021 6.38811 8.14645 6.30021C8.05268 6.2123 8 6.09307 8 5.96875V5.03125Z" fill="#009EF7"/>
</svg>
