<svg width="16" height="15" viewBox="0 0 16 15" fill="none" xmlns="http://www.w3.org/2000/svg">
<path d="M16 7.5C16 9.48912 15.1571 11.3968 13.6569 12.8033C12.1566 14.2098 10.1217 15 8 15C5.87827 15 3.84344 14.2098 2.34315 12.8033C0.842855 11.3968 0 9.48912 0 7.5C0 5.51088 0.842855 3.60322 2.34315 2.1967C3.84344 0.790176 5.87827 0 8 0C10.1217 0 12.1566 0.790176 13.6569 2.1967C15.1571 3.60322 16 5.51088 16 7.5ZM8.5 4.21875C8.5 4.09443 8.44732 3.9752 8.35355 3.88729C8.25979 3.79939 8.13261 3.75 8 3.75C7.86739 3.75 7.74021 3.79939 7.64645 3.88729C7.55268 3.9752 7.5 4.09443 7.5 4.21875V7.03125H4.5C4.36739 7.03125 4.24021 7.08064 4.14645 7.16854C4.05268 7.25645 4 7.37568 4 7.5C4 7.62432 4.05268 7.74355 4.14645 7.83146C4.24021 7.91936 4.36739 7.96875 4.5 7.96875H7.5V10.7812C7.5 10.9056 7.55268 11.0248 7.64645 11.1127C7.74021 11.2006 7.86739 11.25 8 11.25C8.13261 11.25 8.25979 11.2006 8.35355 11.1127C8.44732 11.0248 8.5 10.9056 8.5 10.7812V7.96875H11.5C11.6326 7.96875 11.7598 7.91936 11.8536 7.83146C11.9473 7.74355 12 7.62432 12 7.5C12 7.37568 11.9473 7.25645 11.8536 7.16854C11.7598 7.08064 11.6326 7.03125 11.5 7.03125H8.5V4.21875Z" fill="#009EF7"/>
</svg>
