<svg width="11" height="10" viewBox="0 0 11 10" fill="none" xmlns="http://www.w3.org/2000/svg">
<path d="M9.73647 0.969995C9.80471 0.900361 9.88617 0.845042 9.97606 0.807278C10.0659 0.769513 10.1625 0.750061 10.26 0.750061C10.3575 0.750061 10.454 0.769513 10.5439 0.807278C10.6338 0.845042 10.7152 0.900361 10.7835 0.969995C11.0695 1.259 11.0735 1.72599 10.7935 2.01999L4.88047 9.01C4.81333 9.08372 4.73187 9.14297 4.64105 9.18412C4.55023 9.22527 4.45197 9.24746 4.35227 9.24934C4.25258 9.25121 4.15356 9.23272 4.06126 9.19501C3.96896 9.15729 3.88532 9.10114 3.81547 9.02999L0.217469 5.384C0.0787056 5.24248 0.000976562 5.05219 0.000976562 4.854C0.000976562 4.6558 0.0787056 4.46551 0.217469 4.32399C0.285714 4.25436 0.367167 4.19904 0.457057 4.16128C0.546947 4.12351 0.643468 4.10406 0.740968 4.10406C0.838469 4.10406 0.93499 4.12351 1.02488 4.16128C1.11477 4.19904 1.19622 4.25436 1.26447 4.32399L4.31647 7.417L9.71647 0.991995C9.72269 0.984267 9.72937 0.97692 9.73647 0.969995Z" fill="#0095E8"/>
</svg>
