<svg width="15" height="16" viewBox="0 0 15 16" fill="none" xmlns="http://www.w3.org/2000/svg">
<path d="M0 1.90625C0 1.53329 0.148158 1.1756 0.411881 0.911881C0.675604 0.648158 1.03329 0.5 1.40625 0.5L13.5938 0.5C13.9667 0.5 14.3244 0.648158 14.5881 0.911881C14.8518 1.1756 15 1.53329 15 1.90625V14.0938C15 14.4667 14.8518 14.8244 14.5881 15.0881C14.3244 15.3518 13.9667 15.5 13.5938 15.5H1.40625C1.03329 15.5 0.675604 15.3518 0.411881 15.0881C0.148158 14.8244 0 14.4667 0 14.0938L0 1.90625ZM1.40625 1.4375C1.28193 1.4375 1.1627 1.48689 1.07479 1.57479C0.986886 1.6627 0.9375 1.78193 0.9375 1.90625V14.0938C0.9375 14.2181 0.986886 14.3373 1.07479 14.4252C1.1627 14.5131 1.28193 14.5625 1.40625 14.5625H4.6875V1.4375H1.40625ZM9.375 14.5625V1.4375H5.625V14.5625H9.375ZM10.3125 14.5625H13.5938C13.7181 14.5625 13.8373 14.5131 13.9252 14.4252C14.0131 14.3373 14.0625 14.2181 14.0625 14.0938V1.90625C14.0625 1.78193 14.0131 1.6627 13.9252 1.57479C13.8373 1.48689 13.7181 1.4375 13.5938 1.4375H10.3125V14.5625Z" fill="#4878BB"/>
</svg>
