<svg width="13" height="12" viewBox="0 0 13 12" fill="none" xmlns="http://www.w3.org/2000/svg">
<path fill-rule="evenodd" clip-rule="evenodd" d="M12.5209 0.145978C12.5675 0.192424 12.6044 0.247599 12.6296 0.308345C12.6548 0.36909 12.6678 0.434211 12.6678 0.499978C12.6678 0.565746 12.6548 0.630867 12.6296 0.691612C12.6044 0.752357 12.5675 0.807533 12.5209 0.853978L1.52091 11.854C1.42702 11.9479 1.29969 12.0006 1.16691 12.0006C1.03413 12.0006 0.906796 11.9479 0.812909 11.854C0.719023 11.7601 0.666278 11.6328 0.666278 11.5C0.666278 11.3672 0.719023 11.2399 0.812909 11.146L11.8129 0.145978C11.8594 0.099415 11.9145 0.0624722 11.9753 0.0372658C12.036 0.0120593 12.1011 -0.000915527 12.1669 -0.000915527C12.2327 -0.000915527 12.2978 0.0120593 12.3585 0.0372658C12.4193 0.0624722 12.4745 0.099415 12.5209 0.145978Z" fill="#A1A5B7"/>
<path fill-rule="evenodd" clip-rule="evenodd" d="M0.812909 0.145978C0.766346 0.192424 0.729403 0.247599 0.704197 0.308345C0.67899 0.36909 0.666016 0.434211 0.666016 0.499978C0.666016 0.565746 0.67899 0.630867 0.704197 0.691612C0.729403 0.752357 0.766346 0.807533 0.812909 0.853978L11.8129 11.854C11.9068 11.9479 12.0341 12.0006 12.1669 12.0006C12.2997 12.0006 12.427 11.9479 12.5209 11.854C12.6148 11.7601 12.6675 11.6328 12.6675 11.5C12.6675 11.3672 12.6148 11.2399 12.5209 11.146L1.52091 0.145978C1.47446 0.099415 1.41929 0.0624722 1.35854 0.0372658C1.2978 0.0120593 1.23268 -0.000915527 1.16691 -0.000915527C1.10114 -0.000915527 1.03602 0.0120593 0.975276 0.0372658C0.914531 0.0624722 0.859355 0.099415 0.812909 0.145978Z" fill="#A1A5B7"/>
</svg>
