<?xml version="1.0" encoding="UTF-8"?><svg id="a" xmlns="http://www.w3.org/2000/svg" viewBox="0 0 752.31 449.96"><defs><style>.b,.c{stroke-linecap:round;}.b,.c,.d,.e,.f,.g{stroke-width:5px;}.b,.c,.d,.e,.g{stroke:#2b388f;}.b,.c,.f,.g{fill:none;}.b,.d,.e,.f,.g{stroke-miterlimit:10;}.c{stroke-linejoin:round;}.d{fill:#5fb9bf;}.e{fill:#edf0fa;}.f{stroke:#d68650;}.h{fill:#d68650;}</style></defs><path class="c" d="M457.26,84.33v34.57c0,7.82,6.34,14.16,14.16,14.16h34.89l-49.06-48.73Z"/><g><path class="h" d="M631.69,355.1c-2.34,0-4.67-.89-6.45-2.67l-29.25-29.25c-1.18-1.18-1.18-3.09,0-4.27l8.63-8.63c1.14-1.14,3.13-1.14,4.27,0l29.25,29.25c3.56,3.56,3.56,9.35,0,12.91-1.78,1.78-4.12,2.67-6.45,2.67Zm-33.4-34.06l29.17,29.17c2.34,2.34,6.14,2.34,8.47,0,2.34-2.34,2.34-6.13,0-8.47l-29.17-29.17-8.47,8.47Z"/><path class="h" d="M598.03,320.65c-.4,0-.8-.15-1.11-.46l-6.54-6.53c-.61-.61-.61-1.61,0-2.22,.61-.61,1.61-.61,2.22,0l5.43,5.42,4.54-4.54-5.42-5.43c-.61-.61-.61-1.61,0-2.22,.61-.61,1.61-.61,2.22,0l6.53,6.54c.61,.61,.61,1.61,0,2.22l-6.76,6.76c-.31,.31-.71,.46-1.11,.46Z"/><path class="h" d="M569.94,321.42c-9.93,0-19.27-3.87-26.29-10.89-14.5-14.5-14.5-38.09,0-52.59,14.5-14.5,38.09-14.5,52.59,0,7.02,7.02,10.89,16.36,10.89,26.29s-3.87,19.27-10.89,26.29c-7.02,7.02-16.36,10.89-26.29,10.89Zm0-71.22c-8.72,0-17.44,3.32-24.08,9.95-13.27,13.28-13.27,34.88,0,48.15,6.43,6.43,14.98,9.97,24.08,9.97s17.64-3.54,24.07-9.97c13.28-13.28,13.28-34.88,0-48.15-6.64-6.64-15.36-9.95-24.07-9.95Z"/><path class="h" d="M569.94,312.63c-7.27,0-14.55-2.77-20.09-8.31-5.37-5.36-8.32-12.5-8.32-20.09s2.96-14.72,8.32-20.09c5.36-5.37,12.5-8.32,20.09-8.32s14.72,2.96,20.09,8.32c11.08,11.08,11.08,29.1,0,40.17-5.54,5.54-12.81,8.31-20.09,8.31Zm0-53.66c-6.75,0-13.09,2.63-17.87,7.4-4.77,4.77-7.4,11.12-7.4,17.87s2.63,13.09,7.4,17.87c9.85,9.85,25.88,9.85,35.73,0s9.85-25.88,0-35.74h0c-4.77-4.77-11.12-7.4-17.87-7.4Z"/><path class="h" d="M626.34,352.89c-.4,0-.8-.15-1.11-.46-.61-.61-.61-1.61,0-2.22l10.69-10.69c.61-.61,1.61-.61,2.22,0s.61,1.61,0,2.22l-10.69,10.69c-.31,.31-.71,.46-1.11,.46Z"/></g><line class="g" x1="211.61" y1=".89" x2="233.64" y2="58.96"/><line class="g" x1="175.56" y1="31.59" x2="219.62" y2="73.65"/><line class="g" x1="145.52" y1="70.31" x2="199.59" y2="89.67"/><path class="e" d="M112.82,202.04h0c0,11.55,9.36,20.92,20.92,20.92h4.97c10.11,0,18.3,8.19,18.3,18.3v11.05c0,11.55-9.36,20.92-20.92,20.92h-43.76c-12.99,0-23.51,10.53-23.51,23.51v1.22c0,11.55,9.36,20.92,20.92,20.92H234.15V181.33h-100.62c-11.44,0-20.71,9.27-20.71,20.71Z"/><path class="d" d="M245.67,343.8c3.23,0,5.65-5.46,7.99-10.74,3.2-7.22,6.82-15.41,15.16-15.41s11.96,8.19,15.16,15.41c2.34,5.28,4.75,10.74,7.99,10.74s5.65-5.46,7.99-10.74c3.2-7.22,6.82-15.41,15.16-15.41s11.97,8.19,15.16,15.41c2.34,5.28,4.76,10.74,7.99,10.74s5.65-5.46,7.99-10.74c3.2-7.22,6.82-15.41,15.16-15.41s11.96,8.19,15.16,15.41c2.34,5.28,4.75,10.74,7.99,10.74s5.65-5.46,7.99-10.74c3.2-7.22,6.82-15.41,15.16-15.41s11.96,8.19,15.16,15.41c2.34,5.28,4.76,10.74,7.99,10.74s5.66-5.46,7.99-10.74c3.2-7.22,6.82-15.41,15.16-15.41s11.97,8.19,15.17,15.41c2.79,6.29,4.99,10.74,8,10.74,3.24,0,5.66-5.46,7.99-10.74,3.2-7.22,6.82-15.41,15.16-15.41,2.32,0,4.27,.65,5.95,1.72V134.45c0-.77-.62-1.39-1.39-1.39h-33.51c-7.82,0-14.16-6.34-14.16-14.16v-33.79c0-.43-.35-.78-.78-.78H248.47c-7.82,0-14.16,6.34-14.16,14.16v227.58c1.27,2.23,2.35,4.66,3.38,6.99,2.34,5.28,4.75,10.74,7.99,10.74Z"/><path class="g" d="M500.36,325.5c-3.23,0-5.65,5.46-7.99,10.74-3.2,7.22-6.82,15.41-15.17,15.41s-11.97-8.18-15.17-15.4c-2.79-6.29-4.99-10.74-8-10.74-3.23,0-5.65,5.46-7.99,10.74-3.2,7.22-6.82,15.41-15.17,15.41s-11.96-8.19-15.16-15.41c-2.34-5.28-4.75-10.74-7.99-10.74s-5.65,5.46-7.99,10.74c-3.2,7.22-6.82,15.41-15.16,15.41s-11.96-8.19-15.16-15.41c-2.34-5.28-4.75-10.74-7.99-10.74s-5.65,5.46-7.99,10.74c-3.2,7.22-6.82,15.41-15.16,15.41s-11.97-8.19-15.16-15.41c-2.34-5.28-4.76-10.74-7.99-10.74s-5.65,5.46-7.99,10.74c-3.2,7.22-6.82,15.41-15.16,15.41s-11.96-8.19-15.16-15.41c-2.34-5.28-4.75-10.74-7.99-10.74s-5.65,5.46-7.99,10.74c-3.2,7.22-6.82,15.41-15.16,15.41-4.92,0-8.19-2.85-10.71-6.67-.2-.3-.66-.17-.66,.19v88.13c0,7.82,6.34,14.16,14.16,14.16h243.68c7.82,0,14.16-6.34,14.16-14.16v-101.47c-1.92-3.85-3.71-6.32-5.95-6.32Z"/><path class="g" d="M608.17,219.12h0c0-7.74-7.86-14.01-17.57-14.01h-4.17c-8.49,0-15.37-5.49-15.37-12.26v-7.4c0-7.74,7.86-14.01,17.57-14.01h36.75c10.91,0,19.75-7.05,19.75-15.75v-.82c0-7.74-7.86-14.01-17.57-14.01h-121.28v92.12h84.5c9.6,0,17.39-6.21,17.39-13.87Z"/><line class="f" x1="88.11" y1="423.43" x2="202.93" y2="423.43"/><line class="f" y1="444.79" x2="114.82" y2="444.79"/><line class="f" x1="134.84" y1="444.79" x2="226.96" y2="444.79"/><line class="f" x1="525.35" y1="444.13" x2="553.38" y2="444.13"/><line class="f" x1="570.07" y1="444.13" x2="752.31" y2="444.13"/><line class="f" x1="544.71" y1="423.43" x2="682.22" y2="423.43"/><path class="b" d="M411.03,264.84c-8.12-14.14-23.34-23.69-40.81-23.69s-32.7,9.55-40.81,23.69"/><circle class="b" cx="307.51" cy="182.46" r="13.13"/><circle class="b" cx="433.45" cy="182.46" r="13.13"/></svg>