<svg width="17" height="11" viewBox="0 0 17 11" fill="none" xmlns="http://www.w3.org/2000/svg">
<path d="M10.75 5.5C10.75 6.16304 10.4866 6.79893 10.0178 7.26777C9.54893 7.73661 8.91304 8 8.25 8C7.58696 8 6.95107 7.73661 6.48223 7.26777C6.01339 6.79893 5.75 6.16304 5.75 5.5C5.75 4.83696 6.01339 4.20107 6.48223 3.73223C6.95107 3.26339 7.58696 3 8.25 3C8.91304 3 9.54893 3.26339 10.0178 3.73223C10.4866 4.20107 10.75 4.83696 10.75 5.5Z" fill="#0095E8"/>
<path d="M0.25 5.5C0.25 5.5 3.25 0 8.25 0C13.25 0 16.25 5.5 16.25 5.5C16.25 5.5 13.25 11 8.25 11C3.25 11 0.25 5.5 0.25 5.5ZM8.25 9C9.17826 9 10.0685 8.63125 10.7249 7.97487C11.3813 7.3185 11.75 6.42826 11.75 5.5C11.75 4.57174 11.3813 3.6815 10.7249 3.02513C10.0685 2.36875 9.17826 2 8.25 2C7.32174 2 6.4315 2.36875 5.77513 3.02513C5.11875 3.6815 4.75 4.57174 4.75 5.5C4.75 6.42826 5.11875 7.3185 5.77513 7.97487C6.4315 8.63125 7.32174 9 8.25 9Z" fill="#0095E8"/>
</svg>
