<svg width="22" height="22" viewBox="0 0 64 64" fill="none" xmlns="http://www.w3.org/2000/svg">
<circle cx="32" cy="32" r="32" fill="#CC4A31"/>
<path d="M55.3511 28.5528C54.4936 22.3029 51.1885 16.6497 46.1628 12.8367C41.1372 9.02374 34.8027 7.36337 28.5528 8.22086C22.3029 9.07836 16.6497 12.3835 12.8367 17.4091C9.02374 22.4348 7.36337 28.7693 8.22086 35.0192C8.92733 40.192 11.3045 44.9924 14.9905 48.6898C18.6765 52.3872 23.4696 54.7791 28.6402 55.5015C29.6983 55.6401 30.7642 55.7098 31.8312 55.7101C36.1424 55.7172 40.3728 54.5407 44.0614 52.3089C44.5842 51.994 44.9606 51.4843 45.1076 50.8919C45.2546 50.2995 45.1603 49.673 44.8453 49.1501C44.5304 48.6273 44.0207 48.251 43.4283 48.104C42.8359 47.9569 42.2094 48.0513 41.6866 48.3662C39.0611 49.9421 36.0965 50.8663 33.0406 51.0616C29.9848 51.2569 26.9266 50.7176 24.1219 49.4888C21.3172 48.26 18.8475 46.3774 16.9195 43.9986C14.9914 41.6197 13.6611 38.8137 13.0397 35.8154C12.4183 32.817 12.524 29.7134 13.3479 26.7642C14.1718 23.8151 15.6899 21.1061 17.7753 18.8639C19.8607 16.6217 22.4527 14.9115 25.3345 13.8763C28.2163 12.8411 31.3041 12.5111 34.3396 12.9138C37.159 13.2887 39.8598 14.286 42.2462 15.8336C44.6326 17.3812 46.6449 19.4403 48.1372 21.8616C49.6296 24.2829 50.5646 27.0059 50.8746 29.8333C51.1846 32.6606 50.8617 35.5215 49.9295 38.2087C49.6876 38.8548 49.2505 39.4097 48.679 39.7962C48.1075 40.1827 47.4298 40.3817 46.74 40.3657C45.831 40.3644 44.9596 40.0028 44.3168 39.36C43.6741 38.7173 43.3124 37.8459 43.3112 36.9369V22.7231C43.3112 22.1128 43.0688 21.5274 42.6372 21.0959C42.2056 20.6643 41.6203 20.4219 41.01 20.4219C40.3997 20.4219 39.8144 20.6643 39.3828 21.0959C38.9512 21.5274 38.7088 22.1128 38.7088 22.7231V22.7445C36.9643 21.4279 34.8808 20.6353 32.7022 20.4596C30.5236 20.2839 28.3401 20.7324 26.4071 21.7525C24.4741 22.7726 22.8716 24.3221 21.7872 26.2198C20.7029 28.1175 20.1814 30.2848 20.2839 32.468C20.3864 34.6513 21.1086 36.7601 22.366 38.5479C23.6235 40.3356 25.3641 41.7282 27.3841 42.5627C29.4042 43.3972 31.6201 43.6391 33.7727 43.2601C35.9252 42.8811 37.9253 41.8968 39.5388 40.4224C40.1907 41.7803 41.212 42.9269 42.4857 43.7309C43.7593 44.5349 45.2338 44.9636 46.74 44.9681C48.3865 44.9839 49.9971 44.4867 51.3481 43.5453C52.6991 42.604 53.7234 41.2653 54.2788 39.7152C55.5189 36.1326 55.8866 32.3059 55.3511 28.5528ZM31.8052 38.8315C30.4398 38.8315 29.105 38.4266 27.9697 37.6681C26.8344 36.9095 25.9496 35.8313 25.4271 34.5698C24.9045 33.3083 24.7678 31.9202 25.0342 30.5811C25.3006 29.2419 25.9581 28.0118 26.9236 27.0463C27.8891 26.0808 29.1192 25.4233 30.4583 25.1569C31.7975 24.8906 33.1856 25.0273 34.4471 25.5498C35.7085 26.0723 36.7867 26.9572 37.5453 28.0925C38.3039 29.2277 38.7088 30.5625 38.7088 31.9279C38.7068 33.7582 37.9788 35.513 36.6845 36.8073C35.3903 38.1015 33.6355 38.8295 31.8052 38.8315Z" fill="white"/>
</svg>
