<svg xmlns="http://www.w3.org/2000/svg" version="1.1" xmlns:xlink="http://www.w3.org/1999/xlink" xmlns:svgjs="http://svgjs.com/svgjs" width="512" height="512" x="0" y="0" viewBox="0 0 512 512" style="enable-background:new 0 0 512 512" xml:space="preserve" class=""><g><linearGradient id="GradientFill_1" gradientUnits="userSpaceOnUse" x1="256" x2="256" y1="512"><stop stop-opacity="1" stop-color="#5cc4bb" offset="0"></stop><stop stop-opacity="1" stop-color="#50c1c0" offset="0"></stop><stop stop-opacity="1" stop-color="#0095e8" offset="0"></stop><stop stop-opacity="1" stop-color="#0aacde" offset="1"></stop><stop stop-opacity="1" stop-color="#25b4d2" offset="1"></stop></linearGradient><path d="m331 215.8a32.046 32.046 0 1 0 -32.046-32.045 32.082 32.082 0 0 0 32.046 32.045zm.012-32c-.007-.023-.026-.095-.026-.1zm-75.012-183.8c-141.159 0-256 114.841-256 256s114.841 256 256 256 256-114.841 256-256-114.841-256-256-256zm0 480c-123.514 0-224-100.486-224-224s100.486-224 224-224 224 100.486 224 224-100.486 224-224 224zm-107.046-296.242a32.046 32.046 0 1 1 32.046 32.042 32.083 32.083 0 0 1 -32.046-32.042zm244.594 144.5a177.962 177.962 0 0 1 -275.1 0 16 16 0 0 1 24.721-20.32 145.961 145.961 0 0 0 225.657 0 16 16 0 1 1 24.72 20.32z" fill="url(#GradientFill_1)" data-original="url(#GradientFill_1)"></path></g></svg>