<svg width="4" height="16" viewBox="0 0 4 16" fill="none" xmlns="http://www.w3.org/2000/svg">
<path fill-rule="evenodd" clip-rule="evenodd" d="M3.55554 8C3.55554 7.5285 3.36824 7.07632 3.03484 6.74292C2.70144 6.40952 2.24926 6.22222 1.77776 6.22222C1.30627 6.22222 0.854084 6.40952 0.520686 6.74292C0.187288 7.07632 -1.35899e-05 7.5285 -1.35899e-05 8C-1.35899e-05 8.4715 0.187288 8.92368 0.520686 9.25708C0.854084 9.59048 1.30627 9.77778 1.77776 9.77778C2.24926 9.77778 2.70144 9.59048 3.03484 9.25708C3.36824 8.92368 3.55554 8.4715 3.55554 8ZM3.55554 14.2222C3.55554 13.7507 3.36824 13.2985 3.03484 12.9651C2.70144 12.6317 2.24926 12.4444 1.77776 12.4444C1.30627 12.4444 0.854084 12.6317 0.520686 12.9651C0.187288 13.2985 -1.35899e-05 13.7507 -1.35899e-05 14.2222C-1.35899e-05 14.6937 0.187288 15.1459 0.520686 15.4793C0.854084 15.8127 1.30627 16 1.77776 16C2.24926 16 2.70144 15.8127 3.03484 15.4793C3.36824 15.1459 3.55554 14.6937 3.55554 14.2222ZM3.55554 1.77778C3.55554 1.30628 3.36824 0.854097 3.03484 0.520699C2.70144 0.187301 2.24926 0 1.77776 0C1.30627 0 0.854084 0.187301 0.520686 0.520699C0.187288 0.854097 -1.35899e-05 1.30628 -1.35899e-05 1.77778C-1.35899e-05 2.24927 0.187288 2.70146 0.520686 3.03486C0.854084 3.36825 1.30627 3.55556 1.77776 3.55556C2.24926 3.55556 2.70144 3.36825 3.03484 3.03486C3.36824 2.70146 3.55554 2.24927 3.55554 1.77778Z" fill="#1D2971"/>
</svg>
