<svg width="16" height="16" viewBox="0 0 16 16" fill="none" xmlns="http://www.w3.org/2000/svg">
<path d="M8.732 0.507226C9.05849 0.182362 9.50027 0 9.96078 0C10.4213 0 10.8631 0.182362 11.1896 0.507226L15.4911 4.81008C15.817 5.1361 16 5.57823 16 6.03922C16 6.50022 15.817 6.94234 15.4911 7.26836C15.3299 7.43017 15.1384 7.55856 14.9275 7.64616C14.7166 7.73376 14.4905 7.77886 14.2621 7.77886C14.0338 7.77886 13.8077 7.73376 13.5968 7.64616C13.3859 7.55856 13.1943 7.43017 13.0331 7.26836L12.726 6.96108L10.1611 9.52671C10.9345 11.6216 10.417 14.2064 8.73157 15.8736C8.6498 15.9546 8.53941 16 8.42437 16C8.30933 16 8.19894 15.9546 8.11718 15.8736L4.43042 12.1858L1.66524 14.9518C1.58329 15.031 1.47353 15.0748 1.35961 15.0738C1.24568 15.0728 1.1367 15.0271 1.05614 14.9465C0.975583 14.8659 0.929886 14.7569 0.928896 14.6429C0.927906 14.529 0.971702 14.4192 1.05085 14.3372L3.81603 11.5712L0.129269 7.88336C0.0883443 7.8433 0.0558299 7.79546 0.0336321 7.74265C0.0114343 7.68985 0 7.63314 0 7.57586C0 7.51858 0.0114343 7.46187 0.0336321 7.40907C0.0558299 7.35627 0.0883443 7.30843 0.129269 7.26836C1.77299 5.62415 4.27009 5.03566 6.47389 5.83842L9.03876 3.27279L8.732 2.96594C8.40625 2.63979 8.22328 2.19761 8.22328 1.73658C8.22328 1.27555 8.40625 0.833378 8.732 0.507226ZM10.5752 1.12179C10.4122 0.958833 10.1912 0.867287 9.96078 0.867287C9.73035 0.867287 9.50935 0.958833 9.34639 1.12179C9.1844 1.28538 9.09352 1.50633 9.09352 1.73658C9.09352 1.96684 9.1844 2.18778 9.34639 2.35137L9.96078 2.96594C10.1172 3.12241 10.1394 3.40144 9.96078 3.58051L6.88971 6.65292C6.82902 6.71357 6.75174 6.75489 6.66761 6.77167C6.58348 6.78845 6.49627 6.77995 6.41697 6.74724C4.70763 6.044 2.64244 6.24698 1.06345 7.58868L8.41134 14.9387C9.68878 13.461 9.96078 11.2357 9.25297 9.58408C9.17041 9.39284 9.25297 9.20595 9.34639 9.11163L12.4183 6.03922C12.5752 5.88275 12.8446 5.85668 13.0331 6.03922L13.6475 6.65379C13.8105 6.81684 14.0315 6.90847 14.262 6.90851C14.4925 6.90855 14.7135 6.817 14.8765 6.65401C15.0395 6.49101 15.1311 6.26992 15.1312 6.03938C15.1312 5.80883 15.0397 5.5877 14.8767 5.42465L10.5752 1.12179Z" fill="#1D2971"/>
</svg>
