<svg width="19" height="19" viewBox="0 0 19 19" fill="none" xmlns="http://www.w3.org/2000/svg">
<g clip-path="url(#clip0_7_2)">
<path d="M9.5 0C4.25378 0 0 4.25323 0 9.5C0 14.7468 4.25378 19 9.5 19C14.7473 19 19 14.7468 19 9.5C19 4.25323 14.7473 0 9.5 0ZM13.006 6.33629C13.7571 6.33629 14.3668 6.94596 14.3668 7.69708C14.3668 8.4482 13.7566 9.05787 13.006 9.05787C12.2549 9.05787 11.6452 8.4482 11.6452 7.69708C11.6452 6.94596 12.2549 6.33629 13.006 6.33629ZM5.99346 6.33629C6.74514 6.33629 7.35425 6.94596 7.35425 7.69708C7.35425 8.4482 6.74514 9.05787 5.99346 9.05787C5.24234 9.05787 4.63267 8.4482 4.63267 7.69708C4.63267 6.94596 5.24289 6.33629 5.99346 6.33629ZM14.6258 12.8029C13.462 14.4927 11.5453 15.5012 9.5 15.5012C7.45355 15.5012 5.53635 14.4927 4.37416 12.8024C4.11343 12.4241 4.2094 11.9059 4.58829 11.6452C4.96718 11.3839 5.48476 11.4804 5.74549 11.8593C6.59758 13.0981 8.00164 13.837 9.50055 13.837C10.9995 13.837 12.4024 13.0981 13.2567 11.8593C13.5175 11.4815 14.0345 11.3856 14.4139 11.6458C14.7906 11.9065 14.886 12.4241 14.6258 12.8029Z" fill="#0095E8"/>
</g>
<defs>
<clipPath id="clip0_7_2">
<rect width="19" height="19" fill="white"/>
</clipPath>
</defs>
</svg>
