<svg width="19" height="19" viewBox="0 0 19 19" fill="none" xmlns="http://www.w3.org/2000/svg">
<path d="M12.2832 8.0082C12.5184 8.0082 12.7483 7.93846 12.9439 7.80778C13.1395 7.67711 13.2919 7.49138 13.3819 7.27408C13.4719 7.05678 13.4954 6.81766 13.4496 6.58698C13.4037 6.3563 13.2904 6.1444 13.1241 5.97809C12.9578 5.81177 12.7459 5.69852 12.5152 5.65264C12.2845 5.60675 12.0454 5.63031 11.8281 5.72032C11.6108 5.81034 11.4251 5.96277 11.2944 6.15834C11.1637 6.3539 11.094 6.58383 11.094 6.81903C11.0944 7.13432 11.2198 7.43658 11.4427 7.65952C11.6657 7.88245 11.9679 8.00785 12.2832 8.0082V8.0082ZM12.2836 6.8207C12.2834 6.81985 12.2827 6.81718 12.2827 6.81699L12.2836 6.8207ZM9.5 0C4.26168 0 0 4.26168 0 9.5C0 14.7383 4.26168 19 9.5 19C14.7383 19 19 14.7383 19 9.5C19 4.26168 14.7383 0 9.5 0ZM9.5 17.8125C4.91647 17.8125 1.1875 14.0835 1.1875 9.5C1.1875 4.91647 4.91647 1.1875 9.5 1.1875C14.0835 1.1875 17.8125 4.91647 17.8125 9.5C17.8125 14.0835 14.0835 17.8125 9.5 17.8125ZM5.52759 6.81914C5.52756 6.58394 5.59728 6.354 5.72794 6.15842C5.85859 5.96283 6.04431 5.81039 6.2616 5.72035C6.4789 5.63032 6.71802 5.60675 6.94871 5.65262C7.1794 5.69849 7.39131 5.81174 7.55764 5.97805C7.72397 6.14435 7.83724 6.35625 7.88314 6.58694C7.92904 6.81763 7.9055 7.05674 7.8155 7.27405C7.72549 7.49136 7.57307 7.6771 7.3775 7.80778C7.18193 7.93845 6.95201 8.0082 6.7168 8.0082C6.40154 8.00784 6.09929 7.88245 5.87635 7.65954C5.65342 7.43663 5.52799 7.1344 5.52759 6.81914V6.81914ZM14.6043 12.1814C13.9848 12.9361 13.2057 13.544 12.3231 13.9613C11.4405 14.3787 10.4763 14.5952 9.49993 14.5952C8.52359 14.5952 7.55939 14.3787 6.67676 13.9613C5.79413 13.544 5.01502 12.9361 4.39553 12.1814C4.29554 12.0598 4.24796 11.9034 4.26328 11.7467C4.27859 11.5899 4.35554 11.4457 4.47719 11.3457C4.59884 11.2457 4.75524 11.1982 4.91196 11.2135C5.06869 11.2288 5.21292 11.3057 5.31291 11.4274C5.821 12.0465 6.46006 12.5452 7.18407 12.8876C7.90807 13.2301 8.69901 13.4077 9.49991 13.4077C10.3008 13.4077 11.0917 13.2301 11.8157 12.8876C12.5398 12.5452 13.1788 12.0465 13.6869 11.4274C13.7363 11.3668 13.7972 11.3165 13.866 11.2795C13.9349 11.2425 14.0104 11.2194 14.0882 11.2116C14.166 11.2039 14.2446 11.2115 14.3194 11.2342C14.3942 11.2569 14.4638 11.2941 14.5242 11.3438C14.5846 11.3934 14.6346 11.4545 14.6714 11.5235C14.7081 11.5925 14.7308 11.6681 14.7383 11.746C14.7457 11.8238 14.7377 11.9024 14.7147 11.9771C14.6917 12.0518 14.6542 12.1213 14.6042 12.1814H14.6043Z" fill="#5E6278"/>
</svg>
