<svg width="15" height="17" viewBox="0 0 15 17" fill="none" xmlns="http://www.w3.org/2000/svg">
<path fill-rule="evenodd" clip-rule="evenodd" d="M8 6.23926C8.13261 6.23926 8.25979 6.29194 8.35355 6.3857C8.44732 6.47947 8.5 6.60665 8.5 6.73926V8.23926H10C10.1326 8.23926 10.2598 8.29194 10.3536 8.3857C10.4473 8.47947 10.5 8.60665 10.5 8.73926C10.5 8.87187 10.4473 8.99904 10.3536 9.09281C10.2598 9.18658 10.1326 9.23926 10 9.23926H8.5V10.7393C8.5 10.8719 8.44732 10.999 8.35355 11.0928C8.25979 11.1866 8.13261 11.2393 8 11.2393C7.86739 11.2393 7.74021 11.1866 7.64645 11.0928C7.55268 10.999 7.5 10.8719 7.5 10.7393V9.23926H6C5.86739 9.23926 5.74021 9.18658 5.64645 9.09281C5.55268 8.99904 5.5 8.87187 5.5 8.73926C5.5 8.60665 5.55268 8.47947 5.64645 8.3857C5.74021 8.29194 5.86739 8.23926 6 8.23926H7.5V6.73926C7.5 6.60665 7.55268 6.47947 7.64645 6.3857C7.74021 6.29194 7.86739 6.23926 8 6.23926Z" fill="#1D2971"/>
<path d="M3 0.739258H13C13.5304 0.739258 14.0391 0.949972 14.4142 1.32504C14.7893 1.70012 15 2.20882 15 2.73926V14.7393C15 15.2697 14.7893 15.7784 14.4142 16.1535C14.0391 16.5285 13.5304 16.7393 13 16.7393H3C2.46957 16.7393 1.96086 16.5285 1.58579 16.1535C1.21071 15.7784 1 15.2697 1 14.7393V13.7393H2V14.7393C2 15.0045 2.10536 15.2588 2.29289 15.4464C2.48043 15.6339 2.73478 15.7393 3 15.7393H13C13.2652 15.7393 13.5196 15.6339 13.7071 15.4464C13.8946 15.2588 14 15.0045 14 14.7393V2.73926C14 2.47404 13.8946 2.21969 13.7071 2.03215C13.5196 1.84461 13.2652 1.73926 13 1.73926H3C2.73478 1.73926 2.48043 1.84461 2.29289 2.03215C2.10536 2.21969 2 2.47404 2 2.73926V3.73926H1V2.73926C1 2.20882 1.21071 1.70012 1.58579 1.32504C1.96086 0.949972 2.46957 0.739258 3 0.739258Z" fill="#1D2971"/>
<path d="M1 5.73926V5.23926C1 5.10665 1.05268 4.97947 1.14645 4.8857C1.24021 4.79194 1.36739 4.73926 1.5 4.73926C1.63261 4.73926 1.75979 4.79194 1.85355 4.8857C1.94732 4.97947 2 5.10665 2 5.23926V5.73926H2.5C2.63261 5.73926 2.75979 5.79194 2.85355 5.8857C2.94732 5.97947 3 6.10665 3 6.23926C3 6.37187 2.94732 6.49904 2.85355 6.59281C2.75979 6.68658 2.63261 6.73926 2.5 6.73926H0.5C0.367392 6.73926 0.240215 6.68658 0.146447 6.59281C0.0526784 6.49904 0 6.37187 0 6.23926C0 6.10665 0.0526784 5.97947 0.146447 5.8857C0.240215 5.79194 0.367392 5.73926 0.5 5.73926H1ZM1 8.73926V8.23926C1 8.10665 1.05268 7.97947 1.14645 7.8857C1.24021 7.79194 1.36739 7.73926 1.5 7.73926C1.63261 7.73926 1.75979 7.79194 1.85355 7.8857C1.94732 7.97947 2 8.10665 2 8.23926V8.73926H2.5C2.63261 8.73926 2.75979 8.79194 2.85355 8.8857C2.94732 8.97947 3 9.10665 3 9.23926C3 9.37187 2.94732 9.49904 2.85355 9.59281C2.75979 9.68658 2.63261 9.73926 2.5 9.73926H0.5C0.367392 9.73926 0.240215 9.68658 0.146447 9.59281C0.0526784 9.49904 0 9.37187 0 9.23926C0 9.10665 0.0526784 8.97947 0.146447 8.8857C0.240215 8.79194 0.367392 8.73926 0.5 8.73926H1ZM1 11.7393V11.2393C1 11.1066 1.05268 10.9795 1.14645 10.8857C1.24021 10.7919 1.36739 10.7393 1.5 10.7393C1.63261 10.7393 1.75979 10.7919 1.85355 10.8857C1.94732 10.9795 2 11.1066 2 11.2393V11.7393H2.5C2.63261 11.7393 2.75979 11.7919 2.85355 11.8857C2.94732 11.9795 3 12.1066 3 12.2393C3 12.3719 2.94732 12.499 2.85355 12.5928C2.75979 12.6866 2.63261 12.7393 2.5 12.7393H0.5C0.367392 12.7393 0.240215 12.6866 0.146447 12.5928C0.0526784 12.499 0 12.3719 0 12.2393C0 12.1066 0.0526784 11.9795 0.146447 11.8857C0.240215 11.7919 0.367392 11.7393 0.5 11.7393H1Z" fill="#1D2971"/>
</svg>
