<svg width="16" height="13" viewBox="0 0 16 13" fill="none" xmlns="http://www.w3.org/2000/svg">
<path d="M6 6.73926C6.79565 6.73926 7.55871 6.42319 8.12132 5.86058C8.68393 5.29797 9 4.53491 9 3.73926C9 2.94361 8.68393 2.18055 8.12132 1.61794C7.55871 1.05533 6.79565 0.739258 6 0.739258C5.20435 0.739258 4.44129 1.05533 3.87868 1.61794C3.31607 2.18055 3 2.94361 3 3.73926C3 4.53491 3.31607 5.29797 3.87868 5.86058C4.44129 6.42319 5.20435 6.73926 6 6.73926ZM8 3.73926C8 4.26969 7.78929 4.7784 7.41421 5.15347C7.03914 5.52854 6.53043 5.73926 6 5.73926C5.46957 5.73926 4.96086 5.52854 4.58579 5.15347C4.21071 4.7784 4 4.26969 4 3.73926C4 3.20882 4.21071 2.70012 4.58579 2.32504C4.96086 1.94997 5.46957 1.73926 6 1.73926C6.53043 1.73926 7.03914 1.94997 7.41421 2.32504C7.78929 2.70012 8 3.20882 8 3.73926ZM12 11.7393C12 12.7393 11 12.7393 11 12.7393H1C1 12.7393 0 12.7393 0 11.7393C0 10.7393 1 7.73926 6 7.73926C11 7.73926 12 10.7393 12 11.7393ZM11 11.7353C10.999 11.4893 10.846 10.7493 10.168 10.0713C9.516 9.41926 8.289 8.73926 6 8.73926C3.71 8.73926 2.484 9.41926 1.832 10.0713C1.154 10.7493 1.002 11.4893 1 11.7353H11Z" fill="#1D2971"/>
<path fill-rule="evenodd" clip-rule="evenodd" d="M13.5 3.73926C13.6326 3.73926 13.7598 3.79194 13.8536 3.8857C13.9473 3.97947 14 4.10665 14 4.23926V5.73926H15.5C15.6326 5.73926 15.7598 5.79194 15.8536 5.8857C15.9473 5.97947 16 6.10665 16 6.23926C16 6.37187 15.9473 6.49904 15.8536 6.59281C15.7598 6.68658 15.6326 6.73926 15.5 6.73926H14V8.23926C14 8.37187 13.9473 8.49904 13.8536 8.59281C13.7598 8.68658 13.6326 8.73926 13.5 8.73926C13.3674 8.73926 13.2402 8.68658 13.1464 8.59281C13.0527 8.49904 13 8.37187 13 8.23926V6.73926H11.5C11.3674 6.73926 11.2402 6.68658 11.1464 6.59281C11.0527 6.49904 11 6.37187 11 6.23926C11 6.10665 11.0527 5.97947 11.1464 5.8857C11.2402 5.79194 11.3674 5.73926 11.5 5.73926H13V4.23926C13 4.10665 13.0527 3.97947 13.1464 3.8857C13.2402 3.79194 13.3674 3.73926 13.5 3.73926Z" fill="#1D2971"/>
</svg>
