<?xml version="1.0" encoding="UTF-8"?>
<svg id="Layer_1" data-name="Layer 1" xmlns="http://www.w3.org/2000/svg" viewBox="0 0 14.82 16.01">
  <defs>
    <style>
      .cls-1 {
        fill: #1d2971;
        fill-rule: evenodd;
      }
    </style>
  </defs>
  <path class="cls-1" d="m14.67,2.29c-.07.07-2.02,2.22-.52,4.57.91,1.57.91,3.53-.07,5.09-1.11,2.29-3.59,3.79-6.73,4.05-3.13-.26-5.62-1.7-6.73-4.05-.85-1.63-.85-3.53.07-5.09C2.2,4.51.17,2.29.17,2.29c-.07-.13-.07-.33.07-.46L1.87.14c.13-.13.33-.2.52-.07.72.59,1.7.98,2.68,1.04.78,0,1.57-.33,2.09-.98.07-.07.13-.13.26-.13.1,0,.16.03.23.08.03.02.06.03.09.05.52.65,1.31.98,2.09.98.98-.07,1.89-.39,2.68-1.04.13-.07.33-.07.46.07l1.7,1.7c.13.13.13.33,0,.46Zm-7.25,13c2.87-.26,5.09-1.57,6.14-3.66.78-1.37.78-3,0-4.38-1.44-2.29-.13-4.44.39-5.16l-1.24-1.31c-.85.65-1.83.98-2.87,1.04-.91,0-1.76-.39-2.42-.98-.65.65-1.5.98-2.42.98-1.04-.07-2.02-.46-2.87-1.04l-1.24,1.31c.59.72,1.89,2.87.39,5.16-.72,1.37-.72,3,0,4.38,1.04,2.09,3.27,3.4,6.14,3.66Zm-4.96-6.73c0-2.74,2.22-4.96,4.96-4.96s4.96,2.22,4.96,4.96-2.22,4.96-4.96,4.96-4.96-2.22-4.96-4.96Zm6.79.72l1.37-1.31c.07-.07.13-.13.13-.2.07-.2-.07-.39-.26-.39l-1.89-.26-.85-1.7s-.02-.06-.06-.08c-.02-.01-.05-.03-.07-.05-.2-.13-.39-.07-.46.2l-.85,1.7-1.89.26s-.07.05-.1.07c-.03.02-.07.03-.1.07-.13.13-.13.33,0,.46l1.37,1.31-.33,1.83v.13c.07.13.26.2.46.13l1.7-.85,1.7.85c.07.07.13.07.2.07.2,0,.26-.2.26-.39l-.33-1.83Z"/>
</svg>