<?xml version="1.0" encoding="utf-8"?>
<!-- Generator: Adobe Illustrator 27.0.1, SVG Export Plug-In . SVG Version: 6.00 Build 0)  -->
<svg version="1.1" id="Layer_1" xmlns="http://www.w3.org/2000/svg" xmlns:xlink="http://www.w3.org/1999/xlink" x="0px" y="0px"
	 viewBox="0 0 16 14.1" style="enable-background:new 0 0 16 14.1;" xml:space="preserve">
<style type="text/css">
	.st0{fill:#1D2971;}
</style>
<g>
	<path class="st0" d="M13,1.5c0-0.4,0.2-0.8,0.4-1.1C13.7,0.2,14.1,0,14.5,0s0.8,0.2,1.1,0.4C15.8,0.7,16,1.1,16,1.5v11
		c0,0.4-0.2,0.8-0.4,1.1c-0.3,0.3-0.7,0.4-1.1,0.4s-0.8-0.2-1.1-0.4c-0.3-0.3-0.4-0.7-0.4-1.1v-0.2c-2.2-1.2-4.5-1.8-6.9-2.1
		l0.4,2.7c0,0.1,0,0.3,0,0.4c0,0.1-0.1,0.3-0.2,0.4c-0.1,0.1-0.2,0.2-0.3,0.3c-0.1,0.1-0.3,0.1-0.4,0.1H5c-0.2,0-0.4-0.1-0.5-0.2
		c-0.2-0.1-0.3-0.3-0.4-0.4L2.2,10c-0.1,0-0.1,0-0.2,0c-0.5,0-1-0.2-1.4-0.6C0.2,9,0,8.5,0,8V6c0-0.5,0.2-1,0.6-1.4C1,4.2,1.5,4,2,4
		c0.8,0,1.7,0,2.5-0.1c3-0.2,6.1-0.8,8.5-2.2V1.5z M14,1.5v11c0,0.1,0.1,0.3,0.1,0.4c0.1,0.1,0.2,0.1,0.4,0.1s0.3-0.1,0.4-0.1
		c0.1-0.1,0.1-0.2,0.1-0.4v-11c0-0.1-0.1-0.3-0.1-0.4C14.8,1.1,14.6,1,14.5,1s-0.3,0.1-0.4,0.1C14.1,1.2,14,1.4,14,1.5z M13,2.8
		c-2.3,1.2-5.2,1.8-8,2v4.2c0.2,0,0.4,0,0.5,0c2.6,0.2,5.1,0.7,7.5,2V2.8z M4,9.1V4.9C3.3,5,2.7,5,2,5C1.7,5,1.5,5.1,1.3,5.3
		C1.1,5.5,1,5.7,1,6v2c0,0.6,0.4,1,1,1C2.7,9,3.3,9,4,9.1z M3.3,10l1.6,3l0,0h0.5l0,0l-0.4-3C4.5,10.1,3.9,10.1,3.3,10L3.3,10z"/>
</g>
</svg>
