<?xml version="1.0" encoding="UTF-8"?>
<svg id="Layer_1" data-name="Layer 1" xmlns="http://www.w3.org/2000/svg" viewBox="0 0 32 32">
  <defs>
    <style>
      .cls-1 {
        fill: #1d2971;
      }
    </style>
  </defs>
  <path class="cls-1" d="M30.5,1.5V7.03H1.5V1.5H30.5M32,0H0V8.53H32V0h0Z"/>
  <path class="cls-1" d="M10.5,8.5v9.5H1.5V8.5H10.5m1.5-1.5H0v12.5H12V7h0Z"/>
  <path class="cls-1" d="M10.5,19.5v11H1.5v-11H10.5m1.5-1.5H0v14H12v-14h0Z"/>
  <path class="cls-1" d="M30.5,8.5V30.5H11.93V8.5H30.5m1.5-1.5H10.43v25h21.57V7h0Z"/>
  <path class="cls-1" d="M22.14,10.97c-.17-.36-.2-.77-.07-1.15,.13-.38,.4-.68,.76-.86s.77-.2,1.15-.07c.38,.13,.68,.4,.86,.76l4.8,9.9c.17,.36,.2,.77,.07,1.15-.13,.38-.4,.68-.76,.86s-.77,.2-1.15,.07c-.38-.13-.68-.4-.86-.76l-.09-.19c-2.49-.17-4.84,.3-7.13,1.14l1.55,2.26c.09,.12,.15,.25,.18,.4,.03,.14,.03,.29,0,.44-.04,.14-.1,.28-.19,.39-.09,.11-.21,.21-.34,.27l-.49,.24c-.17,.08-.37,.12-.56,.09-.19-.02-.37-.1-.52-.23l-3.19-2.33c-.06,.03-.12,.06-.18,.09-.48,.23-1.03,.26-1.53,.08-.5-.18-.91-.54-1.14-1.02l-.87-1.8c-.23-.48-.26-1.03-.09-1.53,.17-.5,.53-.92,1.01-1.15,.74-.37,1.47-.76,2.2-1.15,2.67-1.47,5.16-3.45,6.71-5.7l-.09-.19Zm.9-.44l4.8,9.9c.06,.12,.16,.21,.29,.25,.13,.04,.26,.04,.38-.02s.21-.16,.25-.29c.04-.13,.04-.26-.02-.38l-4.8-9.9c-.06-.12-.16-.21-.29-.25-.13-.04-.26-.04-.38,.02s-.21,.16-.25,.29c-.04,.13-.04,.26,.02,.38Zm-.31,1.65c-1.58,2.11-3.88,3.93-6.31,5.32l1.85,3.81c.17-.07,.33-.14,.5-.2,2.39-.95,4.91-1.55,7.58-1.46l-3.62-7.46Zm-5.38,9.52l-1.8-3.72c-.59,.31-1.18,.62-1.77,.92-.24,.12-.42,.33-.51,.58-.09,.25-.07,.53,.04,.77l.87,1.8c.24,.49,.84,.71,1.35,.47,.6-.28,1.21-.56,1.82-.82Zm-.17,1.16l2.77,2.03,.02,.02,.49-.24h0s-1.69-2.49-1.69-2.49c-.53,.22-1.06,.45-1.59,.68h0Z"/>
</svg>