<svg width="16" height="16" viewBox="0 0 16 16" fill="none" xmlns="http://www.w3.org/2000/svg">
<path d="M13.7343 9.30442C13.3355 9.30442 12.9367 9.40556 12.6377 9.60783L9.5472 3.84313C10.5441 2.83178 10.3447 1.11249 9.04873 0.303405C8.35089 -0.101135 7.55334 -0.101135 6.8555 0.303405C5.55949 1.01135 5.36011 2.83178 6.35703 3.84313L3.36626 9.70896C2.07026 8.89988 0.475175 9.50669 0.076405 11.0237C-0.12298 11.7317 0.0764051 12.6419 0.574868 13.1476C1.67149 14.26 3.36626 13.9566 4.06411 12.743C4.56257 11.8328 4.46288 10.7203 3.76503 10.0124L6.8555 4.14654C7.15457 4.34881 7.45365 4.44994 7.75273 4.44994V11.5294C6.35703 11.7317 5.4598 13.1476 5.95826 14.6646C6.25734 15.3725 6.95519 15.8782 7.65304 15.9793C9.14843 16.1816 10.3447 14.8668 10.1454 13.451C10.0457 12.4396 9.24812 11.6305 8.25119 11.5294V4.44994C8.55027 4.44994 8.84935 4.34881 9.14843 4.14654L12.2389 10.0124C11.242 11.0237 11.4414 12.743 12.7374 13.5521C13.4352 13.9566 14.2327 13.9566 14.9306 13.5521C16.2266 12.743 16.3263 11.0237 15.3294 10.0124C14.8309 9.60783 14.3324 9.30442 13.7343 9.30442Z" fill="#1D2971"/>
</svg>
