<svg width="16" height="11" viewBox="0 0 16 11" fill="none" xmlns="http://www.w3.org/2000/svg">
<path d="M14 1.00012C14.2652 1.00012 14.5196 1.10548 14.7071 1.29302C14.8946 1.48055 15 1.73491 15 2.00012V10.0001C15 10.2653 14.8946 10.5197 14.7071 10.7072C14.5196 10.8948 14.2652 11.0001 14 11.0001H2C1.73478 11.0001 1.48043 10.8948 1.29289 10.7072C1.10536 10.5197 1 10.2653 1 10.0001V2.00012C1 1.73491 1.10536 1.48055 1.29289 1.29302C1.48043 1.10548 1.73478 1.00012 2 1.00012H14ZM2 0.00012207C1.46957 0.00012207 0.960859 0.210836 0.585786 0.585908C0.210714 0.960981 0 1.46969 0 2.00012V10.0001C0 10.5306 0.210714 11.0393 0.585786 11.4143C0.960859 11.7894 1.46957 12.0001 2 12.0001H14C14.5304 12.0001 15.0391 11.7894 15.4142 11.4143C15.7893 11.0393 16 10.5306 16 10.0001V2.00012C16 1.46969 15.7893 0.960981 15.4142 0.585908C15.0391 0.210836 14.5304 0.00012207 14 0.00012207H2Z" fill="#1D2971"/>
<path d="M2 3.50012C2 3.36751 2.05268 3.24034 2.14645 3.14657C2.24021 3.0528 2.36739 3.00012 2.5 3.00012H4.5C4.63261 3.00012 4.75979 3.0528 4.85355 3.14657C4.94732 3.24034 5 3.36751 5 3.50012V4.50012C5 4.63273 4.94732 4.75991 4.85355 4.85368C4.75979 4.94744 4.63261 5.00012 4.5 5.00012H2.5C2.36739 5.00012 2.24021 4.94744 2.14645 4.85368C2.05268 4.75991 2 4.63273 2 4.50012V3.50012ZM2 6.50012C2 6.36751 2.05268 6.24034 2.14645 6.14657C2.24021 6.0528 2.36739 6.00012 2.5 6.00012H7.5C7.63261 6.00012 7.75979 6.0528 7.85355 6.14657C7.94732 6.24034 8 6.36751 8 6.50012C8 6.63273 7.94732 6.75991 7.85355 6.85368C7.75979 6.94744 7.63261 7.00012 7.5 7.00012H2.5C2.36739 7.00012 2.24021 6.94744 2.14645 6.85368C2.05268 6.75991 2 6.63273 2 6.50012ZM2 8.50012C2 8.36751 2.05268 8.24034 2.14645 8.14657C2.24021 8.0528 2.36739 8.00012 2.5 8.00012H3.5C3.63261 8.00012 3.75979 8.0528 3.85355 8.14657C3.94732 8.24034 4 8.36751 4 8.50012C4 8.63273 3.94732 8.75991 3.85355 8.85368C3.75979 8.94744 3.63261 9.00012 3.5 9.00012H2.5C2.36739 9.00012 2.24021 8.94744 2.14645 8.85368C2.05268 8.75991 2 8.63273 2 8.50012ZM5 8.50012C5 8.36751 5.05268 8.24034 5.14645 8.14657C5.24021 8.0528 5.36739 8.00012 5.5 8.00012H6.5C6.63261 8.00012 6.75979 8.0528 6.85355 8.14657C6.94732 8.24034 7 8.36751 7 8.50012C7 8.63273 6.94732 8.75991 6.85355 8.85368C6.75979 8.94744 6.63261 9.00012 6.5 9.00012H5.5C5.36739 9.00012 5.24021 8.94744 5.14645 8.85368C5.05268 8.75991 5 8.63273 5 8.50012ZM8 8.50012C8 8.36751 8.05268 8.24034 8.14645 8.14657C8.24021 8.0528 8.36739 8.00012 8.5 8.00012H9.5C9.63261 8.00012 9.75979 8.0528 9.85355 8.14657C9.94732 8.24034 10 8.36751 10 8.50012C10 8.63273 9.94732 8.75991 9.85355 8.85368C9.75979 8.94744 9.63261 9.00012 9.5 9.00012H8.5C8.36739 9.00012 8.24021 8.94744 8.14645 8.85368C8.05268 8.75991 8 8.63273 8 8.50012ZM11 8.50012C11 8.36751 11.0527 8.24034 11.1464 8.14657C11.2402 8.0528 11.3674 8.00012 11.5 8.00012H12.5C12.6326 8.00012 12.7598 8.0528 12.8536 8.14657C12.9473 8.24034 13 8.36751 13 8.50012C13 8.63273 12.9473 8.75991 12.8536 8.85368C12.7598 8.94744 12.6326 9.00012 12.5 9.00012H11.5C11.3674 9.00012 11.2402 8.94744 11.1464 8.85368C11.0527 8.75991 11 8.63273 11 8.50012Z" fill="#1D2971"/>
</svg>
