<svg width="16" height="11" viewBox="0 0 16 11" fill="none" xmlns="http://www.w3.org/2000/svg">
<path d="M11 1.47827C12.0609 1.47827 13.0783 1.8997 13.8284 2.64984C14.5786 3.39999 15 4.41741 15 5.47827C15 6.53914 14.5786 7.55655 13.8284 8.3067C13.0783 9.05684 12.0609 9.47827 11 9.47827H8C8.62144 9.01297 9.12579 8.40914 9.47298 7.71476C9.82017 7.02039 10.0006 6.25461 10 5.47827C10.0006 4.70194 9.82017 3.93616 9.47298 3.24178C9.12579 2.54741 8.62144 1.94357 8 1.47827H11ZM5 9.47827C3.93913 9.47827 2.92172 9.05684 2.17157 8.3067C1.42143 7.55655 1 6.53914 1 5.47827C1 4.41741 1.42143 3.39999 2.17157 2.64984C2.92172 1.8997 3.93913 1.47827 5 1.47827C6.06087 1.47827 7.07828 1.8997 7.82843 2.64984C8.57857 3.39999 9 4.41741 9 5.47827C9 6.53914 8.57857 7.55655 7.82843 8.3067C7.07828 9.05684 6.06087 9.47827 5 9.47827ZM0 5.47827C0 6.80435 0.526784 8.07612 1.46447 9.01381C2.40215 9.95149 3.67392 10.4783 5 10.4783H11C12.3261 10.4783 13.5979 9.95149 14.5355 9.01381C15.4732 8.07612 16 6.80435 16 5.47827C16 4.15219 15.4732 2.88042 14.5355 1.94274C13.5979 1.00506 12.3261 0.478271 11 0.478271H5C3.67392 0.478271 2.40215 1.00506 1.46447 1.94274C0.526784 2.88042 0 4.15219 0 5.47827H0Z" fill="#1D2971"/>
</svg>
