<svg width="14" height="16" viewBox="0 0 14 16" fill="none" xmlns="http://www.w3.org/2000/svg">
<path d="M7.5 10C7.224 10 7 9.55202 7 9.00002C7 8.44802 7.224 8.00002 7.5 8.00002C7.776 8.00002 8 8.44802 8 9.00002C8 9.55202 7.776 10 7.5 10Z" fill="#1D2971"/>
<path d="M9.828 0.122022C9.88208 0.169025 9.92543 0.227103 9.9551 0.29232C9.98478 0.357537 10.0001 0.428371 10 0.500022V1.00002H10.5C10.8978 1.00002 11.2794 1.15806 11.5607 1.43936C11.842 1.72067 12 2.1022 12 2.50002V15H13.5C13.6326 15 13.7598 15.0527 13.8536 15.1465C13.9473 15.2402 14 15.3674 14 15.5C14 15.6326 13.9473 15.7598 13.8536 15.8536C13.7598 15.9473 13.6326 16 13.5 16H0.5C0.367392 16 0.240215 15.9473 0.146447 15.8536C0.0526784 15.7598 0 15.6326 0 15.5C0 15.3674 0.0526784 15.2402 0.146447 15.1465C0.240215 15.0527 0.367392 15 0.5 15H2V1.50002C2.00002 1.37955 2.04353 1.26314 2.12253 1.1722C2.20154 1.08125 2.31072 1.02189 2.43 1.00502L9.43 0.00502214C9.50085 -0.00509591 9.57304 0.000113439 9.64171 0.0202981C9.71037 0.0404827 9.7739 0.0751723 9.828 0.122022ZM10.5 2.00002H10V15H11V2.50002C11 2.36741 10.9473 2.24024 10.8536 2.14647C10.7598 2.0527 10.6326 2.00002 10.5 2.00002ZM3 1.93402V15H9V1.07702L3 1.93402Z" fill="#1D2971"/>
</svg>
