<svg xmlns="http://www.w3.org/2000/svg" id="Layer_1" data-name="Layer 1" viewBox="0 0 32 32"><defs><style>.cls-1{fill:#1d2971;}.cls-2{fill:#1d2971;}</style></defs><path class="cls-1" d="M26.29968,16.92993l1.95685-.65307a12.29458,12.29458,0,0,0-.124-2.03406L26.111,13.83136l-.7254-2.16711,1.37012-1.54419a12.1532,12.1532,0,0,0-1.12622-1.699L23.67,9.07471,21.957,7.56036l.41235-2.02069a12.16827,12.16827,0,0,0-1.8247-.90985L19.17413,6.17426l-2.24261-.45679-.65363-1.95258a12.36515,12.36515,0,0,0-2.03827.12323l-.412,2.01825-2.17078.72431L10.1098,5.26312a12.18343,12.18343,0,0,0-1.70154,1.124l.65491,1.9555L7.54608,10.05359,5.52155,9.64185a12.13751,12.13751,0,0,0-.91138,1.822l1.547,1.36767-.457,2.23853-1.95655.65265a12.292,12.292,0,0,0,.12329,2.03442l2.02216.41138.725,2.16711L5.24408,21.88031a12.16422,12.16422,0,0,0,1.126,1.6983l1.95941-.65374,1.71344,1.51422-.41254,2.021a12.18764,12.18764,0,0,0,1.8255.91034l1.36957-1.54455,2.24286.45556.65338,1.95368a12.3595,12.3595,0,0,0,2.03839-.12342l.412-2.01843,2.17053-.72406,1.54761,1.36725A12.12915,12.12915,0,0,0,23.59149,25.613l-.65484-1.95618,1.51727-1.71063,2.02429.41168a12.12337,12.12337,0,0,0,.91156-1.8216l-1.54694-1.36767ZM16.00006,24.3363a8.33632,8.33632,0,1,1,8.35315-8.33636A8.34481,8.34481,0,0,1,16.00006,24.3363Z"/><polygon class="cls-2" points="18.637 9.886 19.952 10.488 13.364 22.114 12.048 21.512 18.637 9.886"/><circle class="cls-2" cx="12.93033" cy="11.93218" r="2.04645"/><circle class="cls-2" cx="19.06969" cy="20.06782" r="2.04645"/></svg>