<svg xmlns="http://www.w3.org/2000/svg" id="a" viewBox="0 0 32 32"><defs><style>.b{fill:#1d2971;fill-rule:evenodd;}.c{fill:none;stroke:#fff;stroke-miterlimit:10;stroke-width:.1px;}</style></defs><polygon class="b" points="25.88 19.42 24.89 18.32 23.92 19.42 21.87 19.42 23.87 17.17 21.87 14.91 23.98 14.91 24.98 16.01 25.93 14.91 27.97 14.91 25.98 17.16 28 19.42 25.88 19.42 25.88 19.42"/><polygon class="b" points="17.93 19.42 17.93 12.32 21.87 12.32 21.87 13.91 19.6 13.91 19.6 14.91 21.87 14.91 21.87 16.44 19.6 16.44 19.6 17.83 21.87 17.83 21.87 19.42 17.93 19.42 17.93 19.42"/><path class="b" d="M16.27,12.32v2.9h-.02c-.37-.42-.83-.57-1.36-.57-1.09,0-1.91,.74-2.2,1.72-.33-1.08-1.18-1.74-2.44-1.74-1.02,0-1.83,.46-2.25,1.21v-.93h-2.11v-1.01h2.31v-1.58H4v7.09h1.88v-2.98h1.88c-.06,.22-.09,.45-.09,.7,0,1.48,1.13,2.52,2.57,2.52,1.21,0,2.01-.57,2.44-1.61h-1.61c-.22,.31-.38,.4-.82,.4-.51,0-.94-.44-.94-.97h3.29c.14,1.18,1.06,2.19,2.31,2.19,.54,0,1.04-.27,1.34-.72h.02v.46h1.66v-7.09h-1.66Zm-6.91,4.13c.1-.45,.45-.75,.89-.75,.48,0,.81,.29,.9,.75,.04,0-1.79,0-1.79,0h0Zm5.9,1.88c-.61,0-.99-.57-.99-1.17,0-.64,.33-1.25,.99-1.25s.96,.61,.96,1.25c0,.6-.29,1.17-.96,1.17h0Z"/><line class="c" x1="17.93" y1="12.32" x2="17.93" y2="19.42"/></svg>