<svg width="16" height="16" viewBox="0 0 16 16" fill="none" xmlns="http://www.w3.org/2000/svg">
<path d="M15.9931 5.37224V1.78124C15.9931 0.801007 15.196 0.00350952 14.2161 0.00350952H1.77697C0.797123 0.00350952 0 0.801007 0 1.78124V14.2258C0 15.206 0.797123 16.0035 1.77697 16.0035H14.2162C15.196 16.0035 15.9931 15.206 15.9931 14.2258V5.53322C16.0023 5.47996 16.0023 5.4255 15.9931 5.37224ZM10.8886 0.94091H14.2162C14.6793 0.94091 15.0561 1.31788 15.0561 1.78124V4.98405H10.8886V0.94091ZM4.85424 15.0661H1.77697C1.31378 15.0661 0.936998 14.6891 0.936998 14.2258V11.021H4.85424V15.0661ZM4.85424 10.0836H0.936998V5.92145H4.85424V10.0836ZM4.85427 4.98405H0.936998V1.78124C0.936998 1.31788 1.31378 0.94091 1.77697 0.94091H4.85427V4.98405ZM9.9516 15.0661H5.79121V11.021H9.9516V15.0661ZM9.9516 10.0836H5.79121V5.92145H9.9516V10.0836ZM9.9516 4.98405H5.79121V0.94091H9.9516V4.98405ZM15.0561 14.2258C15.0561 14.6891 14.6793 15.0661 14.2162 15.0661H10.8886V11.021H15.0561V14.2258ZM15.0561 10.0836H10.8886V5.92145H15.0561V10.0836Z" fill="#1D2971"/>
</svg>
