<svg width="16" height="17" viewBox="0 0 16 17" fill="none" xmlns="http://www.w3.org/2000/svg">
<path d="M8.51519 1.49727C8.34382 1.48462 8.17204 1.47828 8.00019 1.47827V0.478272C8.19673 0.478368 8.3932 0.485706 8.58919 0.500272L8.51519 1.49727ZM10.5192 1.94727C10.1986 1.82358 9.86942 1.72364 9.53419 1.64827L9.75319 0.672272C10.1362 0.758272 10.5132 0.872272 10.8792 1.01427L10.5192 1.94727ZM11.8892 2.65727C11.7462 2.56192 11.5998 2.47186 11.4502 2.38727L11.9432 1.51727C12.2851 1.71101 12.6123 1.9296 12.9222 2.17127L12.3072 2.96027C12.1716 2.8545 12.0322 2.75377 11.8892 2.65827V2.65727ZM13.7232 4.44727C13.5254 4.16625 13.3071 3.90019 13.0702 3.65127L13.7942 2.96127C14.0642 3.24627 14.3142 3.55127 14.5412 3.87127L13.7232 4.44727ZM14.4672 5.79927C14.4016 5.64073 14.3302 5.48463 14.2532 5.33127L15.1462 4.88127C15.3228 5.23236 15.4732 5.59601 15.5962 5.96927L14.6462 6.28227C14.5925 6.11914 14.5327 5.95803 14.4672 5.79927ZM14.9972 8.30627C14.9891 7.96261 14.9557 7.62002 14.8972 7.28127L15.8822 7.11127C15.9492 7.49727 15.9882 7.88927 15.9982 8.28127L14.9982 8.30627H14.9972ZM14.8662 9.84427C14.8992 9.67427 14.9262 9.50527 14.9472 9.33427L15.9402 9.45727C15.8922 9.84742 15.8153 10.2335 15.7102 10.6123L14.7462 10.3453C14.7922 10.1803 14.8322 10.0133 14.8662 9.84427ZM13.9142 12.2233C14.0982 11.9333 14.2602 11.6293 14.4002 11.3153L15.3142 11.7203C15.1542 12.0803 14.9692 12.4263 14.7592 12.7583L13.9142 12.2233ZM12.9502 13.4283C13.0722 13.3063 13.1892 13.1803 13.3002 13.0503L14.0582 13.7033C13.9298 13.8521 13.7961 13.9962 13.6572 14.1353L12.9502 13.4283Z" fill="#1D2971"/>
<path d="M8.00019 1.47827C6.84907 1.47835 5.71574 1.76232 4.70057 2.30501C3.68541 2.8477 2.81974 3.63237 2.18025 4.58952C1.54076 5.54667 1.14719 6.64675 1.03439 7.79233C0.921589 8.93791 1.09304 10.0936 1.53357 11.1571C1.9741 12.2206 2.6701 13.1591 3.55992 13.8893C4.44974 14.6196 5.50593 15.1191 6.63493 15.3437C7.76393 15.5683 8.93089 15.511 10.0325 15.1769C11.134 14.8428 12.1362 14.2422 12.9502 13.4283L13.6572 14.1353C12.7269 15.066 11.5814 15.753 10.3222 16.1353C9.06302 16.5175 7.72896 16.5833 6.43826 16.3268C5.14755 16.0702 3.94005 15.4993 2.92274 14.6645C1.90543 13.8297 1.10973 12.7569 0.606129 11.5412C0.102528 10.3254 -0.0934196 9.00415 0.0356482 7.69454C0.164716 6.38493 0.614814 5.12737 1.34606 4.03329C2.07731 2.93921 3.06713 2.04238 4.22782 1.42227C5.38851 0.802167 6.68424 0.477923 8.00019 0.478272V1.47827Z" fill="#1D2971"/>
<path d="M7.50019 3.47827C7.6328 3.47827 7.75998 3.53095 7.85375 3.62472C7.94752 3.71849 8.00019 3.84566 8.00019 3.97827V9.18827L11.2482 11.0443C11.36 11.1117 11.441 11.2202 11.4738 11.3466C11.5067 11.4729 11.4888 11.6071 11.424 11.7205C11.3593 11.8338 11.2527 11.9174 11.1272 11.9532C11.0016 11.989 10.8671 11.9743 10.7522 11.9123L7.25219 9.91227C7.17567 9.86856 7.11205 9.80539 7.0678 9.72918C7.02355 9.65296 7.00022 9.5664 7.00019 9.47827V3.97827C7.00019 3.84566 7.05287 3.71849 7.14664 3.62472C7.24041 3.53095 7.36759 3.47827 7.50019 3.47827Z" fill="#1D2971"/>
</svg>
