<svg width="16" height="14" viewBox="0 0 16 14" fill="none" xmlns="http://www.w3.org/2000/svg">
<path fill-rule="evenodd" clip-rule="evenodd" d="M2.00014 12.4998V5.99982H3.00014V12.4998C3.00014 12.6324 3.05282 12.7596 3.14659 12.8534C3.24036 12.9471 3.36754 12.9998 3.50014 12.9998H12.5001C12.6328 12.9998 12.7599 12.9471 12.8537 12.8534C12.9475 12.7596 13.0001 12.6324 13.0001 12.4998V5.99982H14.0001V12.4998C14.0001 12.8976 13.8421 13.2792 13.5608 13.5605C13.2795 13.8418 12.898 13.9998 12.5001 13.9998H3.50014C3.10232 13.9998 2.72079 13.8418 2.43948 13.5605C2.15818 13.2792 2.00014 12.8976 2.00014 12.4998ZM13.0001 1.49982V4.99982L11.0001 2.99982V1.49982C11.0001 1.36721 11.0528 1.24003 11.1466 1.14626C11.2404 1.0525 11.3675 0.999818 11.5001 0.999818H12.5001C12.6328 0.999818 12.7599 1.0525 12.8537 1.14626C12.9475 1.24003 13.0001 1.36721 13.0001 1.49982Z" fill="#1D2971"/>
<path fill-rule="evenodd" clip-rule="evenodd" d="M7.29314 0.499818C7.48067 0.312347 7.73498 0.207031 8.00014 0.207031C8.26531 0.207031 8.51962 0.312347 8.70714 0.499818L15.3541 7.14582C15.448 7.2397 15.5008 7.36704 15.5008 7.49982C15.5008 7.63259 15.448 7.75993 15.3541 7.85382C15.2603 7.9477 15.1329 8.00045 15.0001 8.00045C14.8674 8.00045 14.74 7.9477 14.6461 7.85382L8.00014 1.20682L1.35414 7.85382C1.26026 7.9477 1.13292 8.00045 1.00014 8.00045C0.867368 8.00045 0.74003 7.9477 0.646143 7.85382C0.552257 7.75993 0.499512 7.63259 0.499512 7.49982C0.499512 7.36704 0.552257 7.2397 0.646143 7.14582L7.29314 0.499818Z" fill="#1D2971"/>
</svg>
