<svg xmlns="http://www.w3.org/2000/svg" id="Layer_1" data-name="Layer 1" viewBox="0 0 32 32"><defs><style>.cls-1{fill:#1d2971;}</style></defs><path class="cls-1" d="M16,4.74045A11.25955,11.25955,0,1,1,4.74045,16,11.2723,11.2723,0,0,1,16,4.74045m0-1A12.25955,12.25955,0,1,0,28.25955,16,12.25956,12.25956,0,0,0,16,3.74045Z"/><path class="cls-1" d="M8.35254,15.64893l-.09473,3.51171h-1.376l.26562-6.32128H8.57031l1.51856,4.02441,1.51855-4.02441h1.42383l.26563,6.32128h-1.376l-.09473-3.51171-1.10058,2.69531H9.45312Z"/><path class="cls-1" d="M19.71973,19.16064H18.23926l-.3418-1.23339H15.78125l-.3418,1.23339H13.959l1.92676-6.32128h1.89844Zm-3.61524-2.41992h1.45215L16.835,14.09229Z"/><path class="cls-1" d="M22.93457,17.24365H21.85352v1.917H20.42969V12.83936h2.581c1.53809,0,2.10742.60742,2.10742,1.79394v.82617C25.11816,16.646,24.47266,17.24365,22.93457,17.24365Zm.75977-2.47754c0-.45507-.16114-.66406-.75977-.66406H21.85352v1.90723h1.08105c.627,0,.75977-.23731.75977-.69239Z"/></svg>