<svg width="14" height="17" viewBox="0 0 14 17" fill="none" xmlns="http://www.w3.org/2000/svg">
<path d="M7 16.4782C7.53043 16.4782 8.03914 16.2675 8.41421 15.8924C8.78929 15.5173 9 15.0086 9 14.4782H5C5 15.0086 5.21071 15.5173 5.58579 15.8924C5.96086 16.2675 6.46957 16.4782 7 16.4782ZM7 2.39617L6.203 2.55717C5.29896 2.74137 4.48633 3.23227 3.90265 3.94679C3.31897 4.66131 3.0001 5.55556 3 6.47817C3 7.10617 2.866 8.67517 2.541 10.2202C2.381 10.9872 2.165 11.7862 1.878 12.4782H12.122C11.835 11.7862 11.62 10.9882 11.459 10.2202C11.134 8.67517 11 7.10617 11 6.47817C10.9997 5.55573 10.6807 4.66172 10.097 3.9474C9.51337 3.23309 8.70087 2.74234 7.797 2.55817L7 2.39517V2.39617ZM13.22 12.4782C13.443 12.9252 13.701 13.2792 14 13.4782H0C0.299 13.2792 0.557 12.9252 0.78 12.4782C1.68 10.6782 2 7.35817 2 6.47817C2 4.05817 3.72 2.03817 6.005 1.57717C5.99104 1.43812 6.00638 1.2977 6.05003 1.16494C6.09368 1.03219 6.16467 0.91006 6.25842 0.806428C6.35217 0.702796 6.4666 0.619964 6.59433 0.563274C6.72206 0.506584 6.86026 0.477295 7 0.477295C7.13974 0.477295 7.27794 0.506584 7.40567 0.563274C7.5334 0.619964 7.64783 0.702796 7.74158 0.806428C7.83533 0.91006 7.90632 1.03219 7.94997 1.16494C7.99362 1.2977 8.00896 1.43812 7.995 1.57717C9.12528 1.80707 10.1414 2.42053 10.8712 3.31367C11.6011 4.20681 11.9999 5.32474 12 6.47817C12 7.35817 12.32 10.6782 13.22 12.4782Z" fill="#1D2971"/>
</svg>
