<svg width="16" height="13" viewBox="0 0 16 13" fill="none" xmlns="http://www.w3.org/2000/svg">
<path d="M2.18391e-09 1.50012C2.18391e-09 1.1023 0.158035 0.720767 0.43934 0.439462C0.720644 0.158157 1.10218 0.00012207 1.5 0.00012207H10.5C10.8978 0.00012207 11.2794 0.158157 11.5607 0.439462C11.842 0.720767 12 1.1023 12 1.50012V3.00012H13.02C13.2447 3.00032 13.4666 3.05102 13.6691 3.14847C13.8716 3.24592 14.0496 3.38763 14.19 3.56312L15.671 5.41312C15.8841 5.67931 16.0001 6.01015 16 6.35112V8.50012C16 8.89795 15.842 9.27948 15.5607 9.56078C15.2794 9.84209 14.8978 10.0001 14.5 10.0001H14C14 10.5306 13.7893 11.0393 13.4142 11.4143C13.0391 11.7894 12.5304 12.0001 12 12.0001C11.4696 12.0001 10.9609 11.7894 10.5858 11.4143C10.2107 11.0393 10 10.5306 10 10.0001H5C5.00058 10.2667 4.94785 10.5307 4.84492 10.7766C4.742 11.0225 4.59094 11.2454 4.40065 11.4321C4.21035 11.6188 3.98465 11.7656 3.73682 11.8638C3.48899 11.962 3.22402 12.0097 2.95749 12.004C2.69097 11.9983 2.42827 11.9394 2.18483 11.8308C1.94139 11.7221 1.72214 11.5659 1.53995 11.3713C1.35776 11.1767 1.21632 10.9476 1.12393 10.6975C1.03155 10.4475 0.990095 10.1814 1.002 9.91512C0.709048 9.81201 0.455323 9.62052 0.275844 9.36706C0.0963656 9.11361 -1.6752e-05 8.81069 2.18391e-09 8.50012L2.18391e-09 1.50012ZM1.294 8.95612C1.4748 8.66012 1.72951 8.41625 2.0331 8.24848C2.33669 8.08072 2.6787 7.99484 3.02553 7.99928C3.37235 8.00372 3.71206 8.09832 4.01125 8.2738C4.31045 8.44928 4.55883 8.69958 4.732 9.00012H10.268C10.4439 8.6964 10.6963 8.44403 11 8.26812V1.50012C11 1.36751 10.9473 1.24034 10.8536 1.14657C10.7598 1.0528 10.6326 1.00012 10.5 1.00012H1.5C1.36739 1.00012 1.24021 1.0528 1.14645 1.14657C1.05268 1.24034 1 1.36751 1 1.50012V8.50012C0.999921 8.59636 1.02762 8.69058 1.07977 8.77147C1.13192 8.85235 1.20631 8.91647 1.294 8.95612ZM12 8.00012C12.3511 8.00013 12.6959 8.09255 13 8.26808C13.304 8.44362 13.5565 8.69609 13.732 9.00012H14.5C14.6326 9.00012 14.7598 8.94744 14.8536 8.85368C14.9473 8.75991 15 8.63273 15 8.50012V6.35012C14.9998 6.23665 14.961 6.12663 14.89 6.03812L13.41 4.18812C13.3632 4.12956 13.3039 4.08226 13.2364 4.04972C13.1689 4.01718 13.0949 4.00023 13.02 4.00012H12V8.00012ZM3 9.00012C2.73478 9.00012 2.48043 9.10548 2.29289 9.29302C2.10536 9.48055 2 9.73491 2 10.0001C2 10.2653 2.10536 10.5197 2.29289 10.7072C2.48043 10.8948 2.73478 11.0001 3 11.0001C3.26522 11.0001 3.51957 10.8948 3.70711 10.7072C3.89464 10.5197 4 10.2653 4 10.0001C4 9.73491 3.89464 9.48055 3.70711 9.29302C3.51957 9.10548 3.26522 9.00012 3 9.00012ZM12 9.00012C11.7348 9.00012 11.4804 9.10548 11.2929 9.29302C11.1054 9.48055 11 9.73491 11 10.0001C11 10.2653 11.1054 10.5197 11.2929 10.7072C11.4804 10.8948 11.7348 11.0001 12 11.0001C12.2652 11.0001 12.5196 10.8948 12.7071 10.7072C12.8946 10.5197 13 10.2653 13 10.0001C13 9.73491 12.8946 9.48055 12.7071 9.29302C12.5196 9.10548 12.2652 9.00012 12 9.00012Z" fill="#1D2971"/>
</svg>
