<svg xmlns="http://www.w3.org/2000/svg" id="Layer_1" data-name="Layer 1" viewBox="0 0 32 32"><defs><style>.cls-1{fill:#1d2971;}</style></defs><path class="cls-1" d="M25.04517,8.23032,20.55786,4.105a.78521.78521,0,0,0-.51282-.163l-7.97863.00518a.78074.78074,0,0,0-.51294.16315L7.00818,8.26767a.25234.25234,0,0,0-.09277.184L6.8631,27.71127c-.00043.19214.26959.34717.6037.34668l17.0119-.01019a.88118.88118,0,0,0,.42786-.10187.303.303,0,0,0,.17785-.24542L25.1369,8.41415A.2534.2534,0,0,0,25.04517,8.23032ZM16,5.54977a1.7685,1.7685,0,1,1-1.76849,1.7685A1.76849,1.76849,0,0,1,16,5.54977ZM14.86884,17.08169h2.26232a3.39356,3.39356,0,1,1,0,6.78711V25H14.86884V23.8688a3.39723,3.39723,0,0,1-3.39356-3.39355h2.26233a1.13276,1.13276,0,0,0,1.13123,1.13123h2.26232a1.1312,1.1312,0,1,0,0-2.26239H14.86884a3.39356,3.39356,0,1,1,0-6.78711V11.42575h2.26232V12.557a3.39723,3.39723,0,0,1,3.39356,3.39355H18.26239a1.13268,1.13268,0,0,0-1.13123-1.13123H14.86884a1.1312,1.1312,0,1,0,0,2.26239Z"/></svg>