<svg width="16" height="16" viewBox="0 0 16 16" fill="none" xmlns="http://www.w3.org/2000/svg">
<g clip-path="url(#clip0_2510_6729)">
<path d="M10.7543 0.66402C10.9483 0.664085 11.1344 0.740033 11.2717 0.8752C11.4089 1.01037 11.4862 1.19372 11.4866 1.38502V7.62099C11.4862 7.81229 11.4089 7.99564 11.2717 8.13081C11.1344 8.26597 10.9483 8.34192 10.7543 8.34199H4.11879C3.95933 8.342 3.80503 8.3978 3.68339 8.49947L2.37709 9.59192V9.00601C2.37709 8.82991 2.30614 8.66101 2.17986 8.53648C2.05357 8.41195 1.88229 8.34199 1.7037 8.34199H1.40566C1.21167 8.34192 1.02562 8.26597 0.888337 8.13081C0.751056 7.99564 0.673754 7.81229 0.673388 7.62099V1.38502C0.673754 1.19372 0.751056 1.01038 0.888337 0.87521C1.02562 0.740043 1.21167 0.664092 1.40566 0.66402H10.7543ZM10.7543 0H1.40566C1.03331 0.000845858 0.676443 0.147004 0.413047 0.406532C0.149651 0.666059 0.00115044 1.01785 0 1.38502V7.62099C0.00114691 7.98817 0.149647 8.33996 0.413043 8.59949C0.676439 8.85902 1.03331 9.00517 1.40566 9.00601H1.7037V10.7649C1.7037 10.8215 1.73415 10.88 1.79932 10.88C1.84683 10.8758 1.89175 10.8568 1.92753 10.8257C1.98462 10.7829 1.99376 10.7739 2.10338 10.6906L4.11883 9.00601H10.7543C11.1267 9.00517 11.4836 8.85901 11.747 8.59948C12.0104 8.33996 12.1589 7.98816 12.16 7.62099V1.38502C12.1589 1.01785 12.0104 0.666058 11.747 0.40653C11.4836 0.147002 11.1267 0.000844114 10.7543 0H10.7543Z" fill="#1D2971"/>
<path d="M14.816 7.04004H6.94345C6.6299 7.04074 6.32938 7.16112 6.10758 7.37485C5.88578 7.58858 5.76073 7.87828 5.75977 8.18066V13.3161C5.76073 13.6185 5.88578 13.9082 6.10759 14.122C6.3294 14.3357 6.62992 14.4561 6.94348 14.4568H12.5313L14.2285 15.844C14.3208 15.9127 14.3285 15.9201 14.3766 15.9553C14.5064 16.0499 14.5651 15.9757 14.5651 15.9052V14.4568H14.8161C15.1296 14.4561 15.4301 14.3357 15.6519 14.122C15.8738 13.9082 15.9988 13.6185 15.9998 13.3161V8.18066C15.9988 7.87827 15.8738 7.58855 15.6519 7.37482C15.4301 7.16109 15.1296 7.04073 14.816 7.04004ZM7.96989 11.5355C7.80177 11.5355 7.63742 11.4874 7.49763 11.3974C7.35784 11.3073 7.24889 11.1793 7.18455 11.0295C7.12021 10.8797 7.10338 10.7149 7.13618 10.5559C7.16897 10.3968 7.24993 10.2508 7.36881 10.1361C7.4877 10.0215 7.63916 9.94342 7.80405 9.91179C7.96895 9.88016 8.13986 9.8964 8.29519 9.95844C8.45051 10.0205 8.58327 10.1255 8.67668 10.2604C8.77008 10.3952 8.81994 10.5536 8.81994 10.7158C8.81994 10.9332 8.73038 11.1417 8.57096 11.2954C8.41155 11.4491 8.19534 11.5355 7.96989 11.5355ZM10.8798 11.5355C10.7116 11.5355 10.5473 11.4874 10.4075 11.3974C10.2677 11.3073 10.1588 11.1793 10.0944 11.0295C10.0301 10.8797 10.0133 10.7149 10.0461 10.5559C10.0789 10.3968 10.1598 10.2508 10.2787 10.1361C10.3976 10.0215 10.549 9.94342 10.7139 9.91179C10.8788 9.88016 11.0497 9.8964 11.2051 9.95844C11.3604 10.0205 11.4932 10.1255 11.5866 10.2604C11.68 10.3952 11.7298 10.5536 11.7298 10.7158C11.7298 10.8234 11.7078 10.93 11.6651 11.0295C11.6224 11.1289 11.5598 11.2193 11.4808 11.2954C11.4019 11.3715 11.3082 11.4319 11.205 11.4731C11.1019 11.5143 10.9914 11.5355 10.8797 11.5355H10.8798ZM13.7897 11.5355C13.6215 11.5355 13.4572 11.4874 13.3174 11.3974C13.1776 11.3073 13.0687 11.1793 13.0043 11.0295C12.94 10.8797 12.9231 10.7149 12.9559 10.5559C12.9887 10.3968 13.0697 10.2508 13.1886 10.1361C13.3075 10.0215 13.4589 9.94342 13.6238 9.91179C13.7887 9.88016 13.9596 9.8964 14.115 9.95844C14.2703 10.0205 14.403 10.1255 14.4964 10.2604C14.5898 10.3952 14.6397 10.5536 14.6397 10.7158C14.6397 10.8234 14.6177 10.93 14.575 11.0295C14.5323 11.1289 14.4697 11.2193 14.3907 11.2954C14.3118 11.3715 14.2181 11.4319 14.1149 11.4731C14.0118 11.5143 13.9012 11.5355 13.7896 11.5355H13.7897Z" fill="#1D2971"/>
</g>
<defs>
<clipPath id="clip0_2510_6729">
<rect width="16" height="16" fill="white"/>
</clipPath>
</defs>
</svg>
