<?xml version="1.0" encoding="UTF-8"?>
<svg id="Layer_1" data-name="Layer 1" xmlns="http://www.w3.org/2000/svg" viewBox="0 0 35 32">
  <defs>
    <style>
      .cls-1 {
        fill: #1d2971;
        fill-rule: evenodd;
      }
    </style>
  </defs>
  <path class="cls-1" d="M16.45,9.1C16.45,4.07,20.54,0,25.55,0s9.1,4.07,9.1,9.1-4.08,9.1-9.1,9.1-9.1-4.07-9.1-9.1Zm10.47,1.39h4.64v-2.77h-4.64V3.08h-2.77V7.72h-4.64v2.77h4.64v4.64h2.77v-4.64Zm-6.81,9.02c.82,.38,1.68,.66,2.57,.82h-.01c.4,.07,.78,.11,1.17,.14h.23v11.53H11.35v-10.02c0-.37-.3-.66-.66-.66H5.84c-.37,0-.66,.3-.66,.66v10.02H2.56v-13.2c-.66-.13-1.27-.47-1.72-.99-.54-.62-.83-1.43-.83-2.25,0-.38,.06-.76,.18-1.13l.03-.07,2.42-4.96c.34-.9,1.19-1.53,2.16-1.54h2.83s-.1-.01-.1-.01h7.04c-.13,.45-.2,.92-.25,1.39h-2.29s-.55,6.23-.55,6.23h0c-.01,.54,.2,1.05,.55,1.44,.34,.37,.81,.58,1.3,.58s.96-.21,1.3-.58c.35-.38,.55-.89,.55-1.43h0s-.1-1.22-.1-1.22c.18,.41,.4,.82,.62,1.2,0,0,.45,.72,.71,1.05,.31,.41,.65,.78,1.02,1.13,.17,.17,.34,.33,.52,.48,.12,.1,.25,.19,.38,.29,.03,.02,.07,.05,.1,.08,.14,.11,.3,.23,.45,.33,.4,.25,.81,.49,1.24,.69ZM5.05,15.11v-.04h-.01s1.55-5.82,1.55-5.82h-1.82c-.41,.01-.76,.28-.88,.68l-.03,.07L1.5,14.91c-.07,.21-.11,.44-.11,.66,0,.49,.17,.96,.49,1.34,.28,.35,.72,.57,1.17,.58h.07c1.02-.04,1.82-.86,1.85-1.88v-.14l.03-.18,.03-.1s.01-.08,.01-.08Zm5.03,.35v-.06h0s.55-6.19,.55-6.19h-2.59l-1.67,6.26v.07c.01,.51,.21,.99,.55,1.36,.64,.72,1.74,.78,2.46,.13l.13-.13c.37-.38,.57-.9,.57-1.44Zm10.83,11.69c.37,0,.66-.3,.66-.66v-4.48c0-.37-.3-.66-.66-.66h-7.01c-.37,0-.66,.3-.66,.66v4.48c0,.37,.3,.66,.66,.66h7.01Z"/>
</svg>