<svg xmlns="http://www.w3.org/2000/svg" id="Layer_1" data-name="Layer 1" viewBox="0 0 32 32"><defs><style>.cls-1{fill:#1d2971;}</style></defs><path class="cls-1" d="M21.50479,24.8l-.00392.00392-.005-1.54342a3.41621,3.41621,0,0,1,3.4064-3.40594L26.43064,19.85l.00078-.00071V7.828a3.89739,3.89739,0,0,0-3.88614-3.886H9.45472A3.89739,3.89739,0,0,0,5.56858,7.828V24.33081A3.89944,3.89944,0,0,0,8.36642,28.058a3.27351,3.27351,0,0,1,3.26363-3.25313h9.871l.00376-.00384Zm2.86869-6.83a.52943.52943,0,0,1-.52785.52784H8.28148a.52942.52942,0,0,1-.52785-.52784v-.14113a.52942.52942,0,0,1,.52785-.52785H23.84563a.52943.52943,0,0,1,.52785.52785Zm0-3.0327a.52949.52949,0,0,1-.52785.52785H8.28148a.52948.52948,0,0,1-.52785-.52785v-.14113a.5295.5295,0,0,1,.52785-.52793H23.84563a.52951.52951,0,0,1,.52785.52793Zm-7.411-6.232a1.032,1.032,0,0,1,1.0289-1.02906h5.41687a1.032,1.032,0,0,1,1.0289,1.02906v2.15245a1.032,1.032,0,0,1-1.0289,1.029H17.99134a1.032,1.032,0,0,1-1.0289-1.029ZM7.69015,8.704A1.03061,1.03061,0,0,1,8.71764,7.67632h5.41953A1.03061,1.03061,0,0,1,15.16466,8.704v2.15527a1.0306,1.0306,0,0,1-1.02749,1.02764H8.71764a1.0306,1.0306,0,0,1-1.02749-1.02764Zm9.47839,12.32426a.52951.52951,0,0,1-.52785.52793H8.28148a.5295.5295,0,0,1-.52785-.52793V20.8871a.52943.52943,0,0,1,.52785-.52785h8.35921a.52944.52944,0,0,1,.52785.52785Z"/></svg>