<svg width="12" height="17" viewBox="0 0 12 17" fill="none" xmlns="http://www.w3.org/2000/svg">
<path d="M6.5 6.73926C6.5 6.60665 6.44732 6.47947 6.35355 6.3857C6.25979 6.29194 6.13261 6.23926 6 6.23926C5.86739 6.23926 5.74021 6.29194 5.64645 6.3857C5.55268 6.47947 5.5 6.60665 5.5 6.73926V8.23926H4C3.86739 8.23926 3.74021 8.29194 3.64645 8.3857C3.55268 8.47947 3.5 8.60665 3.5 8.73926C3.5 8.87187 3.55268 8.99904 3.64645 9.09281C3.74021 9.18658 3.86739 9.23926 4 9.23926H5.5V10.7393C5.5 10.8719 5.55268 10.999 5.64645 11.0928C5.74021 11.1866 5.86739 11.2393 6 11.2393C6.13261 11.2393 6.25979 11.1866 6.35355 11.0928C6.44732 10.999 6.5 10.8719 6.5 10.7393V9.23926H8C8.13261 9.23926 8.25979 9.18658 8.35355 9.09281C8.44732 8.99904 8.5 8.87187 8.5 8.73926C8.5 8.60665 8.44732 8.47947 8.35355 8.3857C8.25979 8.29194 8.13261 8.23926 8 8.23926H6.5V6.73926Z" fill="#1D2971"/>
<path d="M0 2.73926C0 2.20882 0.210714 1.70012 0.585786 1.32504C0.960859 0.949972 1.46957 0.739258 2 0.739258H10C10.5304 0.739258 11.0391 0.949972 11.4142 1.32504C11.7893 1.70012 12 2.20882 12 2.73926V14.7393C12 15.2697 11.7893 15.7784 11.4142 16.1535C11.0391 16.5285 10.5304 16.7393 10 16.7393H2C1.46957 16.7393 0.960859 16.5285 0.585786 16.1535C0.210714 15.7784 0 15.2697 0 14.7393V2.73926ZM10 1.73926H2C1.73478 1.73926 1.48043 1.84461 1.29289 2.03215C1.10536 2.21969 1 2.47404 1 2.73926V14.7393C1 15.0045 1.10536 15.2588 1.29289 15.4464C1.48043 15.6339 1.73478 15.7393 2 15.7393H10C10.2652 15.7393 10.5196 15.6339 10.7071 15.4464C10.8946 15.2588 11 15.0045 11 14.7393V2.73926C11 2.47404 10.8946 2.21969 10.7071 2.03215C10.5196 1.84461 10.2652 1.73926 10 1.73926Z" fill="#1D2971"/>
</svg>
