<?xml version="1.0" encoding="UTF-8"?>
<svg id="Layer_1" data-name="Layer 1" xmlns="http://www.w3.org/2000/svg" viewBox="0 0 30 32">
  <defs>
    <style>
      .cls-1 {
        fill: #1d2971;
        fill-rule: evenodd;
      }
    </style>
  </defs>
  <path class="cls-1" d="M27.77,6.87c-1.11,2.19-.94,4.82,.42,6.86,1.77,3.15,1.81,6.98,.1,10.17-.22,.43-.47,.84-.73,1.24-2.51,3.91-7.05,6.41-12.75,6.86h-.1c-5.68-.46-10.22-2.95-12.72-6.86-.26-.4-.51-.81-.73-1.25-1.71-3.17-1.67-7.01,.1-10.15,1.36-2.05,1.5-4.67,.4-6.86-.37-.82-.85-1.58-1.44-2.26-.25-.27-.25-.7,.01-.97L3.71,.21c.25-.25,.63-.27,.9-.09,1.53,1.27,3.41,2,5.38,2.11,1.63,.01,3.18-.7,4.23-1.96,.12-.18,.34-.29,.56-.27,.22,0,.43,.1,.56,.29,1.04,1.25,2.58,1.97,4.22,1.96,1.97-.12,3.85-.86,5.38-2.11,.29-.2,.67-.17,.91,.08l3.37,3.42c.26,.27,.26,.69,.01,.97-.59,.69-1.08,1.45-1.45,2.27Zm-1.91,18.27c.46-.57,.85-1.2,1.17-1.85,1.49-2.74,1.49-6.06-.01-8.78-1.5-2.26-1.79-5.13-.73-7.63H3.26c1.04,2.51,.77,5.38-.74,7.63-1.5,2.73-1.51,6.04-.01,8.78,.33,.65,.73,1.28,1.17,1.85H25.87ZM15.94,12.53h-2.32c-.64,0-1.16,.52-1.15,1.16,0,.64,.52,1.15,1.16,1.15h2.31c1.92,.01,3.47,1.55,3.47,3.47s-1.55,3.47-3.47,3.47v1.16h-2.31v-1.16c-1.92,0-3.47-1.55-3.47-3.47h2.31c.01,.64,.52,1.16,1.16,1.16h2.32c.64,0,1.15-.52,1.15-1.16s-.52-1.15-1.16-1.15h-2.31c-1.92,0-3.47-1.55-3.47-3.47s1.55-3.47,3.47-3.47v-1.16h2.31v1.16c1.92,0,3.47,1.55,3.47,3.47h-2.31c0-.64-.52-1.16-1.16-1.16Z"/>
</svg>