<svg width="14" height="14" viewBox="0 0 14 14" fill="none" xmlns="http://www.w3.org/2000/svg">
<rect width="14" height="14" fill="white"/>
<path d="M9.3701 4.72904C9.3694 4.1316 9.11946 3.55881 8.67511 3.13635C8.23076 2.7139 7.6283 2.47627 6.99989 2.47561C3.85762 2.59381 3.85868 6.86503 6.99989 6.98273C7.62832 6.982 8.23078 6.74432 8.67513 6.32182C9.11947 5.89932 9.3694 5.32651 9.3701 4.72904ZM5.15652 4.72904C5.15708 4.2644 5.35147 3.81893 5.69705 3.49038C6.04263 3.16183 6.51117 2.97701 6.99989 2.97648C9.43964 3.05912 9.43885 6.39996 6.99989 6.48186C6.51115 6.48126 6.0426 6.29639 5.69703 5.9678C5.35146 5.6392 5.15708 5.19371 5.15652 4.72904Z" fill="#1D2971"/>
<path d="M8.53873 11.3504C9.96433 9.72928 12 7.01479 12 4.72905C11.7263 -1.57522 2.27421 -1.57748 2 4.72905C2 7.01479 4.0354 9.72929 5.46127 11.3506C4.39049 11.5835 3.7438 12.0441 3.7438 12.597C3.7438 13.5086 5.42149 14 6.99987 14C8.57825 14 10.2559 13.5084 10.2559 12.597C10.2559 12.0441 9.60951 11.5835 8.53873 11.3504ZM6.99987 0.476364C8.18576 0.477689 9.32269 0.926164 10.1612 1.72341C10.9998 2.52065 11.4715 3.60157 11.4729 4.72905C11.4729 7.58804 7.86808 11.3681 6.99987 12.2369C6.13165 11.3681 2.52683 7.58804 2.52683 4.72905C2.52822 3.60157 2.99994 2.52065 3.83849 1.72341C4.67705 0.926164 5.81397 0.477689 6.99987 0.476364ZM6.99987 13.4991C4.31041 13.4545 3.07025 12.3171 5.85533 11.7889C6.37953 12.3594 6.76043 12.7238 6.8139 12.7744C6.86327 12.8212 6.93015 12.8474 6.99987 12.8474C7.06959 12.8474 7.13646 12.8212 7.18584 12.7744C7.23931 12.7238 7.61995 12.3594 8.14467 11.7889C10.9292 12.3168 9.68933 13.4543 6.99987 13.4991Z" fill="#1D2971"/>
</svg>
