<svg width="44" height="44" viewBox="0 0 44 44" fill="none" xmlns="http://www.w3.org/2000/svg">
<path d="M19.8128 0.105239C15.951 0.472746 12.2594 1.81431 9.11319 3.9936C5.96699 6.1729 3.47831 9.11224 1.90005 12.513C0.321785 15.9137 -0.289804 19.6545 0.127427 23.3554C0.544659 27.0563 1.97584 30.5852 4.27554 33.5837L2.14564 41.6083C2.06624 41.9069 2.06304 42.2195 2.13631 42.5196C2.20958 42.8196 2.35717 43.0983 2.56657 43.3321C2.77597 43.5658 3.04102 43.7477 3.33926 43.8624C3.6375 43.977 3.96016 44.021 4.27989 43.9907C4.5118 43.968 4.73792 43.9072 4.94841 43.8111L12.7292 40.2226C15.7978 41.5921 19.1544 42.2637 22.5379 42.1853C25.9213 42.107 29.2403 41.2806 32.2364 39.7707C35.2324 38.2607 37.8247 36.1079 39.8116 33.4798C41.7984 30.8517 43.126 27.8193 43.6912 24.6185C44.2564 21.4178 44.0438 18.1351 43.07 15.026C42.0962 11.9169 40.3875 9.06539 38.0769 6.69334C35.7663 4.32129 32.9161 2.49275 29.7483 1.35007C26.5804 0.207381 23.1804 -0.218616 19.8128 0.105239Z" fill="#004F35"/>
<path d="M15.2722 19.8881C14.8939 19.8891 14.5236 19.9928 14.2042 20.1873C13.8848 20.3817 13.6293 20.6589 13.4673 20.9868C13.3053 21.3147 13.2434 21.6799 13.2888 22.0402C13.3341 22.4004 13.4849 22.741 13.7236 23.0225L18.8127 29.0022C18.9941 29.2183 19.2267 29.3898 19.4911 29.5024C19.7555 29.6149 20.0441 29.6654 20.3329 29.6495C20.9506 29.6177 21.5083 29.3007 21.8639 28.7796L32.4352 12.4492C32.4369 12.4465 32.4387 12.4438 32.4406 12.4411C32.5397 12.2951 32.5076 12.0056 32.3028 11.8237C32.2466 11.7738 32.1803 11.7354 32.108 11.711C32.0357 11.6865 31.959 11.6765 31.8825 11.6816C31.8061 11.6867 31.7315 11.7068 31.6634 11.7405C31.5953 11.7743 31.5352 11.8211 31.4867 11.878C31.4829 11.8825 31.479 11.8869 31.475 11.8912L20.8137 23.4454C20.7731 23.4893 20.7238 23.5251 20.6687 23.5507C20.6136 23.5762 20.5538 23.591 20.4926 23.5942C20.4315 23.5974 20.3703 23.5889 20.3127 23.5692C20.255 23.5495 20.202 23.519 20.1567 23.4795L16.6185 20.391C16.251 20.0679 15.7707 19.8884 15.2722 19.8881Z" fill="white"/>
</svg>
