<svg width="103" height="61" viewBox="0 0 103 61" fill="none" xmlns="http://www.w3.org/2000/svg">
<path d="M103 27C103 29.7614 100.761 32 98 32C95.2386 32 93 29.7614 93 27C93 24.2386 95.2386 22 98 22C100.761 22 103 24.2386 103 27Z" fill="#004F35"/>
<path d="M55 1.5C55 2.32843 54.3284 3 53.5 3C52.6716 3 52 2.32843 52 1.5C52 0.671573 52.6716 0 53.5 0C54.3284 0 55 0.671573 55 1.5Z" fill="#004F35"/>
<path d="M57 25C57 26.6569 55.6569 28 54 28C52.3431 28 51 26.6569 51 25C51 23.3431 52.3431 22 54 22C55.6569 22 57 23.3431 57 25Z" fill="#004F35"/>
<path d="M32 12C32 13.1046 31.1046 14 30 14C28.8954 14 28 13.1046 28 12C28 10.8954 28.8954 10 30 10C31.1046 10 32 10.8954 32 12Z" fill="#004F35"/>
<path d="M0 55C0 55 7 53 8.62464 52.3684C10.2493 51.7368 21 47.5 24.2298 46.5789C27.4595 45.6579 33.5 46 35.5835 45.3158C37.667 44.6316 42 36.5 43.135 36C44.27 35.5 44.5 35.5 45.5 35.5C46.5 35.5 47.5 36.5 48 37C48.5 37.5 48.3367 45.3158 48.3367 45.3158C48.3367 45.3158 69.5 50 76.646 53.5263C83.7919 57.0526 89 61 89 61C89 61 9.1463 61 7.07315 61C5 61 3.5 60.5 3.5 60.5C3.5 60.5 2.90128 60.3158 1.95064 59.1579C1 58 0 56.2631 0 56.2631V55Z" fill="#004F35"/>
</svg>
