<svg width="44" height="44" viewBox="0 0 44 44" fill="none" xmlns="http://www.w3.org/2000/svg">
<path d="M21.9934 3.8232e-06C18.1126 -0.00173714 14.3004 1.02421 10.9443 2.9736C7.58824 4.92299 4.80786 7.72633 2.88574 11.0987C0.96361 14.4712 -0.0317611 18.2925 0.000772687 22.1743C0.0333065 26.0562 1.09259 29.8603 3.07097 33.2L0.121827 41.316C0.0119399 41.618 -0.023563 41.9421 0.0183252 42.2607C0.0602134 42.5794 0.178259 42.8833 0.362463 43.1466C0.546667 43.4099 0.791604 43.625 1.07653 43.7735C1.36145 43.9221 1.67797 43.9998 1.99928 44C2.2324 43.9994 2.46369 43.9588 2.68308 43.88L10.7967 40.928C13.7086 42.6535 16.9794 43.6835 20.3543 43.9378C23.7292 44.1922 27.1173 43.6639 30.2548 42.3942C33.3923 41.1245 36.1945 39.1477 38.4433 36.6175C40.692 34.0874 42.3267 31.0723 43.22 27.8068C44.1134 24.5414 44.2412 21.1138 43.5937 17.7908C42.9462 14.4679 41.5407 11.3393 39.4867 8.6485C37.4327 5.95775 34.7855 3.77748 31.7514 2.27743C28.7173 0.777374 25.378 -0.00199191 21.9934 3.8232e-06Z" fill="#8E0030"/>
<path d="M23.7622 21.9995L29.7444 16.017C29.9089 15.8523 29.9997 15.6326 30 15.3983C30 15.1639 29.9092 14.944 29.7444 14.7795L29.2202 14.2555C29.0554 14.0904 28.8356 14 28.6011 14C28.367 14 28.1473 14.0904 27.9824 14.2555L22.0003 20.2375L16.0178 14.2555C15.8533 14.0904 15.6334 14 15.399 14C15.1649 14 14.945 14.0904 14.7805 14.2555L14.256 14.7795C13.9147 15.1209 13.9147 15.6761 14.256 16.017L20.2383 21.9995L14.256 27.9816C14.0913 28.1466 14.0007 28.3663 14.0007 28.6006C14.0007 28.8348 14.0913 29.0545 14.256 29.2194L14.7804 29.7435C14.9449 29.9084 15.1649 29.9989 15.3989 29.9989C15.6333 29.9989 15.8531 29.9084 16.0177 29.7435L22.0001 23.7613L27.9823 29.7435C28.1471 29.9084 28.3668 29.9989 28.601 29.9989C28.8353 29.9989 29.0552 29.9084 29.22 29.7435L29.7443 29.2194C29.9088 29.0547 29.9996 28.8348 29.9996 28.6006C29.9996 28.3663 29.9088 28.1466 29.7443 27.9818L23.7622 21.9995Z" fill="white"/>
</svg>

