<svg width="103" height="61" viewBox="0 0 103 61" fill="none" xmlns="http://www.w3.org/2000/svg">
<path d="M103 27C103 29.7614 100.761 32 98 32C95.2386 32 93 29.7614 93 27C93 24.2386 95.2386 22 98 22C100.761 22 103 24.2386 103 27Z" fill="#8E0030"/>
<path d="M55 1.5C55 2.32843 54.3284 3 53.5 3C52.6716 3 52 2.32843 52 1.5C52 0.671573 52.6716 0 53.5 0C54.3284 0 55 0.671573 55 1.5Z" fill="#8E0030"/>
<path d="M59 27C59 28.6569 57.6569 30 56 30C54.3431 30 53 28.6569 53 27C53 25.3431 54.3431 24 56 24C57.6569 24 59 25.3431 59 27Z" fill="#8E0030"/>
<path d="M32 12C32 13.1046 31.1046 14 30 14C28.8954 14 28 13.1046 28 12C28 10.8954 28.8954 10 30 10C31.1046 10 32 10.8954 32 12Z" fill="#8E0030"/>
<path d="M0 55.5C0 55.5 7 53.5 8.62464 52.8684C10.2493 52.2368 21 48 24.2298 47.0789C27.4595 46.1579 33.5 46.5 35.5835 45.8158C37.667 45.1316 42 37 43.135 36.5C44.27 36 44.5 36 45.5 36C46.5 36 47.5 37 48 37.5C48.5 38 48.3367 45.8158 48.3367 45.8158C48.3367 45.8158 69.5 50.5 76.646 54.0263C83.7919 57.5526 89 61.5 89 61.5C89 61.5 9.1463 61.5 7.07315 61.5C5 61.5 3.5 61 3.5 61C3.5 61 2.90128 60.8158 1.95064 59.6579C1 58.5 0 56.7631 0 56.7631V55.5Z" fill="#8E0030"/>
</svg>
