<svg width="250" height="250" viewBox="0 0 250 250" fill="none" xmlns="http://www.w3.org/2000/svg">
<rect width="250" height="250" fill="#179595"/>
<path d="M202.561 72.9833H165.03V61.4352C165.02 53.4662 158.563 47.0097 150.594 47H98.6278C90.6588 47.0097 84.2023 53.4662 84.1926 61.4352V72.9833H46.6611C41.878 72.9833 38 76.8613 38 81.6444V145.909C38.0086 147.696 38.5674 149.438 39.6005 150.896C40.6337 152.354 42.0909 153.459 43.7741 154.06V194.239C43.7741 199.022 47.6521 202.9 52.4352 202.9H196.787C201.57 202.9 205.448 199.022 205.448 194.239V154.063C207.132 153.461 208.589 152.356 209.622 150.897C210.655 149.438 211.214 147.697 211.222 145.909V81.6444C211.222 76.8613 207.344 72.9833 202.561 72.9833ZM89.9667 61.4352C89.9667 56.6521 93.8447 52.7741 98.6278 52.7741H150.594C155.378 52.7741 159.256 56.6521 159.256 61.4352V72.9833H153.481V61.4352C153.481 60.6695 153.177 59.9352 152.636 59.3937C152.094 58.8523 151.36 58.5481 150.594 58.5481H98.6278C97.8621 58.5481 97.1278 58.8523 96.5863 59.3937C96.0449 59.9352 95.7407 60.6695 95.7407 61.4352V72.9833H89.9667V61.4352ZM147.707 72.9833H101.515V64.3222H147.707V72.9833ZM199.674 194.239C199.674 195.005 199.37 195.739 198.828 196.28C198.287 196.822 197.553 197.126 196.787 197.126H52.4352C51.6695 197.126 50.9352 196.822 50.3937 196.28C49.8523 195.739 49.5481 195.005 49.5481 194.239V155.052L113.063 163.812V171.143C113.063 175.926 116.941 179.804 121.724 179.804H127.498C132.281 179.804 136.159 175.926 136.159 171.143V163.812L199.674 155.052V194.239ZM130.385 171.143C130.385 171.908 130.081 172.643 129.54 173.184C128.998 173.725 128.264 174.03 127.498 174.03H121.724C120.958 174.03 120.224 173.725 119.683 173.184C119.141 172.643 118.837 171.908 118.837 171.143V153.82C118.837 153.055 119.141 152.32 119.683 151.779C120.224 151.238 120.958 150.933 121.724 150.933H127.498C128.264 150.933 128.998 151.238 129.54 151.779C130.081 152.32 130.385 153.055 130.385 153.82V171.143ZM205.448 145.909C205.449 146.605 205.198 147.278 204.742 147.804C204.286 148.33 203.655 148.673 202.966 148.771L202.165 148.881L136.159 157.983V153.82C136.159 149.037 132.281 145.159 127.498 145.159H121.724C116.941 145.159 113.063 149.037 113.063 153.82V157.983L46.2595 148.771C45.5697 148.674 44.9382 148.331 44.4814 147.805C44.0247 147.279 43.7735 146.606 43.7741 145.909V81.6444C43.7741 80.8788 44.0782 80.1444 44.6197 79.603C45.1611 79.0616 45.8954 78.7574 46.6611 78.7574H202.561C203.327 78.7574 204.061 79.0616 204.603 79.603C205.144 80.1444 205.448 80.8788 205.448 81.6444V145.909Z" fill="white"/>
</svg>
