<svg width="17" height="17" viewBox="0 0 17 17" fill="none" xmlns="http://www.w3.org/2000/svg">
<path d="M8.5 8.5C9.63336 8.5 10.7666 8.07496 11.475 7.22496C12.325 6.51666 12.75 5.38334 12.75 4.25C12.75 3.11666 12.325 1.98334 11.475 1.275C10.7666 0.425 9.63336 0 8.5 0C7.36664 0 6.23334 0.425 5.525 1.275C4.81666 2.125 4.25 3.11666 4.25 4.25C4.25 5.38334 4.675 6.51666 5.525 7.22496C6.375 7.93336 7.36664 8.5 8.5 8.5ZM11.3334 4.25C11.3334 4.95834 11.05 5.66666 10.4834 6.23334C9.91664 6.8 9.20832 7.08336 8.5 7.08336C7.79168 7.08336 7.08336 6.8 6.51666 6.23334C5.95 5.66666 5.66666 4.95834 5.66666 4.25C5.66666 3.54166 5.95 2.83334 6.51666 2.26666C7.08336 1.7 7.79168 1.41666 8.5 1.41666C9.20832 1.41666 9.91664 1.7 10.4834 2.26666C11.05 2.83334 11.3334 3.54166 11.3334 4.25ZM17 15.5834C17 17 15.5834 17 15.5834 17H1.41666C1.41666 17 0 17 0 15.5834C0 14.1666 1.41666 9.91664 8.5 9.91664C15.5834 9.91664 17 14.1666 17 15.5834ZM15.5834 15.5834C15.5834 15.3 15.3 14.1666 14.45 13.175C13.4583 12.325 11.7583 11.3334 8.5 11.3334C5.24166 11.3334 3.54166 12.325 2.55 13.175C1.7 14.1666 1.41666 15.3 1.41666 15.5834H15.5834Z" fill="#0078D1"/>
<path fill-rule="evenodd" clip-rule="evenodd" d="M16.8762 6.29528C16.9155 6.33115 16.9466 6.37376 16.9678 6.42069C16.989 6.4676 17 6.5179 17 6.5687C17 6.6195 16.989 6.6698 16.9678 6.71671C16.9466 6.76363 16.9155 6.80624 16.8762 6.84212L14.348 9.15927C14.3089 9.19522 14.2624 9.22376 14.2111 9.24322C14.16 9.26269 14.1051 9.27273 14.0496 9.27273C13.9942 9.27273 13.9393 9.26269 13.8882 9.24322C13.8369 9.22376 13.7904 9.19522 13.7513 9.15927L12.4872 8.00069C12.4081 7.92817 12.3636 7.82984 12.3636 7.72727C12.3636 7.62471 12.4081 7.52637 12.4872 7.45385C12.5663 7.38133 12.6736 7.34059 12.7855 7.34059C12.8974 7.34059 13.0047 7.38133 13.0838 7.45385L14.0496 8.33977L16.2795 6.29528C16.3186 6.25931 16.3652 6.23077 16.4164 6.21131C16.4676 6.19184 16.5224 6.18182 16.5779 6.18182C16.6333 6.18182 16.6882 6.19184 16.7393 6.21131C16.7906 6.23077 16.8371 6.25931 16.8762 6.29528Z" fill="#0078D1"/>
</svg>
