<svg width="19" height="17" viewBox="0 0 19 17" fill="none" xmlns="http://www.w3.org/2000/svg">
<path d="M18.9918 5.70428V1.88884C18.9918 0.847342 18.0452 0 16.8816 0H2.11015C0.946584 0 0 0.847342 0 1.88884V8.5V15.1112C0 16.1527 0.946584 17 2.11015 17H16.8817C18.0452 17 18.9918 16.1527 18.9918 15.1112V5.87532C19.0027 5.81873 19.0027 5.76087 18.9918 5.70428ZM12.9302 0.995989H16.8817C17.4317 0.995989 17.8791 1.39652 17.8791 1.88884V5.29183H12.9302V0.995989ZM5.76441 16.004H2.11015C1.56011 16.004 1.11269 15.6034 1.11269 15.1112V11.7061H5.76441V16.004ZM5.76441 10.7101H1.11269V6.28782H5.76441V10.7101ZM5.76445 5.29183H1.11269V1.88884C1.11269 1.39652 1.56011 0.995989 2.11015 0.995989H5.76445V5.29183ZM11.8175 16.004H6.87706V11.7061H11.8175V16.004ZM11.8175 10.7101H6.87706V6.28782H11.8175V10.7101ZM11.8175 5.29183H6.87706V0.995989H11.8175V5.29183ZM17.8791 15.1112C17.8791 15.6034 17.4317 16.004 16.8817 16.004H12.9302V11.7061H17.8791V15.1112ZM17.8791 10.7101H12.9302V6.28782H17.8791V10.7101Z" fill="#0078D1"/>
</svg>
