<svg width="18" height="17" viewBox="0 0 18 17" fill="none" xmlns="http://www.w3.org/2000/svg">
<path d="M9 8.5C10.2 8.5 11.4 8.07496 12.15 7.22496C13.05 6.51666 13.5 5.38334 13.5 4.25C13.5 3.11666 13.05 1.98334 12.15 1.275C11.4 0.425 10.2 0 9 0C7.79998 0 6.6 0.425 5.85 1.275C5.1 2.125 4.5 3.11666 4.5 4.25C4.5 5.38334 4.95 6.51666 5.85 7.22496C6.75 7.93336 7.79998 8.5 9 8.5ZM12 4.25C12 4.95834 11.7 5.66666 11.1 6.23334C10.5 6.8 9.74999 7.08336 9 7.08336C8.25001 7.08336 7.50002 6.8 6.9 6.23334C6.3 5.66666 6 4.95834 6 4.25C6 3.54166 6.3 2.83334 6.9 2.26666C7.50002 1.7 8.25001 1.41666 9 1.41666C9.74999 1.41666 10.5 1.7 11.1 2.26666C11.7 2.83334 12 3.54166 12 4.25ZM18 15.5834C18 17 16.5 17 16.5 17H1.5C1.5 17 0 17 0 15.5834C0 14.1666 1.5 9.91664 9 9.91664C16.5 9.91664 18 14.1666 18 15.5834ZM16.5 15.5834C16.5 15.3 16.2 14.1666 15.3 13.175C14.25 12.325 12.45 11.3334 9 11.3334C5.55 11.3334 3.75 12.325 2.7 13.175C1.8 14.1666 1.5 15.3 1.5 15.5834H16.5Z" fill="#0078D1"/>
<path fill-rule="evenodd" clip-rule="evenodd" d="M15.9545 6.18182C16.0363 6.18182 16.2 6.25909 16.2818 6.25909C16.2818 6.33637 16.3637 6.49091 16.3637 6.56818V7.72728H17.5909C17.6727 7.72728 17.8364 7.80456 17.9182 7.80456C17.9182 7.8818 18 8.03636 18 8.11364C18 8.19092 17.9182 8.34544 17.9182 8.42272C17.8364 8.42272 17.6727 8.49999 17.5909 8.49999H16.3637V9.6591C16.3637 9.73634 16.2818 9.8909 16.2818 9.96818C16.2 10.0455 16.1182 10.0455 15.9545 10.0455C15.7909 10.0455 15.7091 9.96818 15.6273 9.96818C15.6273 9.8909 15.5454 9.73634 15.5454 9.6591V8.49999H14.3182C14.2364 8.49999 14.0727 8.42272 13.9909 8.42272C13.9909 8.34544 13.9091 8.19092 13.9091 8.11364C13.9091 8.03636 13.9909 7.8818 13.9909 7.80456C14.0727 7.80456 14.2364 7.72728 14.3182 7.72728H15.5454V6.56818C15.5454 6.49091 15.6273 6.33637 15.6273 6.25909C15.7091 6.25909 15.8727 6.18182 15.9545 6.18182Z" fill="#0078D1"/>
</svg>
