<svg width="22" height="17" viewBox="0 0 22 17" fill="none" xmlns="http://www.w3.org/2000/svg">
<path d="M20.625 17C20.625 17 22 17 22 15.5833C22 14.1667 20.625 9.91667 15.125 9.91667C9.625 9.91667 8.25 14.1667 8.25 15.5833C8.25 17 9.625 17 9.625 17H20.625ZM9.625 15.5833C9.625 15.1583 9.7625 14.1667 10.5875 13.175C11.4125 12.1833 12.7875 11.3333 15.125 11.3333C17.4625 11.3333 18.8375 12.1833 19.525 13.175C20.35 14.1667 20.625 15.1583 20.625 15.5833H9.625ZM15.125 7.08333C15.8125 7.08333 16.5 6.8 17.05 6.23333C17.6 5.66667 17.875 4.95833 17.875 4.25C17.875 3.54167 17.6 2.83333 17.05 2.26667C16.5 1.7 15.8125 1.41667 15.125 1.41667C14.4375 1.41667 13.75 1.7 13.2 2.26667C12.65 2.83333 12.375 3.54167 12.375 4.25C12.375 4.95833 12.65 5.66667 13.2 6.23333C13.75 6.8 14.4375 7.08333 15.125 7.08333ZM19.25 4.25C19.25 4.81667 19.1125 5.38333 18.975 5.80833C18.7 6.375 18.425 6.8 18.0125 7.225C17.6 7.65 17.1875 7.93333 16.6375 8.21667C16.225 8.35833 15.675 8.5 15.125 8.5C14.575 8.5 14.025 8.35833 13.6125 8.21667C13.0625 7.93333 12.65 7.65 12.2375 7.225C11.825 6.8 11.55 6.375 11.275 5.80833C11.1375 5.38333 11 4.81667 11 4.25C11 3.11667 11.4125 1.98333 12.2375 1.275C12.925 0.425 14.025 0 15.125 0C16.225 0 17.325 0.425 18.0125 1.275C18.7 2.125 19.25 3.11667 19.25 4.25ZM9.4875 10.3417C8.9375 10.2 8.3875 10.0583 7.8375 9.91667C7.5625 9.91667 7.15 9.91667 6.875 9.91667C1.375 9.91667 0 14.1667 0 15.5833C0 16.575 0.4125 17 1.375 17H7.15C7.0125 16.575 6.875 16.0083 6.875 15.5833C6.875 14.1667 7.425 12.75 8.3875 11.475C8.6625 11.05 9.075 10.625 9.4875 10.3417ZM6.7375 11.3333C5.9125 12.6083 5.5 14.025 5.5 15.5833H1.375C1.375 15.1583 1.65 14.1667 2.475 13.175C3.1625 12.1833 4.5375 11.3333 6.7375 11.3333ZM2.0625 4.95833C2.0625 3.825 2.475 2.69167 3.3 1.98333C4.125 1.275 5.0875 0.708333 6.1875 0.708333C7.2875 0.708333 8.3875 1.13333 9.075 1.98333C9.7625 2.83333 10.3125 3.825 10.3125 4.95833C10.3125 6.09167 9.9 7.225 9.075 7.93333C8.3875 8.78333 7.2875 9.20833 6.1875 9.20833C5.0875 9.20833 3.9875 8.78333 3.3 7.93333C2.475 7.225 2.0625 6.09167 2.0625 4.95833ZM6.1875 2.125C5.5 2.125 4.8125 2.40833 4.2625 2.975C3.7125 3.54167 3.4375 4.25 3.4375 4.95833C3.4375 5.66667 3.7125 6.375 4.2625 6.94167C4.8125 7.50833 5.5 7.79167 6.1875 7.79167C6.875 7.79167 7.5625 7.50833 8.1125 6.94167C8.6625 6.375 8.9375 5.66667 8.9375 4.95833C8.9375 4.25 8.6625 3.54167 8.1125 2.975C7.5625 2.40833 6.875 2.125 6.1875 2.125Z" fill="#0078D1"/>
</svg>
