<svg width="14" height="20" viewBox="0 0 14 20" fill="none" xmlns="http://www.w3.org/2000/svg">
<path d="M7 18.1395C5.39226 18.1395 0 10.7814 0 7.2093C0 5.29728 0.737498 3.46356 2.05025 2.11156C3.36301 0.759549 5.14348 0 7 0C8.85652 0 10.637 0.759549 11.9497 2.11156C13.2625 3.46356 14 5.29728 14 7.2093C14 10.7814 8.60774 18.1395 7 18.1395ZM7 1.39535C5.50281 1.39535 4.06694 2.00789 3.00827 3.09822C1.9496 4.18854 1.35484 5.66735 1.35484 7.2093C1.35484 10.214 5.78968 15.9163 7 16.6977C8.21032 15.9163 12.6452 10.186 12.6452 7.2093C12.6452 5.66735 12.0504 4.18854 10.9917 3.09822C9.93306 2.00789 8.49719 1.39535 7 1.39535Z" fill="#0078D1"/>
<path d="M7.00001 20C4.06453 20 0.903236 19.2 0.903236 17.4419C0.903236 15.6837 3.7484 15.1721 4.97678 15.0233C5.14354 15.0214 5.30511 15.0829 5.43054 15.1961C5.55598 15.3093 5.63647 15.4662 5.6566 15.6367C5.67674 15.8072 5.6351 15.9793 5.53966 16.1202C5.44422 16.261 5.30169 16.3606 5.13936 16.4C3.09807 16.6698 2.31227 17.2651 2.25808 17.4605C2.35743 17.7488 3.95614 18.6046 7.00001 18.6046C10.0439 18.6046 11.6426 17.7488 11.7419 17.4233C11.6878 17.2651 10.9019 16.6698 8.86066 16.4C8.69833 16.3606 8.5558 16.261 8.46036 16.1202C8.36492 15.9793 8.32328 15.8072 8.34342 15.6367C8.36355 15.4662 8.44404 15.3093 8.56948 15.1961C8.69492 15.0829 8.85648 15.0214 9.02324 15.0233C10.2516 15.1721 13.0968 15.7302 13.0968 17.4419C13.0968 19.1535 9.93549 20 7.00001 20ZM7.00001 10.6977C6.33011 10.6977 5.67525 10.4931 5.11824 10.1098C4.56124 9.72647 4.1271 9.18166 3.87074 8.54424C3.61438 7.90683 3.5473 7.20543 3.678 6.52875C3.80869 5.85208 4.13128 5.23051 4.60497 4.74265C5.07867 4.25479 5.68219 3.92256 6.33922 3.78796C6.99625 3.65336 7.67728 3.72244 8.2962 3.98647C8.91511 4.25049 9.4441 4.69761 9.81628 5.27127C10.1885 5.84493 10.3871 6.51937 10.3871 7.2093C10.3871 8.13447 10.0303 9.02176 9.39505 9.67595C8.75985 10.3301 7.89832 10.6977 7.00001 10.6977ZM7.00001 5.11628C6.59807 5.11628 6.20515 5.23903 5.87095 5.46902C5.53674 5.699 5.27627 6.02589 5.12245 6.40834C4.96863 6.79079 4.92839 7.21162 5.0068 7.61763C5.08522 8.02364 5.27877 8.39658 5.56299 8.68929C5.8472 8.98201 6.20932 9.18135 6.60354 9.26211C6.99776 9.34287 7.40637 9.30142 7.77772 9.143C8.14907 8.98459 8.46646 8.71632 8.68977 8.37212C8.91308 8.02793 9.03227 7.62326 9.03227 7.2093C9.03227 6.6542 8.81816 6.12183 8.43703 5.72931C8.05591 5.33679 7.539 5.11628 7.00001 5.11628Z" fill="#0078D1"/>
</svg>
