<svg width="18" height="17" viewBox="0 0 18 17" fill="none" xmlns="http://www.w3.org/2000/svg">
<path d="M9 8.5C10.2 8.5 11.4 8.075 12.15 7.225C13.05 6.51668 13.5 5.38332 13.5 4.25C13.5 3.11667 13.05 1.98333 12.15 1.275C11.4 0.425 10.2 0 9 0C7.80002 0 6.59998 0.425 5.85 1.275C5.1 2.125 4.5 3.11667 4.5 4.25C4.5 5.38332 4.95 6.51668 5.85 7.225C6.75 7.93332 7.80002 8.5 9 8.5ZM12 4.25C12 4.95833 11.7 5.66668 11.1 6.23332C10.5 6.8 9.74998 7.08331 9 7.08331C8.25002 7.08331 7.49998 6.8 6.90002 6.23332C6.3 5.66668 6.00002 4.95833 6.00002 4.25C6.00002 3.54167 6.3 2.83333 6.90002 2.26667C7.49998 1.7 8.25002 1.41667 9 1.41667C9.74998 1.41667 10.5 1.7 11.1 2.26667C11.7 2.83333 12 3.54167 12 4.25ZM18 15.5833C18 17 16.5 17 16.5 17H1.5C1.5 17 0 17 0 15.5833C0 14.1667 1.5 9.91668 9 9.91668C16.5 9.91668 18 14.1667 18 15.5833ZM16.5 15.5833C16.5 15.3 16.2 14.1667 15.3 13.175C14.25 12.325 12.45 11.3333 9 11.3333C5.55 11.3333 3.75 12.325 2.7 13.175C1.8 14.1667 1.5 15.3 1.5 15.5833H16.5Z" fill="#0078D1"/>
</svg>
