<svg width="32" height="24" viewBox="0 0 32 24" fill="none" xmlns="http://www.w3.org/2000/svg">
<path d="M11.9993 12C13.5905 12 15.1166 11.3679 16.2417 10.2426C17.3669 9.11742 17.999 7.5913 17.999 6C17.999 4.4087 17.3669 2.88258 16.2417 1.75736C15.1166 0.632142 13.5905 0 11.9993 0C10.4081 0 8.88208 0.632142 7.75692 1.75736C6.63177 2.88258 5.99966 4.4087 5.99966 6C5.99966 7.5913 6.63177 9.11742 7.75692 10.2426C8.88208 11.3679 10.4081 12 11.9993 12ZM15.9991 6C15.9991 7.06086 15.5777 8.07828 14.8276 8.82842C14.0775 9.57858 13.0601 10 11.9993 10C10.9385 10 9.92116 9.57858 9.17106 8.82842C8.42095 8.07828 7.99955 7.06086 7.99955 6C7.99955 4.93914 8.42095 3.92172 9.17106 3.17158C9.92116 2.42142 10.9385 2 11.9993 2C13.0601 2 14.0775 2.42142 14.8276 3.17158C15.5777 3.92172 15.9991 4.93914 15.9991 6ZM23.9986 22C23.9986 24 21.9988 24 21.9988 24H1.99989C1.99989 24 0 24 0 22C0 20 1.99989 14 11.9993 14C21.9988 14 23.9986 20 23.9986 22ZM21.9988 21.992C21.9968 21.5 21.6908 20.02 20.3349 18.664C19.0309 17.36 16.5771 16 11.9993 16C7.41958 16 4.96772 17.36 3.66379 18.664C2.30787 20.02 2.00389 21.5 1.99989 21.992H21.9988Z" fill="#0078D1"/>
<path fill-rule="evenodd" clip-rule="evenodd" d="M31.7062 6.292C31.7994 6.3849 31.8732 6.49524 31.9236 6.61674C31.974 6.73822 32 6.86846 32 7C32 7.13154 31.974 7.26178 31.9236 7.38326C31.8732 7.50476 31.7994 7.6151 31.7062 7.708L25.7066 13.708C25.6138 13.8011 25.5034 13.875 25.3818 13.9254C25.2604 13.9758 25.1302 14.0018 24.9986 14.0018C24.867 14.0018 24.7368 13.9758 24.6154 13.9254C24.4938 13.875 24.3834 13.8011 24.2906 13.708L21.2908 10.708C21.103 10.5202 20.9976 10.2656 20.9976 10C20.9976 9.73444 21.103 9.47978 21.2908 9.292C21.4786 9.10422 21.7332 8.99874 21.9988 8.99874C22.2643 8.99874 22.5189 9.10422 22.7067 9.292L24.9986 11.586L30.2903 6.292C30.3831 6.19888 30.4935 6.12498 30.6151 6.07458C30.7365 6.02416 30.8667 5.99822 30.9983 5.99822C31.1298 5.99822 31.26 6.02416 31.3814 6.07458C31.503 6.12498 31.6134 6.19888 31.7062 6.292Z" fill="#0078D1"/>
</svg>
