<svg width="15" height="15" viewBox="0 0 15 15" fill="none" xmlns="http://www.w3.org/2000/svg">
<path d="M8.51621 9.04914L8.51671 9.04364C8.51671 9.03214 8.51821 9.02064 8.51821 9.00864C8.51821 8.99664 8.51671 8.98514 8.51621 8.97364L8.51571 8.96814C8.49421 7.05664 6.93414 5.50864 5.01806 5.50864C3.10198 5.50864 1.54192 7.05714 1.51992 8.96814V8.97364C1.51942 8.98514 1.51792 8.99664 1.51792 9.00864C1.51792 9.02064 1.51942 9.03214 1.51992 9.04414V9.04964C1.52566 9.54261 1.63628 10.0287 1.84443 10.4756L0.371371 11.9486C0.145359 12.1752 0.0184326 12.4821 0.0184326 12.8021C0.0184326 13.1221 0.145359 13.4291 0.371371 13.6556C0.606881 13.8911 0.915894 14.0086 1.22491 14.0086C1.53392 14.0086 1.84293 13.8911 2.07844 13.6556L3.5515 12.1826C4.01076 12.3969 4.51129 12.5081 5.01806 12.5086C6.93414 12.5086 8.49421 10.9606 8.51621 9.04914ZM1.37141 12.9481C1.35217 12.9674 1.32933 12.9826 1.30419 12.993C1.27906 13.0035 1.25212 13.0088 1.22491 13.0088C1.1977 13.0088 1.17076 13.0035 1.14562 12.993C1.12048 12.9826 1.09764 12.9674 1.0784 12.9481C1.05916 12.9289 1.0439 12.9061 1.03349 12.8809C1.02307 12.8558 1.01772 12.8288 1.01772 12.8016C1.01772 12.7744 1.02307 12.7475 1.03349 12.7224C1.0439 12.6972 1.05916 12.6744 1.0784 12.6551L2.40446 11.3291C2.49646 11.4326 2.59396 11.5301 2.69747 11.6221L1.37141 12.9481ZM9.01823 1.50864C8.88561 1.50864 8.75843 1.56131 8.66466 1.65508C8.57089 1.74885 8.51821 1.87603 8.51821 2.00864V3.00864C8.51821 3.14124 8.57089 3.26842 8.66466 3.36219C8.75843 3.45596 8.88561 3.50864 9.01823 3.50864C9.15084 3.50864 9.27802 3.45596 9.3718 3.36219C9.46557 3.26842 9.51825 3.14124 9.51825 3.00864V2.00864C9.51825 1.87603 9.46557 1.74885 9.3718 1.65508C9.27802 1.56131 9.15084 1.50864 9.01823 1.50864ZM10.5183 1.50864C10.3857 1.50864 10.2585 1.56131 10.1647 1.65508C10.0709 1.74885 10.0183 1.87603 10.0183 2.00864V3.00864C10.0183 3.14124 10.0709 3.26842 10.1647 3.36219C10.2585 3.45596 10.3857 3.50864 10.5183 3.50864C10.6509 3.50864 10.7781 3.45596 10.8719 3.36219C10.9656 3.26842 11.0183 3.14124 11.0183 3.00864V2.00864C11.0183 1.87603 10.9656 1.74885 10.8719 1.65508C10.7781 1.56131 10.6509 1.50864 10.5183 1.50864ZM12.0184 1.50864C11.8857 1.50864 11.7586 1.56131 11.6648 1.65508C11.571 1.74885 11.5183 1.87603 11.5183 2.00864V3.00864C11.5183 3.14124 11.571 3.26842 11.6648 3.36219C11.7586 3.45596 11.8857 3.50864 12.0184 3.50864C12.151 3.50864 12.2781 3.45596 12.3719 3.36219C12.4657 3.26842 12.5184 3.14124 12.5184 3.00864V2.00864C12.5184 1.87603 12.4657 1.74885 12.3719 1.65508C12.2781 1.56131 12.151 1.50864 12.0184 1.50864ZM11.0183 7.00864V6.00864C11.0183 5.87603 10.9656 5.74885 10.8719 5.65508C10.7781 5.56131 10.6509 5.50864 10.5183 5.50864C10.3857 5.50864 10.2585 5.56131 10.1647 5.65508C10.0709 5.74885 10.0183 5.87603 10.0183 6.00864V7.00864C10.0183 7.14124 10.0709 7.26842 10.1647 7.36219C10.2585 7.45596 10.3857 7.50864 10.5183 7.50864C10.6509 7.50864 10.7781 7.45596 10.8719 7.36219C10.9656 7.26842 11.0183 7.14124 11.0183 7.00864ZM8.51821 11.0086C8.51821 11.1412 8.57089 11.2684 8.66466 11.3622C8.75843 11.456 8.88561 11.5086 9.01823 11.5086C9.15084 11.5086 9.27802 11.456 9.3718 11.3622C9.46557 11.2684 9.51825 11.1412 9.51825 11.0086V10.0086C9.51825 9.87603 9.46557 9.74885 9.3718 9.65508C9.27802 9.56131 9.15084 9.50864 9.01823 9.50864C8.88561 9.50864 8.75843 9.56131 8.66466 9.65508C8.57089 9.74885 8.51821 9.87603 8.51821 10.0086V11.0086ZM11.0183 11.0086V10.0086C11.0183 9.87603 10.9656 9.74885 10.8719 9.65508C10.7781 9.56131 10.6509 9.50864 10.5183 9.50864C10.3857 9.50864 10.2585 9.56131 10.1647 9.65508C10.0709 9.74885 10.0183 9.87603 10.0183 10.0086V11.0086C10.0183 11.1412 10.0709 11.2684 10.1647 11.3622C10.2585 11.456 10.3857 11.5086 10.5183 11.5086C10.6509 11.5086 10.7781 11.456 10.8719 11.3622C10.9656 11.2684 11.0183 11.1412 11.0183 11.0086ZM12.5184 11.0086V10.0086C12.5184 9.87603 12.4657 9.74885 12.3719 9.65508C12.2781 9.56131 12.151 9.50864 12.0184 9.50864C11.8857 9.50864 11.7586 9.56131 11.6648 9.65508C11.571 9.74885 11.5183 9.87603 11.5183 10.0086V11.0086C11.5183 11.1412 11.571 11.2684 11.6648 11.3622C11.7586 11.456 11.8857 11.5086 12.0184 11.5086C12.151 11.5086 12.2781 11.456 12.3719 11.3622C12.4657 11.2684 12.5184 11.1412 12.5184 11.0086Z" fill="#1D2971"/>
<path d="M12.5184 0.00863647H5.51807C4.69103 0.00863647 4.01801 0.681637 4.01801 1.50864V4.50864C4.01801 4.64125 4.07069 4.76842 4.16446 4.86219C4.25823 4.95596 4.38541 5.00864 4.51803 5.00864H13.0184V8.00864H9.51823C9.38562 8.00864 9.25844 8.06132 9.16466 8.15508C9.07089 8.24885 9.01821 8.37603 9.01821 8.50864C9.01821 8.64125 9.07089 8.76842 9.16466 8.86219C9.25844 8.95596 9.38562 9.00864 9.51823 9.00864H13.0184V11.5086C13.0184 11.7841 12.7944 12.0086 12.5184 12.0086H7.51815C7.38554 12.0086 7.25835 12.0613 7.16458 12.1551C7.07081 12.2489 7.01813 12.376 7.01813 12.5086C7.01813 12.6412 7.07081 12.7684 7.16458 12.8622C7.25835 12.956 7.38554 13.0086 7.51815 13.0086H12.5184C13.3454 13.0086 14.0184 12.3356 14.0184 11.5086V1.50864C14.0184 0.681637 13.3454 0.00863647 12.5184 0.00863647ZM5.01805 4.00864V1.50864C5.01805 1.23314 5.24256 1.00864 5.51807 1.00864H12.5184C12.7944 1.00864 13.0184 1.23314 13.0184 1.50864V4.00864H5.01805Z" fill="#1D2971"/>
<circle cx="5" cy="9" r="2" fill="white"/>
</svg>
