<svg width="32" height="28" viewBox="0 0 32 28" fill="none" xmlns="http://www.w3.org/2000/svg">
<path d="M26 2.97872C26 2.18873 26.316 1.43107 26.8786 0.872448C27.4412 0.313828 28.2044 0 29 0C29.7956 0 30.5588 0.313828 31.1214 0.872448C31.684 1.43107 32 2.18873 32 2.97872V24.8227C32 25.6127 31.684 26.3704 31.1214 26.929C30.5588 27.4877 29.7956 27.8014 29 27.8014C28.2044 27.8014 27.4412 27.4877 26.8786 26.929C26.316 26.3704 26 25.6127 26 24.8227V24.3977C21.676 21.9333 17.02 20.7379 12.176 20.2613L12.986 25.6468C13.0404 25.9338 13.0304 26.229 12.9567 26.5116C12.8831 26.7942 12.7476 27.0573 12.5598 27.2821C12.3721 27.5067 12.1368 27.6876 11.8706 27.8117C11.6045 27.9359 11.314 28 11.02 28H9.924C9.53524 28 9.15492 27.8874 8.82956 27.6761C8.5042 27.465 8.2479 27.1642 8.092 26.8105L4.392 19.88C4.25734 19.8778 4.12266 19.8758 3.988 19.874C2.92872 19.8635 1.91624 19.4393 1.16981 18.6929C0.423382 17.9466 0.00310368 16.9383 0 15.8865V11.9149C0.00356956 10.863 0.42314 9.85457 1.16833 9.10687C1.91351 8.35917 2.92468 7.93202 3.984 7.91745C5.64006 7.89515 7.29562 7.8455 8.95 7.76851C15.036 7.46269 21.246 6.08255 26 3.4017V2.97872ZM28 2.97872V24.8227C28 25.086 28.1054 25.3386 28.2928 25.5249C28.4804 25.7109 28.7348 25.8156 29 25.8156C29.2652 25.8156 29.5196 25.7109 29.7072 25.5249C29.8946 25.3386 30 25.086 30 24.8227V2.97872C30 2.71538 29.8946 2.46283 29.7072 2.27664C29.5196 2.09043 29.2652 1.98582 29 1.98582C28.7348 1.98582 28.4804 2.09043 28.2928 2.27664C28.1054 2.46283 28 2.71538 28 2.97872ZM26 5.65957C21.312 8.05248 15.582 9.31745 10 9.69674V18.1027C10.36 18.1226 10.718 18.1464 11.074 18.1742C16.21 18.5495 21.26 19.6516 26 22.1319V5.65957ZM8 18.0014V9.8C6.6724 9.84824 5.34432 9.88265 4.016 9.90326C3.48154 9.9095 2.9709 10.1237 2.5939 10.4999C2.21688 10.8761 2.00364 11.3842 2 11.9149V15.8865C2 16.9787 2.896 17.8763 4.012 17.8902C5.34186 17.9055 6.67138 17.9426 8 18.0014ZM6.686 19.9376L9.904 25.9685L9.924 26.0162H11.02L11.016 25.9884L10.13 20.0984C8.98274 20.0297 7.83464 19.9755 6.686 19.9356V19.9376Z" fill="#0078D1"/>
</svg>
