<svg width="128" height="128" viewBox="0 0 128 128" fill="none" xmlns="http://www.w3.org/2000/svg">
<g clip-path="url(#clip0_9_9)">
<path d="M39.6618 12.72C30.954 14.8198 22.3054 17.1032 13.7235 19.568C12.9398 19.7901 12.2432 20.2003 11.713 20.7519C11.1828 21.3036 10.8404 21.9744 10.7247 22.688C5.65948 55.944 17.3624 80.208 31.3235 96.192C37.2345 103.027 44.2826 109.049 52.2332 114.056C55.3967 116.008 58.1944 117.416 60.3978 118.32C61.4949 118.776 62.3909 119.08 63.0767 119.264C63.3765 119.356 63.6857 119.423 64.0001 119.464C64.3107 119.42 64.6165 119.353 64.9144 119.264C65.6092 119.08 66.5052 118.776 67.6024 118.32C69.7967 117.416 72.6035 116 75.7669 114.056C83.7174 109.049 90.7655 103.027 96.6766 96.192C110.638 80.216 122.341 55.944 117.275 22.688C117.161 21.9741 116.818 21.3028 116.288 20.751C115.758 20.1993 115.061 19.7893 114.277 19.568C108.325 17.864 98.2766 15.088 88.3384 12.728C78.1898 10.32 68.8549 8.536 64.0001 8.536C59.1544 8.536 49.8104 10.312 39.6618 12.72ZM37.2298 4.48C47.1498 2.12 57.6915 0 64.0001 0C70.3087 0 80.8504 2.12 90.7704 4.48C100.919 6.88 111.15 9.72 117.166 11.44C119.681 12.1668 121.911 13.4998 123.6 15.2856C125.288 17.0715 126.366 19.2379 126.711 21.536C132.16 57.352 119.515 83.896 104.174 101.456C97.6676 108.968 89.9109 115.583 81.1612 121.08C78.1358 122.982 74.9302 124.655 71.5795 126.08C69.0195 127.136 66.2675 128 64.0001 128C61.7327 128 58.9898 127.136 56.4207 126.08C53.0699 124.655 49.8643 122.982 46.839 121.08C38.0894 115.582 30.3323 108.968 23.8264 101.456C8.48462 83.896 -4.15995 57.352 1.28919 21.536C1.63377 19.2379 2.71221 17.0715 4.40066 15.2856C6.08911 13.4998 8.31906 12.1668 10.8344 11.44C19.5675 8.93448 28.3686 6.6138 37.2298 4.48Z" fill="#0F9BE9"/>
<path d="M64.0001 36C65.2124 36 66.3752 36.4214 67.2325 37.1716C68.0899 37.9217 68.5715 38.9391 68.5715 40V52H82.2858C83.4981 52 84.6609 52.4214 85.5183 53.1716C86.3756 53.9217 86.8572 54.9391 86.8572 56C86.8572 57.0609 86.3756 58.0783 85.5183 58.8284C84.6609 59.5786 83.4981 60 82.2858 60H68.5715V72C68.5715 73.0609 68.0899 74.0783 67.2325 74.8284C66.3752 75.5786 65.2124 76 64.0001 76C62.7877 76 61.6249 75.5786 60.7675 74.8284C59.9102 74.0783 59.4287 73.0609 59.4287 72V60H45.7144C44.5019 60 43.3392 59.5786 42.4818 58.8284C41.6245 58.0783 41.1429 57.0609 41.1429 56C41.1429 54.9391 41.6245 53.9217 42.4818 53.1716C43.3392 52.4214 44.5019 52 45.7144 52H59.4287V40C59.4287 38.9391 59.9102 37.9217 60.7675 37.1716C61.6249 36.4214 62.7877 36 64.0001 36Z" fill="#0F9BE9"/>
</g>
<defs>
<clipPath id="clip0_9_9">
<rect width="128" height="128" fill="white"/>
</clipPath>
</defs>
</svg>
