<svg width="32" height="28" viewBox="0 0 32 28" fill="none" xmlns="http://www.w3.org/2000/svg">
<path d="M1 17.8C1.26522 17.8 1.51957 17.9054 1.70711 18.0929C1.89464 18.2804 2 18.5348 2 18.8V23.8C2 24.3304 2.21071 24.8391 2.58579 25.2142C2.96086 25.5893 3.46957 25.8 4 25.8H28C28.5304 25.8 29.0391 25.5893 29.4142 25.2142C29.7893 24.8391 30 24.3304 30 23.8V18.8C30 18.5348 30.1054 18.2804 30.2929 18.0929C30.4804 17.9054 30.7348 17.8 31 17.8C31.2652 17.8 31.5196 17.9054 31.7071 18.0929C31.8946 18.2804 32 18.5348 32 18.8V23.8C32 24.8609 31.5786 25.8783 30.8284 26.6284C30.0783 27.3786 29.0609 27.8 28 27.8H4C2.93913 27.8 1.92172 27.3786 1.17157 26.6284C0.421427 25.8783 0 24.8609 0 23.8V18.8C0 18.5348 0.105357 18.2804 0.292893 18.0929C0.48043 17.9054 0.734784 17.8 1 17.8Z" fill="#A1A5B7"/>
<path d="M15.292 21.708C15.3849 21.8011 15.4952 21.875 15.6167 21.9254C15.7382 21.9758 15.8685 22.0018 16 22.0018C16.1315 22.0018 16.2618 21.9758 16.3833 21.9254C16.5048 21.875 16.6151 21.8011 16.708 21.708L22.708 15.708C22.8958 15.5202 23.0013 15.2656 23.0013 15C23.0013 14.7344 22.8958 14.4798 22.708 14.292C22.5202 14.1042 22.2656 13.9987 22 13.9987C21.7344 13.9987 21.4798 14.1042 21.292 14.292L17 18.586V1C17 0.734784 16.8946 0.48043 16.7071 0.292893C16.5196 0.105357 16.2652 0 16 0C15.7348 0 15.4804 0.105357 15.2929 0.292893C15.1054 0.48043 15 0.734784 15 1V18.586L10.708 14.292C10.5202 14.1042 10.2656 13.9987 9.99999 13.9987C9.73444 13.9987 9.47976 14.1042 9.29199 14.292C9.10422 14.4798 8.99873 14.7344 8.99873 15C8.99873 15.2656 9.10422 15.5202 9.29199 15.708L15.292 21.708Z" fill="#A1A5B7"/>
</svg>
