<svg width="128" height="114" viewBox="0 0 128 114" fill="none" xmlns="http://www.w3.org/2000/svg">
<path d="M92.8569 112.439C92.232 113.411 91.2072 114 90.0824 114H37.8926C36.7678 114 35.718 113.411 35.1181 112.439C34.5182 111.492 34.4433 110.314 34.8682 109.291C36.1429 106.373 38.9924 104.504 42.1168 104.504H48.3655V98.8734H79.6344V104.504H85.8832C89.0076 104.504 91.8321 106.398 93.1318 109.291C93.5567 110.314 93.4567 111.517 92.8569 112.439Z" fill="#0095E8"/>
<path d="M42.1693 44.0005V63.9902C42.1693 65.5003 40.8014 66.7289 39.12 66.7289H32.7935C31.1122 66.7289 29.7443 65.5003 29.7443 63.9902V44.0005C29.7443 42.4904 31.0837 41.2619 32.7935 41.2619H39.12C40.8014 41.2619 42.1693 42.4904 42.1693 44.0005Z" fill="#0095E8"/>
<path d="M60.9493 29.9233V63.9902C60.9493 65.5003 59.5814 66.7289 57.9001 66.7289H51.5735C49.8922 66.7289 48.5243 65.5003 48.5243 63.9902V29.9233C48.5243 28.4132 49.8637 27.1847 51.5735 27.1847H57.9001C59.5814 27.1847 60.9493 28.4132 60.9493 29.9233Z" fill="#0095E8"/>
<path d="M79.7008 44.0005V63.9902C79.7008 65.5003 78.3329 66.7289 76.6515 66.7289H70.2965C68.6151 66.7289 67.2473 65.5003 67.2473 63.9902V44.0005C67.2473 42.4904 68.6151 41.2619 70.2965 41.2619H76.6515C78.3329 41.2619 79.7008 42.4904 79.7008 44.0005Z" fill="#0095E8"/>
<path d="M98.4808 35.6566V63.9902C98.4808 65.5003 97.1129 66.7289 95.4315 66.7289H89.0765C87.3952 66.7289 86.0273 65.5003 86.0273 63.9902V35.6566C86.0273 34.1465 87.3952 32.9179 89.0765 32.9179H95.4315C97.1129 32.9179 98.4808 34.1465 98.4808 35.6566Z" fill="#0095E8"/>
<path d="M73.4882 34.2232C73.0607 34.2232 72.6333 34.044 72.3198 33.7369L54.5942 14.7966L37.0111 30.0512C36.4126 30.5631 35.4437 30.5631 34.8737 30.0256C34.3038 29.4881 34.3038 28.6179 34.9022 28.106L53.6823 11.8276C53.9957 11.5717 54.3947 11.4181 54.8222 11.4437C55.2496 11.4693 55.6486 11.6484 55.9051 11.93L73.7732 31.0238L91.4133 19.8388C92.0972 19.4037 93.0377 19.5573 93.5221 20.1716C94.0066 20.7859 93.8356 21.6305 93.1516 22.0656L74.3716 33.9929C74.1151 34.1464 73.8017 34.2232 73.4882 34.2232Z" fill="#0095E8"/>
<path d="M63.9875 83.4139C62.9877 83.4139 62.1629 84.2586 62.1629 85.2824C62.1629 86.3062 62.9877 87.1508 63.9875 87.1508C64.9874 87.1508 65.8122 86.3062 65.8122 85.2824C65.8122 84.2586 64.9874 83.4139 63.9875 83.4139Z" fill="#0095E8"/>
<path d="M121.301 0H6.6737C2.97442 0 0 3.0458 0 6.80826C0 8.98383 0 94.5478 0 89.3264C0 93.0889 2.97442 96.1603 6.6737 96.1603H121.326C125.001 96.1603 128 93.0889 128 89.3264C128 78.9093 128 17.1742 128 6.80826C127.975 3.0458 124.976 0 121.301 0ZM63.9875 89.8895C61.513 89.8895 59.4884 87.8163 59.4884 85.2824C59.4884 82.7485 61.513 80.6753 63.9875 80.6753C66.462 80.6753 68.4866 82.7485 68.4866 85.2824C68.4866 87.8163 66.462 89.8895 63.9875 89.8895ZM122.651 74.379H5.32396V6.80826C5.32396 6.06601 5.92384 5.45173 6.6487 5.45173H121.301C122.026 5.45173 122.626 6.06601 122.626 6.80826V74.379H122.651Z" fill="#0095E8"/>
</svg>
