<svg width="14" height="14" viewBox="0 0 14 14" fill="none" xmlns="http://www.w3.org/2000/svg">
<path d="M1.30762 7.9541C0.587509 7.9541 0.00378418 8.53785 0.00378418 9.25796C0.0724529 10.9875 2.54305 10.987 2.61147 9.25796C2.61147 8.53785 2.02772 7.9541 1.30762 7.9541ZM7.30404 3.84206C5.98768 3.84206 4.92054 4.9092 4.92054 6.22556C5.04609 9.38721 9.56246 9.38631 9.68754 6.22553C9.68751 4.9092 8.62041 3.84206 7.30404 3.84206ZM12.7156 0.00764502C12.0084 0.00764502 11.435 0.580967 11.435 1.28821C11.5025 2.98686 13.9289 2.98636 13.9961 1.28821C13.9961 0.580967 13.4228 0.00764502 12.7156 0.00764502ZM13.9961 8.87467C13.9961 8.38233 13.597 7.9832 13.1047 7.9832C11.9222 8.03017 11.9225 9.71933 13.1047 9.7661C13.597 9.7661 13.9961 9.36698 13.9961 8.87467ZM9.60525 3.92438C9.7239 4.04303 9.83334 4.17057 9.93259 4.30587L11.4372 3.01741C11.2016 2.84262 11.0039 2.62182 10.8562 2.3684L9.32809 3.67693C9.42503 3.75416 9.51757 3.83677 9.60525 3.92438ZM2.21145 2.51832L4.54758 4.49347C4.70332 4.24695 4.89123 4.02229 5.10634 3.82543L2.75367 1.83631C2.62786 2.10237 2.4423 2.33577 2.21145 2.51832ZM6.50137 9.38069L6.43205 11.0258C6.71521 10.9729 7.02882 10.9893 7.30191 11.0684L7.36889 9.47914C7.07661 9.48525 6.78484 9.45214 6.50137 9.38069ZM11.7898 7.70293L10.449 7.06698C10.374 7.34915 10.2609 7.61979 10.1129 7.87142L11.3883 8.47636C11.4551 8.18895 11.5932 7.92298 11.7898 7.70293ZM0.00605038 1.02872C0.00605038 1.59685 0.466608 2.05744 1.03477 2.05744C2.39935 2.00324 2.39894 0.0539793 1.03477 0C0.466636 0 0.00605038 0.460558 0.00605038 1.02872ZM4.19495 7.19186L2.99042 7.88213C3.17641 8.10913 3.31446 8.37149 3.39621 8.65334L4.56445 7.98386C4.40579 7.73792 4.28148 7.47146 4.19495 7.19186ZM5.70733 12.9329C5.70733 13.5222 6.18508 14 6.77443 14C8.18994 13.9438 8.18953 11.9218 6.77443 11.8658C6.18508 11.8658 5.70733 12.3435 5.70733 12.9329Z" fill="#1D2971"/>
</svg>
