<svg width="128" height="52" viewBox="0 0 128 52" fill="none" xmlns="http://www.w3.org/2000/svg">
<path d="M52.4259 21.7947C51.4829 20.6236 50.251 19.6806 48.73 18.9506C47.2243 18.2358 45.384 17.8707 43.2091 17.8707C40.6844 17.8707 38.616 18.4183 37.019 19.5285C35.422 20.6388 34.2966 21.8555 33.673 23.2091H33.5361V0H25.4144V51.1787H33.5361V33.4449C33.5361 32.365 33.673 31.3308 33.9468 30.327C34.2205 29.3384 34.6616 28.4563 35.27 27.6806C35.8783 26.9202 36.6388 26.2966 37.5665 25.8555C38.4943 25.3993 39.635 25.1711 40.9886 25.1711C42.3422 25.1711 43.4981 25.5057 44.3042 26.1597C45.1103 26.8137 45.7186 27.635 46.0989 28.5932C46.4791 29.5666 46.7224 30.6008 46.8137 31.711C46.9049 32.8213 46.9506 33.8251 46.9506 34.7225V51.1787H55.0722V30.6616C55.0722 28.9886 54.8745 27.3917 54.4639 25.8555C54.0532 24.3194 53.384 22.9658 52.4259 21.7947Z" fill="#0095E8"/>
<path d="M80.5779 36.4259C80.5779 37.5058 80.441 38.5552 80.1672 39.5438C79.8935 40.5324 79.4524 41.4145 78.844 42.1902C78.2357 42.9507 77.46 43.5742 76.5475 44.0153C75.6197 44.4716 74.479 44.6997 73.1254 44.6997C71.6805 44.6997 70.5703 44.3651 69.7794 43.7111C68.9885 43.0571 68.3954 42.251 68.0151 41.2776C67.6349 40.3043 67.3916 39.27 67.3003 38.1598C67.2091 37.0495 67.1634 36.0457 67.1634 35.1484V18.6921H59.0417V39.2092C59.0417 40.8822 59.2395 42.4792 59.6501 44.0153C60.0608 45.5514 60.73 46.9202 61.6881 48.1065C62.6311 49.3081 63.863 50.251 65.384 50.9507C66.8897 51.6503 68.73 52.0001 70.9049 52.0001C73.6121 52.0001 75.7566 51.4069 77.3383 50.2054C78.9201 49.0039 80.0912 47.6046 80.8669 45.9773H81.0037V51.194H88.7148V18.6921H80.5931V36.4259H80.5779Z" fill="#0095E8"/>
<path d="M126.601 28.2282C125.84 26.1597 124.761 24.3498 123.392 22.8137C122.008 21.2776 120.35 20.0761 118.418 19.1939C116.472 18.3118 114.358 17.8707 112.061 17.8707C110.525 17.8707 109.171 18.0228 108 18.3422C106.829 18.6616 105.795 19.0723 104.882 19.5589C103.985 20.0608 103.209 20.578 102.586 21.1559C101.947 21.7186 101.43 22.2814 101.034 22.8137H100.837V0H92.715V51.1787H100.426V46.2966H100.563C101.734 48.289 103.316 49.7339 105.308 50.6312C107.301 51.5286 109.445 51.9848 111.742 51.9848C114.221 51.9848 116.456 51.5438 118.449 50.6616C120.441 49.7795 122.129 48.578 123.529 47.0419C124.928 45.5057 125.993 43.6958 126.707 41.6274C127.437 39.559 127.787 37.3232 127.787 34.9202C127.787 32.5171 127.407 30.2966 126.631 28.2129L126.601 28.2282ZM118.981 38.5856C118.555 39.7567 117.917 40.7909 117.08 41.7035C116.244 42.6008 115.24 43.3308 114.069 43.8631C112.897 44.4107 111.559 44.6692 110.069 44.6692C108.578 44.6692 107.24 44.3955 106.069 43.8631C104.897 43.3156 103.894 42.6008 103.057 41.7035C102.221 40.8061 101.597 39.7567 101.156 38.5856C100.73 37.4145 100.517 36.1977 100.517 34.9354C100.517 33.673 100.73 32.4563 101.156 31.2852C101.582 30.1141 102.221 29.0799 103.057 28.1673C103.894 27.27 104.897 26.5399 106.069 26.0076C107.24 25.4601 108.578 25.2015 110.069 25.2015C111.559 25.2015 112.882 25.4753 114.069 26.0076C115.24 26.5552 116.244 27.27 117.08 28.1673C117.917 29.0647 118.54 30.1141 118.981 31.2852C119.407 32.4563 119.62 33.673 119.62 34.9354C119.62 36.1977 119.407 37.4145 118.981 38.5856Z" fill="#0095E8"/>
<path d="M12.0305 44.7757V40.213H10.1597V44.7757H5.56659V46.8441H10.1597V50.2966H12.0305V46.8441H22.4335C22.981 46.8441 23.483 46.7833 23.9544 46.6464V44.3042C23.5742 44.6236 23.0723 44.7757 22.4335 44.7757H12.0305Z" fill="#0095E8"/>
<path d="M14.0685 23.0419C13.2319 23.2092 12.5019 23.5286 11.8783 23.9696C11.2396 24.4259 10.7377 25.0343 10.3422 25.8251C9.94678 26.6008 9.74906 27.6198 9.74906 28.867C9.74906 30.1141 10.0684 31.2852 10.692 32.2586C11.3308 33.232 12.0761 33.9164 12.9582 34.327V34.4031H0V36.4715H23.9544V34.4031H18.1445C17.0342 34.4031 16.0761 34.2662 15.2548 33.9772C14.4335 33.6883 13.7491 33.2928 13.2167 32.8061C12.6692 32.3194 12.2738 31.7263 12 31.0419C11.7415 30.3575 11.6046 29.6426 11.6046 28.8822C11.6046 28.0457 11.7415 27.3765 12.0304 26.8594C12.3194 26.3423 12.6996 25.9316 13.1863 25.6426C13.673 25.3537 14.2205 25.1559 14.8289 25.0343C15.4373 24.9126 16.0761 24.867 16.7148 24.867H23.9392V22.7985H16.6084C15.7415 22.7985 14.8745 22.8898 14.0532 23.0571L14.0685 23.0419Z" fill="#0095E8"/>
<path d="M22.327 14.8745C21.6883 15.3308 21.0191 15.6502 20.3346 15.8327C19.6502 16 19.0875 16.0913 18.6616 16.0913V2.67682H17.2168C16.289 2.67682 15.3917 2.84412 14.4791 3.16351C13.5818 3.4829 12.7757 3.9696 12.0761 4.59317C11.3765 5.23195 10.8137 6.00762 10.3879 6.93538C9.96201 7.86313 9.74908 8.94298 9.74908 10.1749C9.74908 11.4069 9.96201 12.4259 10.3879 13.3841C10.8137 14.3574 11.4069 15.1939 12.1521 15.9088C12.8974 16.6236 13.7795 17.1711 14.7985 17.5666C15.8175 17.962 16.9126 18.1597 18.1141 18.1597C19.3156 18.1597 20.4867 17.962 21.521 17.5818C22.4487 17.2472 23.27 16.7605 23.9696 16.1369V13.0647C23.5134 13.8099 22.981 14.4183 22.3422 14.8745H22.327ZM16.7909 16.0761C16.578 16.0761 16.1978 15.9848 15.635 15.8023C15.0723 15.6198 14.4943 15.3004 13.886 14.8745C13.2928 14.4335 12.7605 13.8403 12.289 13.0951C11.8327 12.3498 11.6046 11.4069 11.6046 10.2814C11.6046 9.52093 11.7415 8.8061 12.0152 8.12169C12.289 7.43728 12.6692 6.85933 13.1407 6.35743C13.6122 5.85553 14.1597 5.4753 14.7833 5.18633C15.4069 4.89735 16.0761 4.76047 16.7909 4.76047V16.1065V16.0761Z" fill="#0095E8"/>
</svg>
