<svg width="32" height="4" viewBox="0 0 32 4" fill="none" xmlns="http://www.w3.org/2000/svg">
<path d="M1.89929 3.68423e-06H30.0785C30.3309 3.68177e-06 30.5807 0.05174 30.8139 0.15226C31.047 0.252779 31.2589 0.400112 31.4373 0.585845C31.6157 0.771578 31.7573 0.992074 31.8538 1.23474C31.9504 1.47741 32 1.73749 32 2.00014C32 2.26277 31.9504 2.52284 31.8538 2.76549C31.7573 3.00814 31.6157 3.22862 31.4373 3.41433C31.2588 3.60005 31.047 3.74735 30.8139 3.84784C30.5807 3.94833 30.3308 4.00004 30.0785 4H1.89929C1.39353 3.99384 0.910498 3.78042 0.554948 3.40602C0.199398 3.03161 0 2.52642 0 2C0 1.47358 0.199398 0.968392 0.554948 0.593988C0.910498 0.219585 1.39353 0.0061606 1.89929 3.68423e-06Z" fill="#4878BB"/>
</svg>
