<svg width="13" height="15" viewBox="0 0 13 15" fill="none" xmlns="http://www.w3.org/2000/svg">
<path d="M9.62378 6.57195C9.62378 6.73311 9.55976 6.88767 9.4458 7.00162C9.33185 7.11558 9.17729 7.1796 9.01613 7.1796H3.03691C2.87575 7.1796 2.7212 7.11558 2.60724 7.00162C2.49329 6.88767 2.42927 6.73311 2.42927 6.57195C2.42927 6.4108 2.49329 6.25624 2.60724 6.14228C2.7212 6.02833 2.87575 5.96431 3.03691 5.96431H9.01613C9.17729 5.96431 9.33185 6.02833 9.4458 6.14228C9.55976 6.25624 9.62378 6.4108 9.62378 6.57195Z" fill="#1D2971"/>
<path d="M4.55125 0.58667H7.50441C8.18132 0.58667 8.73185 1.1372 8.73185 1.81411V1.85057H10.3543C10.8054 1.85105 11.2378 2.03046 11.5568 2.34943C11.8758 2.6684 12.0552 3.10088 12.0557 3.55198V13.2986C12.0557 14.2368 11.2925 15 10.3543 15H1.7014C0.763196 15 -5.24256e-06 14.2368 -5.24256e-06 13.2986V3.55198C-5.24256e-06 2.61377 0.763196 1.85057 1.7014 1.85057H3.31773V1.81411C3.31773 1.1372 3.8713 0.58667 4.55125 0.58667ZM4.55125 1.80196C4.53788 1.80196 4.53302 1.81229 4.53302 1.81411L4.55125 3.11447L7.51656 3.09624L7.50441 1.80196H4.55125ZM1.7014 3.06586C1.42917 3.06586 1.21528 3.27975 1.21528 3.55198V13.2986C1.21528 13.5708 1.42917 13.7847 1.7014 13.7847H10.3543C10.4832 13.7847 10.6068 13.7335 10.698 13.6423C10.7892 13.5512 10.8404 13.4275 10.8404 13.2986V3.55198C10.8404 3.42305 10.7892 3.2994 10.698 3.20824C10.6068 3.11708 10.4832 3.06586 10.3543 3.06586H8.73185V3.09624C8.73185 3.7768 8.18132 4.32976 7.50441 4.32976H4.55125C3.8713 4.32976 3.31773 3.7768 3.31773 3.09624L1.7014 3.06586Z" fill="#1D2971"/>
<path d="M4.55907 8.99586C4.67302 8.88194 4.82755 8.81795 4.98867 8.81795C5.1498 8.81795 5.30433 8.88194 5.41828 8.99586L6.02774 9.60411L6.63539 8.99647C6.69144 8.93843 6.75849 8.89214 6.83263 8.86029C6.90676 8.82845 6.9865 8.81168 7.06718 8.81098C7.14786 8.81028 7.22788 8.82566 7.30255 8.85621C7.37723 8.88676 7.44508 8.93188 7.50213 8.98893C7.55918 9.04599 7.6043 9.11383 7.63486 9.18851C7.66541 9.26319 7.68078 9.3432 7.68008 9.42388C7.67938 9.50457 7.66262 9.5843 7.63077 9.65844C7.59893 9.73257 7.55263 9.79962 7.4946 9.85567L6.88635 10.4645L7.4946 11.0728C7.55395 11.1285 7.6015 11.1956 7.63441 11.2701C7.66733 11.3446 7.68494 11.4249 7.68621 11.5063C7.68747 11.5877 7.67236 11.6686 7.64177 11.744C7.61119 11.8195 7.56575 11.888 7.50815 11.9456C7.45056 12.0031 7.38198 12.0485 7.30651 12.079C7.23103 12.1096 7.15018 12.1246 7.06877 12.1233C6.98736 12.122 6.90704 12.1043 6.83259 12.0713C6.75815 12.0384 6.69108 11.9908 6.63539 11.9314L6.02714 11.3231L5.41828 11.9314C5.36222 11.9894 5.29517 12.0357 5.22104 12.0676C5.1469 12.0994 5.06717 12.1162 4.98648 12.1169C4.9058 12.1176 4.82579 12.1022 4.75111 12.0716C4.67643 12.0411 4.60859 11.996 4.55153 11.9389C4.49448 11.8819 4.44936 11.814 4.41881 11.7393C4.38826 11.6647 4.37288 11.5847 4.37358 11.504C4.37428 11.4233 4.39105 11.3436 4.42289 11.2694C4.45474 11.1953 4.50103 11.1282 4.55907 11.0722L5.16732 10.4639L4.55907 9.85507C4.44515 9.74112 4.38116 9.58659 4.38116 9.42546C4.38116 9.26434 4.44515 9.10981 4.55907 8.99586Z" fill="#1D2971"/>
</svg>
