<svg width="25" height="25" viewBox="0 0 25 25" fill="none" xmlns="http://www.w3.org/2000/svg">
<circle cx="12.5" cy="12.5" r="12.5" fill="#237B4B"/>
<path d="M13.1863 5.47552C13.4923 5.17096 13.9065 5 14.3382 5C14.77 5 15.1842 5.17096 15.4902 5.47552L19.5229 9.50945C19.8284 9.81509 20 10.2296 20 10.6618C20 11.094 19.8284 11.5084 19.5229 11.8141C19.3718 11.9658 19.1922 12.0862 18.9945 12.1683C18.7968 12.2504 18.5848 12.2927 18.3707 12.2927C18.1567 12.2927 17.9447 12.2504 17.747 12.1683C17.5493 12.0862 17.3697 11.9658 17.2185 11.8141L16.9306 11.526L14.526 13.9313C15.2511 15.8952 14.7659 18.3185 13.1858 19.8815C13.1092 19.9574 13.0057 20 12.8978 20C12.79 20 12.6865 19.9574 12.6099 19.8815L9.15352 16.4242L6.56116 19.0173C6.48433 19.0916 6.38143 19.1326 6.27463 19.1317C6.16782 19.1308 6.06566 19.0879 5.99013 19.0123C5.91461 18.9368 5.87177 18.8346 5.87084 18.7277C5.86991 18.6209 5.91097 18.518 5.98517 18.4411L8.57753 15.848L5.12119 12.3906C5.08282 12.3531 5.05234 12.3082 5.03153 12.2587C5.01072 12.2092 5 12.1561 5 12.1024C5 12.0487 5.01072 11.9955 5.03153 11.946C5.05234 11.8965 5.08282 11.8517 5.12119 11.8141C6.66218 10.2726 9.00321 9.72093 11.0693 10.4735L13.4738 8.06824L13.1863 7.78057C12.8809 7.4748 12.7093 7.06026 12.7093 6.62804C12.7093 6.19583 12.8809 5.78129 13.1863 5.47552ZM14.9143 6.05168C14.7614 5.89891 14.5543 5.81308 14.3382 5.81308C14.1222 5.81308 13.915 5.89891 13.7622 6.05168C13.6104 6.20504 13.5252 6.41218 13.5252 6.62804C13.5252 6.84391 13.6104 7.05104 13.7622 7.20441L14.3382 7.78057C14.4849 7.92726 14.5057 8.18885 14.3382 8.35673L11.4591 11.2371C11.4022 11.294 11.3298 11.3327 11.2509 11.3484C11.172 11.3642 11.0903 11.3562 11.0159 11.3255C9.4134 10.6663 7.47729 10.8565 5.99698 12.1144L12.8856 19.005C14.0832 17.6197 14.3382 15.5335 13.6747 13.9851C13.5973 13.8058 13.6747 13.6306 13.7622 13.5422L16.6422 10.6618C16.7892 10.5151 17.0418 10.4906 17.2185 10.6618L17.7945 11.2379C17.9473 11.3908 18.1545 11.4767 18.3706 11.4767C18.5867 11.4768 18.7939 11.3909 18.9467 11.2381C19.0995 11.0853 19.1854 10.8781 19.1855 10.6619C19.1855 10.4458 19.0997 10.2385 18.9469 10.0856L14.9143 6.05168Z" fill="white"/>
</svg>
