<svg width="124" height="124" viewBox="0 0 124 124" fill="none" xmlns="http://www.w3.org/2000/svg">
<path d="M45.875 6.8125H6.8125V116.188H45.875V6.8125ZM116.188 6.8125H77.125V45.875H116.188V6.8125ZM116.188 77.125V116.188H77.125V77.125H116.188ZM-1 6.8125C-1 4.7405 -0.176899 2.75336 1.28823 1.28823C2.75336 -0.176899 4.7405 -1 6.8125 -1H45.875C47.947 -1 49.9341 -0.176899 51.3993 1.28823C52.8644 2.75336 53.6875 4.7405 53.6875 6.8125V116.188C53.6875 118.259 52.8644 120.247 51.3993 121.712C49.9341 123.177 47.947 124 45.875 124H6.8125C4.7405 124 2.75336 123.177 1.28823 121.712C-0.176899 120.247 -1 118.259 -1 116.188V6.8125ZM69.3125 6.8125C69.3125 4.7405 70.1356 2.75336 71.6007 1.28823C73.0659 -0.176899 75.053 -1 77.125 -1H116.188C118.259 -1 120.247 -0.176899 121.712 1.28823C123.177 2.75336 124 4.7405 124 6.8125V45.875C124 47.947 123.177 49.9341 121.712 51.3993C120.247 52.8644 118.259 53.6875 116.188 53.6875H77.125C75.053 53.6875 73.0659 52.8644 71.6007 51.3993C70.1356 49.9341 69.3125 47.947 69.3125 45.875V6.8125ZM77.125 69.3125C75.053 69.3125 73.0659 70.1356 71.6007 71.6007C70.1356 73.0659 69.3125 75.053 69.3125 77.125V116.188C69.3125 118.259 70.1356 120.247 71.6007 121.712C73.0659 123.177 75.053 124 77.125 124H116.188C118.259 124 120.247 123.177 121.712 121.712C123.177 120.247 124 118.259 124 116.188V77.125C124 75.053 123.177 73.0659 121.712 71.6007C120.247 70.1356 118.259 69.3125 116.188 69.3125H77.125Z" fill="#0F9BE9"/>
</svg>
