<svg width="33" height="32" viewBox="0 0 33 32" fill="none" xmlns="http://www.w3.org/2000/svg">
<path d="M7.45357 6.34569C12.6208 2.07215 20.3537 2.00681 25.5924 5.90788L21.44 6.05164C20.904 6.07124 20.4895 6.47638 20.5109 6.96647C20.5324 7.44348 20.9612 7.81595 21.4758 7.81595H21.5115L27.8865 7.60031C28.4083 7.58071 28.8156 7.19517 28.8156 6.71816V6.61361L28.5798 0.850208C28.5583 0.360123 28.1081 -0.018876 27.5792 0.000727409C27.0432 0.0203308 26.6287 0.425468 26.6501 0.915552L26.8002 4.52911C24.2059 2.58838 21.0112 1.46445 17.595 1.30762C13.3641 1.11159 9.29747 2.43808 6.15999 5.0388C1.84326 8.61315 0.0136594 14.0498 1.38586 19.2251C1.49307 19.6303 1.88615 19.8982 2.32211 19.8982C2.40072 19.8982 2.47219 19.8916 2.55081 19.872C3.06538 19.7544 3.38699 19.2774 3.25835 18.8069C2.05767 14.2589 3.65857 9.48224 7.45357 6.34569ZM32.4891 12.7756C32.3605 12.3051 31.8388 12.0111 31.3242 12.1287C30.8096 12.2463 30.488 12.7233 30.6167 13.1938C31.8245 17.7418 30.2164 22.5185 26.4214 25.655C23.7556 27.8571 20.4109 28.9419 17.0804 28.9419C13.9001 28.9419 10.7269 27.9552 8.16826 26.0079L12.3706 25.6616C12.8995 25.6158 13.2926 25.1911 13.2426 24.701C13.1925 24.2109 12.728 23.8581 12.192 23.9038L5.83838 24.4266C5.30951 24.4723 4.91643 24.897 4.96646 25.3871L5.53821 31.1963C5.58109 31.6537 6.00275 32 6.49589 32C6.52448 32 6.55307 32 6.58165 31.9935C7.11052 31.9477 7.5036 31.523 7.45357 31.0329L7.11052 27.4978C9.70484 29.4189 12.8852 30.5363 16.28 30.6931C16.5516 30.7062 16.8231 30.7127 17.0876 30.7127C21.0255 30.7127 24.7705 29.3927 27.715 26.9619C32.0317 23.3876 33.8613 17.9574 32.4891 12.7756Z" fill="#1D2971"/>
</svg>
