<svg width="24" height="24" viewBox="0 0 24 24" fill="none" xmlns="http://www.w3.org/2000/svg">
<path d="M5.22188 18.075C2.34253 18.075 0 20.4175 0 23.2969C0 23.6852 0.314812 24 0.703125 24H9.74067C10.129 24 10.4438 23.6852 10.4438 23.2969C10.4438 20.4175 8.10127 18.075 5.22188 18.075ZM5.22188 9.0375C3.58838 9.0375 2.25942 10.3665 2.25942 12C2.25942 13.6336 3.58842 14.9625 5.22188 14.9625C6.85547 14.9625 8.18438 13.6335 8.18438 12C8.18438 10.3665 6.85542 9.0375 5.22188 9.0375ZM23.2969 0H7.4813C7.09298 0 6.77817 0.314812 6.77817 0.703125V7.91798C8.42091 8.54634 9.59067 10.139 9.59067 12C9.59067 12.2393 9.57103 12.4741 9.53381 12.7031H11.2969V16.5187C11.2969 16.6578 11.3381 16.7938 11.4154 16.9094C11.4926 17.025 11.6024 17.1152 11.7309 17.1684C11.8594 17.2216 12.0008 17.2355 12.1372 17.2084C12.2736 17.1812 12.3988 17.1143 12.4972 17.0159L16.81 12.7031H23.2969C23.6852 12.7031 24 12.3883 24 12V0.703125C24 0.314812 23.6852 0 23.2969 0ZM12.1206 6.84881C11.9884 6.98017 11.8097 7.0541 11.6233 7.05459C11.4382 7.05459 11.2572 6.97959 11.126 6.84881C10.9946 6.71657 10.9207 6.53787 10.9202 6.35147C10.9202 6.16636 10.9952 5.98538 11.126 5.85459C11.2572 5.72334 11.4382 5.64834 11.6233 5.64834C11.8098 5.64881 11.9885 5.72294 12.1206 5.85459C12.252 5.98666 12.3259 6.1652 12.3264 6.35147C12.3259 6.53788 12.252 6.71658 12.1206 6.84881ZM15.8861 6.84881C15.754 6.98008 15.5754 7.05401 15.3892 7.05459C15.204 7.05459 15.0226 6.97959 14.8919 6.84881C14.7605 6.71657 14.6866 6.53787 14.6861 6.35147C14.6861 6.16636 14.7611 5.98538 14.8919 5.85459C15.0226 5.72334 15.204 5.64834 15.3892 5.64834C15.5744 5.64834 15.7553 5.72339 15.8861 5.85459C16.0174 5.98538 16.0923 6.16631 16.0923 6.35147C16.0919 6.53796 16.0177 6.71672 15.8861 6.84881ZM19.652 6.84881C19.5208 6.97959 19.3399 7.05459 19.1547 7.05459C18.9696 7.05459 18.7886 6.97959 18.6574 6.84881C18.526 6.71657 18.4521 6.53787 18.4516 6.35147C18.4516 6.16636 18.5266 5.98537 18.6574 5.85417C18.7882 5.72339 18.9696 5.64834 19.1547 5.64834C19.3399 5.64834 19.5213 5.72339 19.652 5.85417C19.7833 5.98645 19.8572 6.1651 19.8578 6.35147C19.8578 6.53667 19.7828 6.71761 19.652 6.84881Z" fill="#1D2971"/>
</svg>
