<svg width="33" height="25" viewBox="0 0 33 25" fill="none" xmlns="http://www.w3.org/2000/svg">
<path d="M12.125 12.125C13.7417 12.125 15.3583 11.5187 16.3687 10.3062C17.5812 9.29583 18.1875 7.67917 18.1875 6.0625C18.1875 4.44583 17.5812 2.82917 16.3687 1.81875C15.3583 0.60625 13.7417 0 12.125 0C10.5083 0 8.89167 0.60625 7.88125 1.81875C6.87083 3.03125 6.0625 4.44583 6.0625 6.0625C6.0625 7.67917 6.66875 9.29583 7.88125 10.3062C9.09375 11.3167 10.5083 12.125 12.125 12.125ZM16.1667 6.0625C16.1667 7.07292 15.7625 8.08333 14.9542 8.89167C14.1458 9.7 13.1354 10.1042 12.125 10.1042C11.1146 10.1042 10.1042 9.7 9.29583 8.89167C8.4875 8.08333 8.08333 7.07292 8.08333 6.0625C8.08333 5.05208 8.4875 4.04167 9.29583 3.23333C10.1042 2.425 11.1146 2.02083 12.125 2.02083C13.1354 2.02083 14.1458 2.425 14.9542 3.23333C15.7625 4.04167 16.1667 5.05208 16.1667 6.0625ZM24.25 22.2292C24.25 24.25 22.2292 24.25 22.2292 24.25H2.02083C2.02083 24.25 0 24.25 0 22.2292C0 20.2083 2.02083 14.1458 12.125 14.1458C22.2292 14.1458 24.25 20.2083 24.25 22.2292ZM22.2292 22.2292C22.2292 21.825 21.825 20.2083 20.6125 18.7937C19.1979 17.5812 16.7729 16.1667 12.125 16.1667C7.47708 16.1667 5.05208 17.5812 3.6375 18.7937C2.425 20.2083 2.02083 21.825 2.02083 22.2292H22.2292Z" fill="#0078D1"/>
<path fill-rule="evenodd" clip-rule="evenodd" d="M27.2812 6.0625C27.4833 6.0625 27.8875 6.26458 28.0896 6.26458C28.0896 6.46667 28.2917 6.87083 28.2917 7.07292V10.1042H31.3229C31.525 10.1042 31.9292 10.3063 32.1312 10.3063C32.1312 10.5083 32.3333 10.9125 32.3333 11.1146C32.3333 11.3167 32.1312 11.7208 32.1312 11.9229C31.9292 11.9229 31.525 12.125 31.3229 12.125H28.2917V15.1563C28.2917 15.3583 28.0896 15.7625 28.0896 15.9646C27.8875 16.1667 27.6854 16.1667 27.2812 16.1667C26.8771 16.1667 26.675 15.9646 26.4729 15.9646C26.4729 15.7625 26.2708 15.3583 26.2708 15.1563V12.125H23.2396C23.0375 12.125 22.6333 11.9229 22.4312 11.9229C22.4312 11.7208 22.2292 11.3167 22.2292 11.1146C22.2292 10.9125 22.4312 10.5083 22.4312 10.3063C22.6333 10.3063 23.0375 10.1042 23.2396 10.1042H26.2708V7.07292C26.2708 6.87083 26.4729 6.46667 26.4729 6.26458C26.675 6.26458 27.0792 6.0625 27.2812 6.0625Z" fill="#0078D1"/>
</svg>


