<svg width="129" height="113" viewBox="0 0 129 113" fill="none" xmlns="http://www.w3.org/2000/svg">
<g clip-path="url(#clip0_18_19)">
<path d="M0 8.07143C0 5.93076 0.849441 3.87776 2.36145 2.36406C3.87347 0.850381 5.9242 0 8.0625 0H120.938C123.076 0 125.127 0.850381 126.638 2.36406C128.15 3.87776 129 5.93076 129 8.07143V104.929C129 107.069 128.15 109.122 126.638 110.636C125.127 112.149 123.076 113 120.938 113H8.0625C5.9242 113 3.87347 112.149 2.36145 110.636C0.849441 109.122 0 107.069 0 104.929V8.07143ZM68.5312 8.07143V72.6429H120.938V8.07143H68.5312ZM68.5312 80.7143V104.929H120.938V80.7143H68.5312ZM60.4688 8.07143H8.0625V32.2857H60.4688V8.07143ZM8.0625 104.929H60.4688V40.3571H8.0625V104.929Z" fill="#0095E8"/>
</g>
<defs>
<clipPath id="clip0_18_19">
<rect width="129" height="113" fill="white"/>
</clipPath>
</defs>
</svg>
