<svg width="128" height="128" viewBox="0 0 128 128" fill="none" xmlns="http://www.w3.org/2000/svg">
<g clip-path="url(#clip0_14_41)">
<path fill-rule="evenodd" clip-rule="evenodd" d="M64.0001 44.032C65.0593 44.032 66.075 44.4528 66.824 45.2018C67.573 45.9506 67.9937 46.9665 67.9937 48.0257V60.0066H79.9746C81.0335 60.0066 82.0494 60.4273 82.7987 61.1763C83.5471 61.9252 83.968 62.941 83.968 64.0002C83.968 65.0594 83.5471 66.0752 82.7987 66.8241C82.0494 67.5731 81.0335 67.9939 79.9746 67.9939H67.9937V79.9744C67.9937 81.0343 67.573 82.0495 66.824 82.7987C66.075 83.5479 65.0593 83.968 64.0001 83.968C62.9409 83.968 61.9251 83.5479 61.1761 82.7987C60.4272 82.0495 60.0065 81.0343 60.0065 79.9744V67.9939H48.0256C46.9664 67.9939 45.9506 67.5731 45.2016 66.8241C44.4528 66.0752 44.032 65.0594 44.032 64.0002C44.032 62.941 44.4528 61.9252 45.2016 61.1763C45.9506 60.4273 46.9664 60.0066 48.0256 60.0066H60.0065V48.0257C60.0065 46.9665 60.4272 45.9506 61.1761 45.2018C61.9251 44.4528 62.9409 44.032 64.0001 44.032Z" fill="#0095E8"/>
<path d="M82.1857 20.0996L74.8172 12.5469L80.5376 6.96228L85.5141 12.0588L92.6348 11.9708C95.7175 11.9343 98.7762 12.5145 101.631 13.6773C104.486 14.8401 107.079 16.5619 109.259 18.7416C111.438 20.9213 113.16 23.5148 114.323 26.3696C115.486 29.2244 116.066 32.2829 116.029 35.3652L115.949 42.486L121.038 47.4625C123.242 49.6161 124.993 52.1884 126.189 55.0285C127.384 57.8684 128 60.9187 128 64.0002C128 67.0816 127.384 70.1319 126.189 72.9719C124.993 75.812 123.242 78.3843 121.038 80.5375L115.941 85.514L116.029 92.6355C116.066 95.7175 115.486 98.7762 114.323 101.631C113.16 104.486 111.438 107.079 109.259 109.259C107.079 111.438 104.486 113.16 101.631 114.323C98.7762 115.486 95.7175 116.066 92.6348 116.029L85.5141 115.949L80.5376 121.038C78.3842 123.242 75.8118 124.993 72.9718 126.189C70.1319 127.385 67.0815 128 64.0001 128C60.9187 128 57.8684 127.385 55.0283 126.189C52.1883 124.993 49.616 123.242 47.4624 121.038L42.4859 115.941L35.3652 116.029C32.2829 116.066 29.2243 115.486 26.3696 114.323C23.5147 113.16 20.9212 111.438 18.7416 109.259C16.5619 107.079 14.8401 104.486 13.6773 101.631C12.5145 98.7762 11.9343 95.7175 11.9708 92.6355L12.0508 85.514L6.96228 80.5375C4.75837 78.3843 3.00715 75.812 1.81153 72.9719C0.615908 70.1319 0 67.0816 0 64.0002C0 60.9187 0.615908 57.8684 1.81153 55.0285C3.00715 52.1884 4.75837 49.6161 6.96228 47.4625L12.0588 42.486L11.9708 35.3652C11.9343 32.2829 12.5145 29.2244 13.6773 26.3696C14.8401 23.5148 16.5619 20.9213 18.7416 18.7416C20.9212 16.5619 23.5147 14.8401 26.3696 13.6773C29.2243 12.5145 32.2829 11.9343 35.3652 11.9708L42.4859 12.0508L47.4624 6.96228C49.616 4.75838 52.1883 3.00716 55.0283 1.81154C57.8684 0.615909 60.9187 0 64.0001 0C67.0815 0 70.1319 0.615909 72.9718 1.81154C75.8118 3.00716 78.3842 4.75838 80.5376 6.96228L74.8172 12.5469C73.4088 11.105 71.7263 9.95931 69.8686 9.17707C68.011 8.39483 66.0157 7.99183 64.0001 7.99183C61.9845 7.99183 59.9892 8.39483 58.1316 9.17707C56.274 9.95931 54.5915 11.105 53.183 12.5469L45.8223 20.0996L35.2612 19.9716C33.2464 19.9491 31.2474 20.3294 29.3817 21.0904C27.516 21.8513 25.8212 22.9774 24.3968 24.4025C22.9724 25.8276 21.8472 27.5231 21.0873 29.3892C20.3273 31.2553 19.948 33.2544 19.9716 35.2692L20.0996 45.8143L12.5469 53.1831C11.105 54.5915 9.95924 56.274 9.177 58.1317C8.39476 59.9893 7.99182 61.9845 7.99182 64.0002C7.99182 66.0158 8.39476 68.0111 9.177 69.8687C9.95924 71.7263 11.105 73.4088 12.5469 74.8173L20.0996 82.1777L19.9716 92.7388C19.9491 94.7542 20.3294 96.7528 21.0903 98.6186C21.8513 100.484 22.9773 102.179 24.4025 103.604C25.8276 105.028 27.523 106.153 29.3891 106.913C31.2553 107.673 33.2544 108.052 35.2692 108.028L45.8143 107.901L53.183 115.453C54.5915 116.896 56.274 118.041 58.1316 118.823C59.9892 119.606 61.9845 120.009 64.0001 120.009C66.0157 120.009 68.011 119.606 69.8686 118.823C71.7263 118.041 73.4088 116.896 74.8172 115.453L82.1777 107.901L92.7388 108.028C94.7542 108.052 96.7528 107.671 98.6186 106.91C100.484 106.149 102.179 105.023 103.603 103.598C105.028 102.173 106.153 100.477 106.913 98.6114C107.673 96.7448 108.052 94.7462 108.028 92.7308L107.9 82.1857L115.453 74.8173C116.895 73.4088 118.041 71.7263 118.823 69.8687C119.606 68.0111 120.008 66.0158 120.008 64.0002C120.008 61.9845 119.606 59.9893 118.823 58.1317C118.041 56.274 116.895 54.5915 115.453 53.1831L107.9 45.8223L108.028 35.2612C108.051 33.2464 107.671 31.2474 106.91 29.3817C106.149 27.516 105.023 25.8212 103.598 24.3968C102.173 22.9724 100.477 21.8472 98.6114 21.0873C96.7448 20.3273 94.7454 19.948 92.7308 19.9716L82.1857 20.0996Z" fill="#0095E8"/>
</g>
<defs>
<clipPath id="clip0_14_41">
<rect width="128" height="128" fill="white"/>
</clipPath>
</defs>
</svg>

