<svg width="22" height="18" viewBox="0 0 22 18" fill="none" xmlns="http://www.w3.org/2000/svg">
<path d="M4.51755 13.3638L5.72021 14.6678L2.49814 17.6395L0.00666083 17.5243L4.51755 13.3638ZM13.131 7.83277C14.6254 6.45448 16.6672 6.04212 18.5075 6.55044L13.0673 0.651979C11.8767 1.83211 13.1766 3.48199 11.3058 5.20738C8.87574 7.44867 7.12311 4.92775 2.79974 8.91523L10.0157 16.739C10.8908 15.9319 11.4828 15.2109 11.9049 14.5513C10.812 12.3281 11.2364 9.58016 13.131 7.83277ZM19.7456 15.0045C18.1442 16.4815 15.6328 16.3641 14.1397 14.7452C12.6466 13.1263 12.7322 10.6137 14.3336 9.13673C15.935 7.65978 18.4464 7.77721 19.9394 9.39607C21.4325 11.0149 21.3469 13.5276 19.7456 15.0045ZM19.2573 11.7313L17.4958 11.6498L17.5568 9.88753L16.6754 9.84738L16.6144 11.6097L14.853 11.5282L14.8219 12.4099L16.584 12.4908L16.5231 14.2532L17.405 14.294L17.4653 12.5322L19.2268 12.6137L19.2573 11.7313Z" fill="white"/>
</svg>
