<svg xmlns="http://www.w3.org/2000/svg" version="1.1" xmlns:xlink="http://www.w3.org/1999/xlink" xmlns:svgjs="http://svgjs.com/svgjs" width="512" height="512" x="0" y="0" viewBox="0 0 512.013 512.013" style="enable-background:new 0 0 512 512" xml:space="preserve" class=""><g><path d="M393.222 1.51a16.02 16.02 0 0 0-9.216 14.496v48h-320c-35.296 0-64 28.736-64 64v206.848l64-53.344V128.006h320v48a16.02 16.02 0 0 0 9.216 14.496c5.632 2.624 12.256 1.792 17.024-2.208l96-80c3.68-3.04 5.76-7.52 5.76-12.288s-2.08-9.248-5.76-12.288l-96-80c-4.768-4-11.392-4.832-17.024-2.208zM448.006 384.006h-320v-48a16.02 16.02 0 0 0-9.216-14.496c-5.632-2.624-12.256-1.792-17.024 2.208l-96 80c-3.68 3.04-5.76 7.52-5.76 12.288s2.08 9.248 5.76 12.288l96 80c4.768 4 11.392 4.832 17.024 2.208a16.02 16.02 0 0 0 9.216-14.496v-48h320c35.296 0 64-28.704 64-64V177.158l-64 53.344v153.504z" style="" fill="#47be7d" data-original="#2196f3" class=""></path></g></svg>