<svg width="32" height="24" viewBox="0 0 32 24" fill="none" xmlns="http://www.w3.org/2000/svg">
<path d="M30 24C30 24 32 24 32 22C32 20 30 14 22 14C14 14 12 20 12 22C12 24 14 24 14 24H30ZM14 22C14 21.4 14.2 20 15.4 18.6C16.6 17.2 18.6 16 22 16C25.4 16 27.4 17.2 28.4 18.6C29.6 20 30 21.4 30 22H14ZM22 10C23 10 24 9.6 24.8 8.8C25.6 8 26 7 26 6C26 5 25.6 4 24.8 3.2C24 2.4 23 2 22 2C21 2 20 2.4 19.2 3.2C18.4 4 18 5 18 6C18 7 18.4 8 19.2 8.8C20 9.6 21 10 22 10ZM28 6C28 6.8 27.8 7.6 27.6 8.2C27.2 9 26.8 9.6 26.2 10.2C25.6 10.8 25 11.2 24.2 11.6C23.6 11.8 22.8 12 22 12C21.2 12 20.4 11.8 19.8 11.6C19 11.2 18.4 10.8 17.8 10.2C17.2 9.6 16.8 9 16.4 8.2C16.2 7.6 16 6.8 16 6C16 4.4 16.6 2.8 17.8 1.8C18.8 0.6 20.4 0 22 0C23.6 0 25.2 0.6 26.2 1.8C27.2 3 28 4.4 28 6ZM13.8 14.6C13 14.4 12.2 14.2 11.4 14C11 14 10.4 14 10 14C2 14 0 20 0 22C0 23.4 0.6 24 2 24H10.4C10.2 23.4 10 22.6 10 22C10 20 10.8 18 12.2 16.2C12.6 15.6 13.2 15 13.8 14.6ZM9.8 16C8.6 17.8 8 19.8 8 22H2C2 21.4 2.4 20 3.6 18.6C4.6 17.2 6.6 16 9.8 16ZM3 7C3 5.4 3.6 3.8 4.8 2.8C6 1.8 7.4 1 9 1C10.6 1 12.2 1.6 13.2 2.8C14.2 4 15 5.4 15 7C15 8.6 14.4 10.2 13.2 11.2C12.2 12.4 10.6 13 9 13C7.4 13 5.8 12.4 4.8 11.2C3.6 10.2 3 8.6 3 7ZM9 3C8 3 7 3.4 6.2 4.2C5.4 5 5 6 5 7C5 8 5.4 9 6.2 9.8C7 10.6 8 11 9 11C10 11 11 10.6 11.8 9.8C12.6 9 13 8 13 7C13 6 12.6 5 11.8 4.2C11 3.4 10 3 9 3Z" fill="#0078D1"/>
</svg>

