<svg width="32" height="32" viewBox="0 0 32 32" fill="none" xmlns="http://www.w3.org/2000/svg">
<path d="M16 16C18.1333 16 20.2667 15.2 21.6 13.6C23.2 12.2667 24 10.1333 24 8C24 5.86667 23.2 3.73333 21.6 2.4C20.2667 0.8 18.1333 0 16 0C13.8667 0 11.7333 0.8 10.4 2.4C9.06667 4 8 5.86667 8 8C8 10.1333 8.8 12.2667 10.4 13.6C12 14.9333 13.8667 16 16 16ZM21.3333 8C21.3333 9.33333 20.8 10.6667 19.7333 11.7333C18.6667 12.8 17.3333 13.3333 16 13.3333C14.6667 13.3333 13.3333 12.8 12.2667 11.7333C11.2 10.6667 10.6667 9.33333 10.6667 8C10.6667 6.66667 11.2 5.33333 12.2667 4.26667C13.3333 3.2 14.6667 2.66667 16 2.66667C17.3333 2.66667 18.6667 3.2 19.7333 4.26667C20.8 5.33333 21.3333 6.66667 21.3333 8ZM32 29.3333C32 32 29.3333 32 29.3333 32H2.66667C2.66667 32 0 32 0 29.3333C0 26.6667 2.66667 18.6667 16 18.6667C29.3333 18.6667 32 26.6667 32 29.3333ZM29.3333 29.3333C29.3333 28.8 28.8 26.6667 27.2 24.8C25.3333 23.2 22.1333 21.3333 16 21.3333C9.86667 21.3333 6.66667 23.2 4.8 24.8C3.2 26.6667 2.66667 28.8 2.66667 29.3333H29.3333Z" fill="#0078D1"/>
</svg>
