<svg width="12" height="16" viewBox="0 0 12 16" fill="none" xmlns="http://www.w3.org/2000/svg">
<path d="M5.5 5.5C5.5 5.36739 5.44732 5.24021 5.35355 5.14645C5.25979 5.05268 5.13261 5 5 5C4.86739 5 4.74021 5.05268 4.64645 5.14645C4.55268 5.24021 4.5 5.36739 4.5 5.5V6.134L3.951 5.817C3.89411 5.78365 3.83119 5.76188 3.76586 5.75295C3.70053 5.74402 3.63408 5.7481 3.57033 5.76495C3.50658 5.78181 3.44679 5.8111 3.39441 5.85116C3.34203 5.89121 3.29809 5.94123 3.26512 5.99834C3.23215 6.05544 3.2108 6.1185 3.2023 6.18389C3.1938 6.24928 3.19832 6.31571 3.2156 6.37935C3.23287 6.44298 3.26257 6.50257 3.30297 6.55469C3.34337 6.6068 3.39368 6.65041 3.451 6.683L4 7L3.451 7.317C3.39368 7.34959 3.34337 7.3932 3.30297 7.44531C3.26257 7.49743 3.23287 7.55702 3.2156 7.62065C3.19832 7.68429 3.1938 7.75072 3.2023 7.81611C3.2108 7.8815 3.23215 7.94456 3.26512 8.00166C3.29809 8.05877 3.34203 8.10879 3.39441 8.14884C3.44679 8.1889 3.50658 8.21819 3.57033 8.23505C3.63408 8.2519 3.70053 8.25598 3.76586 8.24705C3.83119 8.23812 3.89411 8.21635 3.951 8.183L4.5 7.866V8.5C4.5 8.63261 4.55268 8.75979 4.64645 8.85355C4.74021 8.94732 4.86739 9 5 9C5.13261 9 5.25979 8.94732 5.35355 8.85355C5.44732 8.75979 5.5 8.63261 5.5 8.5V7.866L6.049 8.183C6.10589 8.21635 6.16881 8.23812 6.23414 8.24705C6.29947 8.25598 6.36592 8.2519 6.42967 8.23505C6.49342 8.21819 6.55321 8.1889 6.60559 8.14884C6.65797 8.10879 6.70191 8.05877 6.73488 8.00166C6.76785 7.94456 6.7892 7.8815 6.7977 7.81611C6.8062 7.75072 6.80168 7.68429 6.7844 7.62065C6.76713 7.55702 6.73743 7.49743 6.69703 7.44531C6.65663 7.3932 6.60632 7.34959 6.549 7.317L6 7L6.549 6.683C6.60632 6.65041 6.65663 6.6068 6.69703 6.55469C6.73743 6.50257 6.76713 6.44298 6.7844 6.37935C6.80168 6.31571 6.8062 6.24928 6.7977 6.18389C6.7892 6.1185 6.76785 6.05544 6.73488 5.99834C6.70191 5.94123 6.65797 5.89121 6.60559 5.85116C6.55321 5.8111 6.49342 5.78181 6.42967 5.76495C6.36592 5.7481 6.29947 5.74402 6.23414 5.75295C6.16881 5.76188 6.10589 5.78365 6.049 5.817L5.5 6.134V5.5ZM3.5 10C3.36739 10 3.24021 10.0527 3.14645 10.1464C3.05268 10.2402 3 10.3674 3 10.5C3 10.6326 3.05268 10.7598 3.14645 10.8536C3.24021 10.9473 3.36739 11 3.5 11H8.5C8.63261 11 8.75979 10.9473 8.85355 10.8536C8.94732 10.7598 9 10.6326 9 10.5C9 10.3674 8.94732 10.2402 8.85355 10.1464C8.75979 10.0527 8.63261 10 8.5 10H3.5ZM3.5 12C3.36739 12 3.24021 12.0527 3.14645 12.1464C3.05268 12.2402 3 12.3674 3 12.5C3 12.6326 3.05268 12.7598 3.14645 12.8536C3.24021 12.9473 3.36739 13 3.5 13H8.5C8.63261 13 8.75979 12.9473 8.85355 12.8536C8.94732 12.7598 9 12.6326 9 12.5C9 12.3674 8.94732 12.2402 8.85355 12.1464C8.75979 12.0527 8.63261 12 8.5 12H3.5Z" fill="#0095E8"/>
<path d="M12 14V4.5L7.5 0H2C1.46957 0 0.960859 0.210714 0.585786 0.585786C0.210714 0.960859 0 1.46957 0 2V14C0 14.5304 0.210714 15.0391 0.585786 15.4142C0.960859 15.7893 1.46957 16 2 16H10C10.5304 16 11.0391 15.7893 11.4142 15.4142C11.7893 15.0391 12 14.5304 12 14ZM7.5 3C7.5 3.39782 7.65804 3.77936 7.93934 4.06066C8.22064 4.34196 8.60218 4.5 9 4.5H11V14C11 14.2652 10.8946 14.5196 10.7071 14.7071C10.5196 14.8946 10.2652 15 10 15H2C1.73478 15 1.48043 14.8946 1.29289 14.7071C1.10536 14.5196 1 14.2652 1 14V2C1 1.73478 1.10536 1.48043 1.29289 1.29289C1.48043 1.10536 1.73478 1 2 1H7.5V3Z" fill="#0095E8"/>
</svg>
