<svg width="31" height="18" viewBox="0 0 31 18" fill="none" xmlns="http://www.w3.org/2000/svg">
<path d="M29.3444 10.4732C29.2568 10.4871 29.1682 10.4936 29.0795 10.4924H4.75269L5.08196 10.6426C5.40382 10.792 5.69662 10.9953 5.94726 11.2433L10.1819 15.3956C10.7396 15.9176 10.8333 16.7574 10.4039 17.3854C9.90422 18.0545 8.94594 18.1998 8.26346 17.7098C8.20833 17.6702 8.15592 17.627 8.10667 17.5806L0.449172 10.0719C-0.149261 9.4858 -0.149788 8.53497 0.447976 7.94817L0.449172 7.94699L8.10667 0.438358C8.70559 -0.147269 9.67527 -0.145955 10.2726 0.441315C10.3195 0.48754 10.3634 0.536722 10.4039 0.588531C10.8333 1.21649 10.7396 2.05628 10.1819 2.57832L5.95492 6.7381C5.73022 6.95867 5.47187 7.14362 5.18917 7.28623L4.72972 7.48897H28.9952C29.7776 7.46048 30.464 7.99636 30.611 8.75042C30.7464 9.5691 30.1793 10.3404 29.3444 10.4732Z" fill="#0095E8"/>
<rect x="12.9167" width="17.7143" height="3.30612" rx="1.65306" fill="#A1A5B7"/>
<rect x="13.2857" y="14.6939" width="17.7143" height="3.30612" rx="1.65306" fill="#A1A5B7"/>
</svg>
