<svg width="16" height="10" viewBox="0 0 16 10" fill="none" xmlns="http://www.w3.org/2000/svg">
<path d="M3.03393e-07 5.00009C-0.000342641 4.11927 0.290063 3.26296 0.826149 2.56406C1.36224 1.86516 2.11402 1.36275 2.96484 1.1348C3.81566 0.906854 4.71793 0.966114 5.53162 1.30339C6.34531 1.64066 7.02493 2.23708 7.465 3.00009H14C14.0657 2.99998 14.1308 3.01281 14.1915 3.03786C14.2523 3.06291 14.3075 3.09969 14.354 3.14609L15.854 4.64609C15.9006 4.69254 15.9375 4.74771 15.9627 4.80846C15.9879 4.86921 16.0009 4.93433 16.0009 5.00009C16.0009 5.06586 15.9879 5.13098 15.9627 5.19173C15.9375 5.25247 15.9006 5.30765 15.854 5.35409L14.354 6.85409C14.3076 6.90066 14.2524 6.9376 14.1916 6.96281C14.1309 6.98801 14.0658 7.00099 14 7.00099C13.9342 7.00099 13.8691 6.98801 13.8084 6.96281C13.7476 6.9376 13.6924 6.90066 13.646 6.85409L13 6.20709L12.354 6.85409C12.3076 6.90066 12.2524 6.9376 12.1916 6.96281C12.1309 6.98801 12.0658 7.00099 12 7.00099C11.9342 7.00099 11.8691 6.98801 11.8084 6.96281C11.7476 6.9376 11.6924 6.90066 11.646 6.85409L11 6.20709L10.354 6.85409C10.3076 6.90066 10.2524 6.9376 10.1916 6.96281C10.1309 6.98801 10.0658 7.00099 10 7.00099C9.93423 7.00099 9.86911 6.98801 9.80837 6.96281C9.74762 6.9376 9.69245 6.90066 9.646 6.85409L9 6.20709L8.354 6.85409C8.30748 6.9005 8.25227 6.93727 8.19153 6.96233C8.13079 6.98738 8.06571 7.00021 8 7.00009H7.465C7.02493 7.76311 6.34531 8.35953 5.53162 8.6968C4.71793 9.03407 3.81566 9.09333 2.96484 8.86539C2.11402 8.63744 1.36224 8.13503 0.826149 7.43613C0.290063 6.73723 -0.000342641 5.88092 3.03393e-07 5.00009ZM4 2.00009C3.46314 2.0003 2.93617 2.14456 2.47407 2.41784C2.01197 2.69111 1.63166 3.08338 1.37283 3.55372C1.114 4.02407 0.98612 4.55525 1.00254 5.09186C1.01896 5.62847 1.17908 6.15084 1.46619 6.60448C1.7533 7.05811 2.15688 7.42639 2.63483 7.6709C3.11278 7.9154 3.64758 8.02717 4.18345 7.99455C4.71932 7.96192 5.23661 7.7861 5.68137 7.48542C6.12612 7.18473 6.48205 6.77021 6.712 6.28509C6.7526 6.19985 6.8165 6.12785 6.89631 6.07742C6.97613 6.02698 7.06859 6.00017 7.163 6.00009H7.793L8.646 5.14609C8.69245 5.09953 8.74762 5.06259 8.80837 5.03738C8.86911 5.01218 8.93423 4.9992 9 4.9992C9.06577 4.9992 9.13089 5.01218 9.19163 5.03738C9.25238 5.06259 9.30755 5.09953 9.354 5.14609L10 5.79309L10.646 5.14609C10.6924 5.09953 10.7476 5.06259 10.8084 5.03738C10.8691 5.01218 10.9342 4.9992 11 4.9992C11.0658 4.9992 11.1309 5.01218 11.1916 5.03738C11.2524 5.06259 11.3076 5.09953 11.354 5.14609L12 5.79309L12.646 5.14609C12.6924 5.09953 12.7476 5.06259 12.8084 5.03738C12.8691 5.01218 12.9342 4.9992 13 4.9992C13.0658 4.9992 13.1309 5.01218 13.1916 5.03738C13.2524 5.06259 13.3076 5.09953 13.354 5.14609L14 5.79309L14.793 5.00009L13.793 4.00009H7.163C7.06859 4.00002 6.97613 3.97321 6.89631 3.92277C6.8165 3.87234 6.7526 3.80033 6.712 3.71509C6.46869 3.2018 6.08466 2.76814 5.60456 2.46454C5.12446 2.16094 4.56804 1.99988 4 2.00009Z" fill="#0095E8"/>
<path d="M4 5.00009C4 5.26531 3.89464 5.51966 3.70711 5.7072C3.51957 5.89474 3.26522 6.00009 3 6.00009C2.73478 6.00009 2.48043 5.89474 2.29289 5.7072C2.10536 5.51966 2 5.26531 2 5.00009C2 4.73488 2.10536 4.48052 2.29289 4.29299C2.48043 4.10545 2.73478 4.00009 3 4.00009C3.26522 4.00009 3.51957 4.10545 3.70711 4.29299C3.89464 4.48052 4 4.73488 4 5.00009Z" fill="#0095E8"/>
</svg>
