<svg width="16" height="16" viewBox="0 0 16 16" fill="none" xmlns="http://www.w3.org/2000/svg">
<path fill-rule="evenodd" clip-rule="evenodd" d="M7.99993 5.50005C8.13254 5.50005 8.25971 5.55273 8.35348 5.6465C8.44725 5.74026 8.49993 5.86744 8.49993 6.00005V7.50005H9.99993C10.1325 7.50005 10.2597 7.55273 10.3535 7.6465C10.4472 7.74026 10.4999 7.86744 10.4999 8.00005C10.4999 8.13266 10.4472 8.25984 10.3535 8.3536C10.2597 8.44737 10.1325 8.50005 9.99993 8.50005H8.49993V10C8.49993 10.1327 8.44725 10.2598 8.35348 10.3536C8.25971 10.4474 8.13254 10.5 7.99993 10.5C7.86732 10.5 7.74014 10.4474 7.64637 10.3536C7.55261 10.2598 7.49993 10.1327 7.49993 10V8.50005H5.99993C5.86732 8.50005 5.74014 8.44737 5.64637 8.3536C5.55261 8.25984 5.49993 8.13266 5.49993 8.00005C5.49993 7.86744 5.55261 7.74026 5.64637 7.6465C5.74014 7.55273 5.86732 7.50005 5.99993 7.50005H7.49993V6.00005C7.49993 5.86744 7.55261 5.74026 7.64637 5.6465C7.74014 5.55273 7.86732 5.50005 7.99993 5.50005Z" fill="#0095E8"/>
<path d="M10.2729 2.51305L9.35193 1.56905L10.0669 0.87105L10.6889 1.50805L11.5789 1.49705C11.9642 1.49249 12.3465 1.56501 12.7033 1.71034C13.0601 1.85567 13.3842 2.07088 13.6567 2.34331C13.9291 2.61574 14.1443 2.9399 14.2896 3.29671C14.435 3.65353 14.5075 4.0358 14.5029 4.42105L14.4929 5.31105L15.1289 5.93305C15.4044 6.20222 15.6233 6.52373 15.7727 6.8787C15.9221 7.23366 15.9991 7.61491 15.9991 8.00005C15.9991 8.38519 15.9221 8.76644 15.7727 9.1214C15.6233 9.47637 15.4044 9.79788 15.1289 10.067L14.4919 10.689L14.5029 11.5791C14.5075 11.9643 14.435 12.3466 14.2896 12.7034C14.1443 13.0602 13.9291 13.3844 13.6567 13.6568C13.3842 13.9292 13.0601 14.1444 12.7033 14.2898C12.3465 14.4351 11.9642 14.5076 11.5789 14.503L10.6889 14.493L10.0669 15.129C9.79776 15.4045 9.47624 15.6234 9.12128 15.7728C8.76632 15.9223 8.38507 15.9992 7.99993 15.9992C7.61479 15.9992 7.23354 15.9223 6.87857 15.7728C6.52361 15.6234 6.2021 15.4045 5.93293 15.129L5.31093 14.492L4.42093 14.503C4.03568 14.5076 3.6534 14.4351 3.29659 14.2898C2.93977 14.1444 2.61562 13.9292 2.34319 13.6568C2.07076 13.3844 1.85555 13.0602 1.71022 12.7034C1.56489 12.3466 1.49237 11.9643 1.49693 11.5791L1.50693 10.689L0.870928 10.067C0.595468 9.79788 0.376588 9.47637 0.227151 9.1214C0.0777131 8.76644 0.000732422 8.38519 0.000732422 8.00005C0.000732422 7.61491 0.0777131 7.23366 0.227151 6.8787C0.376588 6.52373 0.595468 6.20222 0.870928 5.93305L1.50793 5.31105L1.49693 4.42105C1.49237 4.0358 1.56489 3.65353 1.71022 3.29671C1.85555 2.9399 2.07076 2.61574 2.34319 2.34331C2.61562 2.07088 2.93977 1.85567 3.29659 1.71034C3.6534 1.56501 4.03568 1.49249 4.42093 1.49705L5.31093 1.50705L5.93293 0.87105C6.2021 0.59559 6.52361 0.37671 6.87857 0.227273C7.23354 0.0778352 7.61479 0.000854492 7.99993 0.000854492C8.38507 0.000854492 8.76632 0.0778352 9.12128 0.227273C9.47624 0.37671 9.79776 0.59559 10.0669 0.87105L9.35193 1.56905C9.17589 1.38884 8.9656 1.24564 8.73342 1.14787C8.50124 1.0501 8.25185 0.99973 7.99993 0.99973C7.748 0.99973 7.49862 1.0501 7.26644 1.14787C7.03426 1.24564 6.82397 1.38884 6.64793 1.56905L5.72793 2.51305L4.40793 2.49705C4.15611 2.49423 3.90626 2.54177 3.67307 2.63688C3.43988 2.73198 3.22805 2.87273 3.05002 3.05085C2.87199 3.22897 2.73135 3.44088 2.63637 3.67412C2.54139 3.90736 2.49398 4.15723 2.49693 4.40905L2.51293 5.72705L1.56893 6.64805C1.38871 6.82409 1.24551 7.03438 1.14774 7.26656C1.04997 7.49874 0.999608 7.74812 0.999608 8.00005C0.999608 8.25198 1.04997 8.50136 1.14774 8.73354C1.24551 8.96572 1.38871 9.17601 1.56893 9.35205L2.51293 10.272L2.49693 11.592C2.49411 11.8439 2.54165 12.0937 2.63675 12.3269C2.73186 12.5601 2.8726 12.7719 3.05073 12.95C3.22885 13.128 3.44076 13.2686 3.674 13.3636C3.90724 13.4586 4.15711 13.506 4.40893 13.503L5.72693 13.4871L6.64793 14.431C6.82397 14.6113 7.03426 14.7545 7.26644 14.8522C7.49862 14.95 7.748 15.0004 7.99993 15.0004C8.25185 15.0004 8.50124 14.95 8.73342 14.8522C8.9656 14.7545 9.17589 14.6113 9.35193 14.431L10.2719 13.4871L11.5919 13.503C11.8438 13.5059 12.0936 13.4583 12.3268 13.3632C12.56 13.2681 12.7718 13.1274 12.9498 12.9493C13.1279 12.7711 13.2685 12.5592 13.3635 12.326C13.4585 12.0927 13.5059 11.8429 13.5029 11.591L13.4869 10.273L14.4309 9.35205C14.6111 9.17601 14.7543 8.96572 14.8521 8.73354C14.9499 8.50136 15.0002 8.25198 15.0002 8.00005C15.0002 7.74812 14.9499 7.49874 14.8521 7.26656C14.7543 7.03438 14.6111 6.82409 14.4309 6.64805L13.4869 5.72805L13.5029 4.40805C13.5057 4.15623 13.4582 3.90638 13.3631 3.67319C13.268 3.44 13.1273 3.22817 12.9491 3.05014C12.771 2.87211 12.5591 2.73147 12.3259 2.63649C12.0926 2.54151 11.8427 2.4941 11.5909 2.49705L10.2729 2.51305Z" fill="#0095E8"/>
</svg>
