<svg width="10" height="12" viewBox="0 0 10 12" fill="none" xmlns="http://www.w3.org/2000/svg">
<path fill-rule="evenodd" clip-rule="evenodd" d="M3 1.5C3 1.10218 3.15804 0.720644 3.43934 0.43934C3.72064 0.158035 4.10218 0 4.5 0H5.5C5.89782 0 6.27936 0.158035 6.56066 0.43934C6.84196 0.720644 7 1.10218 7 1.5V2.5C7 2.89782 6.84196 3.27936 6.56066 3.56066C6.27936 3.84196 5.89782 4 5.5 4V5H8C8.13261 5 8.25979 5.05268 8.35355 5.14645C8.44732 5.24021 8.5 5.36739 8.5 5.5V6.5C8.5 6.63261 8.44732 6.75979 8.35355 6.85355C8.25979 6.94732 8.13261 7 8 7C7.86739 7 7.74021 6.94732 7.64645 6.85355C7.55268 6.75979 7.5 6.63261 7.5 6.5V6H2.5V6.5C2.5 6.63261 2.44732 6.75979 2.35355 6.85355C2.25979 6.94732 2.13261 7 2 7C1.86739 7 1.74021 6.94732 1.64645 6.85355C1.55268 6.75979 1.5 6.63261 1.5 6.5V5.5C1.5 5.36739 1.55268 5.24021 1.64645 5.14645C1.74021 5.05268 1.86739 5 2 5H4.5V4C4.10218 4 3.72064 3.84196 3.43934 3.56066C3.15804 3.27936 3 2.89782 3 2.5V1.5ZM5.5 3C5.63261 3 5.75979 2.94732 5.85355 2.85355C5.94732 2.75979 6 2.63261 6 2.5V1.5C6 1.36739 5.94732 1.24021 5.85355 1.14645C5.75979 1.05268 5.63261 1 5.5 1H4.5C4.36739 1 4.24021 1.05268 4.14645 1.14645C4.05268 1.24021 4 1.36739 4 1.5V2.5C4 2.63261 4.05268 2.75979 4.14645 2.85355C4.24021 2.94732 4.36739 3 4.5 3H5.5ZM0 9.5C0 9.10218 0.158035 8.72064 0.43934 8.43934C0.720644 8.15804 1.10218 8 1.5 8H2.5C2.89782 8 3.27936 8.15804 3.56066 8.43934C3.84196 8.72064 4 9.10218 4 9.5V10.5C4 10.8978 3.84196 11.2794 3.56066 11.5607C3.27936 11.842 2.89782 12 2.5 12H1.5C1.10218 12 0.720644 11.842 0.43934 11.5607C0.158035 11.2794 0 10.8978 0 10.5V9.5ZM1.5 9C1.36739 9 1.24021 9.05268 1.14645 9.14645C1.05268 9.24021 1 9.36739 1 9.5V10.5C1 10.6326 1.05268 10.7598 1.14645 10.8536C1.24021 10.9473 1.36739 11 1.5 11H2.5C2.63261 11 2.75979 10.9473 2.85355 10.8536C2.94732 10.7598 3 10.6326 3 10.5V9.5C3 9.36739 2.94732 9.24021 2.85355 9.14645C2.75979 9.05268 2.63261 9 2.5 9H1.5ZM6 9.5C6 9.10218 6.15804 8.72064 6.43934 8.43934C6.72064 8.15804 7.10218 8 7.5 8H8.5C8.89782 8 9.27936 8.15804 9.56066 8.43934C9.84196 8.72064 10 9.10218 10 9.5V10.5C10 10.8978 9.84196 11.2794 9.56066 11.5607C9.27936 11.842 8.89782 12 8.5 12H7.5C7.10218 12 6.72064 11.842 6.43934 11.5607C6.15804 11.2794 6 10.8978 6 10.5V9.5ZM7.5 9C7.36739 9 7.24021 9.05268 7.14645 9.14645C7.05268 9.24021 7 9.36739 7 9.5V10.5C7 10.6326 7.05268 10.7598 7.14645 10.8536C7.24021 10.9473 7.36739 11 7.5 11H8.5C8.63261 11 8.75979 10.9473 8.85355 10.8536C8.94732 10.7598 9 10.6326 9 10.5V9.5C9 9.36739 8.94732 9.24021 8.85355 9.14645C8.75979 9.05268 8.63261 9 8.5 9H7.5Z" fill="#0095E8"/>
</svg>
