<svg width="35" height="32" viewBox="0 0 35 32" fill="none" xmlns="http://www.w3.org/2000/svg">
<path fill-rule="evenodd" clip-rule="evenodd" d="M16.45 9.1C16.45 4.07 20.54 0 25.55 0C30.56 0 34.65 4.07 34.65 9.1C34.65 14.13 30.57 18.2 25.55 18.2C20.53 18.2 16.45 14.13 16.45 9.1V9.1ZM26.92 10.49H31.56V7.72H26.92V3.08H24.15V7.72H19.51V10.49H24.15V15.13H26.92V10.49V10.49ZM20.11 19.51C20.93 19.89 21.79 20.17 22.68 20.33H22.67C23.07 20.4 23.45 20.44 23.84 20.47H24.07V32H11.35V21.98C11.35 21.61 11.05 21.32 10.69 21.32H5.84001C5.47001 21.32 5.18001 21.62 5.18001 21.98V32H2.56001V18.8C1.90001 18.67 1.29001 18.33 0.84001 17.81C0.30001 17.19 0.0100098 16.38 0.0100098 15.56C0.0100098 15.18 0.0700098 14.8 0.19001 14.43L0.22001 14.36L2.64001 9.4C2.98001 8.5 3.83001 7.87 4.80001 7.86H7.63001L7.53001 7.85H14.57C14.44 8.3 14.37 8.77 14.32 9.24H12.03L11.48 15.47C11.47 16.01 11.68 16.52 12.03 16.91C12.37 17.28 12.84 17.49 13.33 17.49C13.82 17.49 14.29 17.28 14.63 16.91C14.98 16.53 15.18 16.02 15.18 15.48L15.08 14.26C15.26 14.67 15.48 15.08 15.7 15.46C15.7 15.46 16.15 16.18 16.41 16.51C16.72 16.92 17.06 17.29 17.43 17.64C17.6 17.81 17.77 17.97 17.95 18.12C18.07 18.22 18.2 18.31 18.33 18.41C18.36 18.43 18.4 18.46 18.43 18.49C18.57 18.6 18.73 18.72 18.88 18.82C19.28 19.07 19.69 19.31 20.12 19.51H20.11ZM5.05001 15.11V15.07H5.04001L6.59001 9.25H4.77001C4.36001 9.26 4.01001 9.53 3.89001 9.93L3.86001 10L1.50001 14.91C1.43001 15.12 1.39001 15.35 1.39001 15.57C1.39001 16.06 1.56001 16.53 1.88001 16.91C2.16001 17.26 2.60001 17.48 3.05001 17.49H3.12001C4.14001 17.45 4.94001 16.63 4.97001 15.61V15.47L5.00001 15.29L5.03001 15.19L5.04001 15.11H5.05001ZM10.08 15.46V15.4L10.63 9.21H8.04001L6.37001 15.47V15.54C6.38001 16.05 6.58001 16.53 6.92001 16.9C7.56001 17.62 8.66001 17.68 9.38001 17.03L9.51001 16.9C9.88001 16.52 10.08 16 10.08 15.46V15.46ZM20.91 27.15C21.28 27.15 21.57 26.85 21.57 26.49V22.01C21.57 21.64 21.27 21.35 20.91 21.35H13.9C13.53 21.35 13.24 21.65 13.24 22.01V26.49C13.24 26.86 13.54 27.15 13.9 27.15H20.91Z" fill="#0F9BE9"/>
</svg>
