<svg width="30" height="18" viewBox="0 0 30 18" fill="none" xmlns="http://www.w3.org/2000/svg">
<path d="M1.32768 7.38468C1.41338 7.3716 1.50006 7.36589 1.58674 7.36758L25.3645 7.52954L25.0437 7.38018C24.7301 7.23166 24.4452 7.03048 24.2019 6.78576L20.0907 2.68843C19.5491 2.17313 19.4631 1.34953 19.887 0.737003C20.3799 0.0845683 21.3175 -0.0514347 21.9813 0.433284C22.035 0.472466 22.0859 0.515125 22.1337 0.560982L29.5681 7.97026C30.1491 8.54865 30.1432 9.48044 29.555 10.0515L22.0188 17.36C21.4295 17.9299 20.4817 17.9221 19.9019 17.3426C19.8562 17.297 19.8137 17.2485 19.7744 17.1975C19.359 16.5793 19.4562 15.7569 20.0048 15.249L24.1642 11.2007C24.3853 10.986 24.6391 10.8065 24.9164 10.6686L25.3668 10.473L1.64898 10.3115C0.884095 10.3342 0.216778 9.80445 0.0781746 9.06451C-0.048677 8.26133 0.510732 7.50927 1.32768 7.38468Z" fill="#0095E8"/>
<path d="M0 1.62C0 0.725299 0.726762 0 1.62327 0H15.6916C16.5881 0 17.3149 0.725299 17.3149 1.62C17.3149 2.5147 16.5881 3.24 15.6916 3.24H1.62327C0.726762 3.24 0 2.5147 0 1.62Z" fill="#A1A5B7"/>
<path d="M0 16.38C0 15.4853 0.726762 14.76 1.62327 14.76H15.6916C16.5881 14.76 17.3149 15.4853 17.3149 16.38C17.3149 17.2747 16.5881 18 15.6916 18H1.62327C0.726762 18 0 17.2747 0 16.38Z" fill="#A1A5B7"/>
</svg>
