<svg width="13" height="16" viewBox="0 0 13 16" fill="none" xmlns="http://www.w3.org/2000/svg">
<path d="M12.5 14V4.5L8 0H2.5C1.96957 0 1.46086 0.210714 1.08579 0.585786C0.710714 0.960859 0.5 1.46957 0.5 2V14C0.5 14.5304 0.710714 15.0391 1.08579 15.4142C1.46086 15.7893 1.96957 16 2.5 16H10.5C11.0304 16 11.5391 15.7893 11.9142 15.4142C12.2893 15.0391 12.5 14.5304 12.5 14ZM8 3C8 3.39782 8.15804 3.77936 8.43934 4.06066C8.72064 4.34196 9.10218 4.5 9.5 4.5H11.5V9H1.5V2C1.5 1.73478 1.60536 1.48043 1.79289 1.29289C1.98043 1.10536 2.23478 1 2.5 1H8V3ZM1.5 12V10H3.5V12H1.5ZM1.5 13H3.5V15H2.5C2.23478 15 1.98043 14.8946 1.79289 14.7071C1.60536 14.5196 1.5 14.2652 1.5 14V13ZM4.5 15V13H11.5V14C11.5 14.2652 11.3946 14.5196 11.2071 14.7071C11.0196 14.8946 10.7652 15 10.5 15H4.5ZM11.5 12H4.5V10H11.5V12Z" fill="white"/>
</svg>
