<svg width="13" height="16" viewBox="0 0 13 16" fill="none" xmlns="http://www.w3.org/2000/svg">
<path d="M4 7C3.86739 7 3.74021 7.05268 3.64645 7.14645C3.55268 7.24021 3.5 7.36739 3.5 7.5C3.5 7.63261 3.55268 7.75979 3.64645 7.85355C3.74021 7.94732 3.86739 8 4 8H9C9.13261 8 9.25979 7.94732 9.35355 7.85355C9.44732 7.75979 9.5 7.63261 9.5 7.5C9.5 7.36739 9.44732 7.24021 9.35355 7.14645C9.25979 7.05268 9.13261 7 9 7H4ZM3.5 9.5C3.5 9.36739 3.55268 9.24021 3.64645 9.14645C3.74021 9.05268 3.86739 9 4 9H9C9.13261 9 9.25979 9.05268 9.35355 9.14645C9.44732 9.24021 9.5 9.36739 9.5 9.5C9.5 9.63261 9.44732 9.75979 9.35355 9.85355C9.25979 9.94732 9.13261 10 9 10H4C3.86739 10 3.74021 9.94732 3.64645 9.85355C3.55268 9.75979 3.5 9.63261 3.5 9.5ZM3.5 11.5C3.5 11.3674 3.55268 11.2402 3.64645 11.1464C3.74021 11.0527 3.86739 11 4 11H6C6.13261 11 6.25979 11.0527 6.35355 11.1464C6.44732 11.2402 6.5 11.3674 6.5 11.5C6.5 11.6326 6.44732 11.7598 6.35355 11.8536C6.25979 11.9473 6.13261 12 6 12H4C3.86739 12 3.74021 11.9473 3.64645 11.8536C3.55268 11.7598 3.5 11.6326 3.5 11.5Z" fill="#A1A5B7"/>
<path d="M8 0H2.5C1.96957 0 1.46086 0.210714 1.08579 0.585786C0.710714 0.960859 0.5 1.46957 0.5 2V14C0.5 14.5304 0.710714 15.0391 1.08579 15.4142C1.46086 15.7893 1.96957 16 2.5 16H10.5C11.0304 16 11.5391 15.7893 11.9142 15.4142C12.2893 15.0391 12.5 14.5304 12.5 14V4.5L8 0ZM8 1V3C8 3.39782 8.15804 3.77936 8.43934 4.06066C8.72064 4.34196 9.10218 4.5 9.5 4.5H11.5V14C11.5 14.2652 11.3946 14.5196 11.2071 14.7071C11.0196 14.8946 10.7652 15 10.5 15H2.5C2.23478 15 1.98043 14.8946 1.79289 14.7071C1.60536 14.5196 1.5 14.2652 1.5 14V2C1.5 1.73478 1.60536 1.48043 1.79289 1.29289C1.98043 1.10536 2.23478 1 2.5 1H8Z" fill="#A1A5B7"/>
</svg>
