<svg width="13" height="16" viewBox="0 0 13 16" fill="none" xmlns="http://www.w3.org/2000/svg">
<path d="M12.5 4.5V14C12.5 14.5304 12.2893 15.0391 11.9142 15.4142C11.5391 15.7893 11.0304 16 10.5 16H2.5C1.96957 16 1.46086 15.7893 1.08579 15.4142C0.710714 15.0391 0.5 14.5304 0.5 14V2C0.5 1.46957 0.710714 0.960859 1.08579 0.585786C1.46086 0.210714 1.96957 0 2.5 0L8 0L12.5 4.5ZM9.5 4.5C9.10218 4.5 8.72064 4.34196 8.43934 4.06066C8.15804 3.77936 8 3.39782 8 3V1H2.5C2.23478 1 1.98043 1.10536 1.79289 1.29289C1.60536 1.48043 1.5 1.73478 1.5 2V14C1.5 14.2652 1.60536 14.5196 1.79289 14.7071C1.98043 14.8946 2.23478 15 2.5 15H10.5C10.7652 15 11.0196 14.8946 11.2071 14.7071C11.3946 14.5196 11.5 14.2652 11.5 14V4.5H9.5Z" fill="white"/>
</svg>
