<svg width="13" height="16" viewBox="0 0 13 16" fill="none" xmlns="http://www.w3.org/2000/svg">
<path d="M9.354 7.854C9.44789 7.76011 9.50063 7.63278 9.50063 7.5C9.50063 7.36722 9.44789 7.23989 9.354 7.146C9.26011 7.05211 9.13278 6.99937 9 6.99937C8.86722 6.99937 8.73989 7.05211 8.646 7.146L6 9.793L4.854 8.646C4.76011 8.55211 4.63278 8.49937 4.5 8.49937C4.36722 8.49937 4.23989 8.55211 4.146 8.646C4.05211 8.73989 3.99937 8.86722 3.99937 9C3.99937 9.13278 4.05211 9.26011 4.146 9.354L5.646 10.854C5.69245 10.9006 5.74762 10.9375 5.80837 10.9627C5.86911 10.9879 5.93423 11.0009 6 11.0009C6.06577 11.0009 6.13089 10.9879 6.19163 10.9627C6.25238 10.9375 6.30755 10.9006 6.354 10.854L9.354 7.854Z" fill="#A1A5B7"/>
<path d="M12.5 14V4.5L8 0H2.5C1.96957 0 1.46086 0.210714 1.08579 0.585786C0.710714 0.960859 0.5 1.46957 0.5 2V14C0.5 14.5304 0.710714 15.0391 1.08579 15.4142C1.46086 15.7893 1.96957 16 2.5 16H10.5C11.0304 16 11.5391 15.7893 11.9142 15.4142C12.2893 15.0391 12.5 14.5304 12.5 14ZM8 3C8 3.39782 8.15804 3.77936 8.43934 4.06066C8.72064 4.34196 9.10218 4.5 9.5 4.5H11.5V14C11.5 14.2652 11.3946 14.5196 11.2071 14.7071C11.0196 14.8946 10.7652 15 10.5 15H2.5C2.23478 15 1.98043 14.8946 1.79289 14.7071C1.60536 14.5196 1.5 14.2652 1.5 14V2C1.5 1.73478 1.60536 1.48043 1.79289 1.29289C1.98043 1.10536 2.23478 1 2.5 1H8V3Z" fill="#A1A5B7"/>
</svg>
