<svg width="17" height="16" viewBox="0 0 17 16" fill="none" xmlns="http://www.w3.org/2000/svg">
<path d="M14.5 4.5V9H13.5V4.5H11.5C11.1022 4.5 10.7206 4.34196 10.4393 4.06066C10.158 3.77936 10 3.39782 10 3V1H4.5C4.23478 1 3.98043 1.10536 3.79289 1.29289C3.60536 1.48043 3.5 1.73478 3.5 2V9H2.5V2C2.5 1.46957 2.71071 0.960859 3.08579 0.585786C3.46086 0.210714 3.96957 0 4.5 0L10 0L14.5 4.5ZM13.5 12H14.5V14C14.5 14.5304 14.2893 15.0391 13.9142 15.4142C13.5391 15.7893 13.0304 16 12.5 16H4.5C3.96957 16 3.46086 15.7893 3.08579 15.4142C2.71071 15.0391 2.5 14.5304 2.5 14V12H3.5V14C3.5 14.2652 3.60536 14.5196 3.79289 14.7071C3.98043 14.8946 4.23478 15 4.5 15H12.5C12.7652 15 13.0196 14.8946 13.2071 14.7071C13.3946 14.5196 13.5 14.2652 13.5 14V12ZM1 10C0.867392 10 0.740215 10.0527 0.646447 10.1464C0.552678 10.2402 0.5 10.3674 0.5 10.5C0.5 10.6326 0.552678 10.7598 0.646447 10.8536C0.740215 10.9473 0.867392 11 1 11H16C16.1326 11 16.2598 10.9473 16.3536 10.8536C16.4473 10.7598 16.5 10.6326 16.5 10.5C16.5 10.3674 16.4473 10.2402 16.3536 10.1464C16.2598 10.0527 16.1326 10 16 10H1Z" fill="#A1A5B7"/>
</svg>
