<svg width="15" height="15" viewBox="0 0 15 15" fill="none" xmlns="http://www.w3.org/2000/svg">
<path d="M14.5331 1.81887C14.6207 1.90674 14.6699 2.02575 14.6699 2.14981C14.6699 2.27388 14.6207 2.39288 14.5331 2.48075L13.5553 3.4595L11.6803 1.5845L12.6581 0.60575C12.746 0.517872 12.8652 0.468506 12.9895 0.468506C13.1138 0.468506 13.233 0.517872 13.3209 0.60575L14.5331 1.81794V1.81887ZM12.8925 4.12137L11.0175 2.24637L4.63031 8.6345C4.57871 8.68609 4.53987 8.74901 4.51687 8.81825L3.76219 11.0814C3.7485 11.1226 3.74656 11.1669 3.75658 11.2092C3.76659 11.2515 3.78818 11.2902 3.81891 11.3209C3.84965 11.3516 3.88833 11.3732 3.93063 11.3832C3.97293 11.3933 4.01718 11.3913 4.05844 11.3776L6.32156 10.6229C6.39072 10.6002 6.45363 10.5617 6.50531 10.5104L12.8925 4.12137Z" fill="white"/>
<path fill-rule="evenodd" clip-rule="evenodd" d="M0.9375 12.6564C0.9375 13.0293 1.08566 13.387 1.34938 13.6507C1.6131 13.9145 1.97079 14.0626 2.34375 14.0626H12.6562C13.0292 14.0626 13.3869 13.9145 13.6506 13.6507C13.9143 13.387 14.0625 13.0293 14.0625 12.6564V7.03137C14.0625 6.90705 14.0131 6.78783 13.9252 6.69992C13.8373 6.61201 13.7181 6.56262 13.5938 6.56262C13.4694 6.56262 13.3502 6.61201 13.2623 6.69992C13.1744 6.78783 13.125 6.90705 13.125 7.03137V12.6564C13.125 12.7807 13.0756 12.8999 12.9877 12.9878C12.8998 13.0757 12.7806 13.1251 12.6562 13.1251H2.34375C2.21943 13.1251 2.1002 13.0757 2.01229 12.9878C1.92439 12.8999 1.875 12.7807 1.875 12.6564V2.34387C1.875 2.21955 1.92439 2.10033 2.01229 2.01242C2.1002 1.92451 2.21943 1.87512 2.34375 1.87512H8.4375C8.56182 1.87512 8.68105 1.82574 8.76896 1.73783C8.85686 1.64992 8.90625 1.53069 8.90625 1.40637C8.90625 1.28205 8.85686 1.16283 8.76896 1.07492C8.68105 0.987011 8.56182 0.937625 8.4375 0.937625H2.34375C1.97079 0.937625 1.6131 1.08578 1.34938 1.34951C1.08566 1.61323 0.9375 1.97091 0.9375 2.34387V12.6564Z" fill="white"/>
</svg>
