<svg width="15" height="14" viewBox="0 0 15 14" fill="none" xmlns="http://www.w3.org/2000/svg">
<path d="M7.80081 0.290555C7.60962 -0.0968526 7.05715 -0.0968523 6.86596 0.29056L5.00362 4.06405C4.92773 4.21787 4.78095 4.32452 4.61118 4.34917L0.446878 4.95428C0.0193558 5.01641 -0.15135 5.54182 0.158007 5.84336L3.1713 8.78061C3.29416 8.90039 3.35024 9.07292 3.32121 9.24201L2.60987 13.3895C2.53685 13.8153 2.98376 14.14 3.36619 13.939L7.09083 11.9808C7.24266 11.901 7.42411 11.901 7.57595 11.9808L11.3006 13.939C11.683 14.14 12.1299 13.8153 12.0569 13.3895L11.3456 9.24201C11.3165 9.07292 11.3726 8.90039 11.4955 8.78061L14.5088 5.84336C14.8181 5.54182 14.6474 5.01641 14.2199 4.95428L10.0556 4.34917C9.88583 4.32452 9.73904 4.21787 9.66315 4.06405L7.80081 0.290555Z" fill="#4878BB"/>
</svg>
