<svg width="15" height="14" viewBox="0 0 15 14" fill="none" xmlns="http://www.w3.org/2000/svg">
<path d="M7.80075 0.290555C7.60956 -0.0968526 7.05709 -0.0968523 6.8659 0.29056L5.00356 4.06405C4.92767 4.21787 4.78089 4.32452 4.61112 4.34917L0.446817 4.95428C0.0192947 5.01641 -0.151411 5.54182 0.157946 5.84336L3.17124 8.78061C3.2941 8.90039 3.35018 9.07292 3.32115 9.24201L2.60981 13.3895C2.53679 13.8153 2.9837 14.14 3.36613 13.939L7.09077 11.9808C7.2426 11.901 7.42405 11.901 7.57588 11.9808L11.3005 13.939C11.683 14.14 12.1299 13.8153 12.0568 13.3895L11.3455 9.24201C11.3165 9.07292 11.3726 8.90039 11.4954 8.78061L14.5087 5.84336C14.8181 5.54182 14.6474 5.01641 14.2198 4.95428L10.0555 4.34917C9.88577 4.32452 9.73898 4.21787 9.66309 4.06405L7.80075 0.290555Z" fill="white"/>
</svg>
