<svg width="18" height="18" viewBox="0 0 18 18" fill="none" xmlns="http://www.w3.org/2000/svg">
<path d="M1.98762 17.1462C1.98762 17.1462 0.620117 17.1462 0.620117 15.7787C0.620117 14.4112 1.98762 10.3087 8.82512 10.3087C15.6626 10.3087 17.0301 14.4112 17.0301 15.7787C17.0301 17.1462 15.6626 17.1462 15.6626 17.1462H1.98762ZM8.82512 8.94121C9.91317 8.94121 10.9567 8.50898 11.726 7.73961C12.4954 6.97024 12.9276 5.92676 12.9276 4.83871C12.9276 3.75065 12.4954 2.70717 11.726 1.9378C10.9567 1.16843 9.91317 0.736206 8.82512 0.736206C7.73707 0.736206 6.69358 1.16843 5.92421 1.9378C5.15484 2.70717 4.72262 3.75065 4.72262 4.83871C4.72262 5.92676 5.15484 6.97024 5.92421 7.73961C6.69358 8.50898 7.73707 8.94121 8.82512 8.94121Z" fill="white"/>
</svg>
