<svg id="Layer_1" data-name="Layer 1" xmlns="http://www.w3.org/2000/svg" width="26" height="12.92" viewBox="0 0 26 12.92">
  <defs>
    <style>
      .cls-1 {
        fill: #f4cc07;
      }
    </style>
  </defs>
  <title>trackingOrderDHL_v1</title>
  <g>
    <path class="cls-1" d="M19.34,11.14H16.55a.41.41,0,0,1-.42-.41.42.42,0,0,1,.42-.42h2.79a.42.42,0,0,1,.42.42A.41.41,0,0,1,19.34,11.14Z"/>
    <path class="cls-1" d="M25.58,11.14h-.31a.41.41,0,0,1-.42-.41.41.41,0,0,1,.31-.4v-3a2.11,2.11,0,0,0-2.11-2.1H22.2a.43.43,0,0,1-.3-.13l-2-2a2.41,2.41,0,0,0-1.74-.72H16.55a.42.42,0,0,1,0-.84h1.56a3.28,3.28,0,0,1,2.33,1l1.93,1.91h.68A3,3,0,0,1,26,7.35v3.38A.41.41,0,0,1,25.58,11.14Z"/>
    <path class="cls-1" d="M6.84,12.92a2.19,2.19,0,1,1,2.21-2.19A2.2,2.2,0,0,1,6.84,12.92Zm0-3.55a1.36,1.36,0,1,0,1.37,1.36A1.37,1.37,0,0,0,6.84,9.37Z"/>
    <path class="cls-1" d="M22.44,12.92a2.19,2.19,0,1,1,2.21-2.19A2.2,2.2,0,0,1,22.44,12.92Zm0-3.55a1.36,1.36,0,1,0,1.37,1.36A1.37,1.37,0,0,0,22.44,9.37Z"/>
    <path class="cls-1" d="M16.55,0H.42A.42.42,0,0,0,0,.42V10.73a.41.41,0,0,0,.42.41H3.68a.41.41,0,0,0,.42-.41.42.42,0,0,0-.42-.42H.84V6.9H16.13v3.41H10a.42.42,0,0,0-.42.42.41.41,0,0,0,.42.41h6.56a.41.41,0,0,0,.42-.41V.42A.42.42,0,0,0,16.55,0Z"/>
    <path class="cls-1" d="M16.55,7.36H.42A.42.42,0,0,1,0,6.94a.41.41,0,0,1,.42-.41H16.55a.41.41,0,0,1,.42.41A.42.42,0,0,1,16.55,7.36Z"/>
  </g>
</svg>
