<svg width="14" height="14" viewBox="0 0 14 14" fill="none" xmlns="http://www.w3.org/2000/svg">
<rect width="14" height="14" fill="white"/>
<g clip-path="url(#clip0_107_5)">
<path d="M7.00003 0.000450134C3.1401 0.000450134 0 3.14074 0 7.00068C0.000324894 10.8602 3.14055 14.0003 7.00003 14.0003C10.8598 14.0003 14.0001 10.8603 14.0001 7.00061C14 3.14074 10.8598 0.000450134 7.00003 0.000450134ZM7.00003 0.975132C8.43093 0.975132 9.74662 1.47683 10.7813 2.31317L2.31279 10.7816C1.47658 9.747 0.974811 8.43138 0.974681 7.00061C0.974681 3.67818 3.67767 0.975132 7.00003 0.975132ZM7.00003 13.0256C5.45887 13.0256 4.05123 12.4437 2.98454 11.4884L11.488 2.98492C12.4434 4.05162 13.0253 5.45938 13.0253 7.00068C13.0253 10.3228 10.3223 13.0256 7.00003 13.0256Z" fill="#1D2971"/>
</g>
<defs>
<clipPath id="clip0_107_5">
<rect width="14" height="14" fill="white"/>
</clipPath>
</defs>
</svg>

