<svg width="14" height="14" viewBox="0 0 14 14" fill="none" xmlns="http://www.w3.org/2000/svg">
<rect width="14" height="14" fill="white"/>
<path fill-rule="evenodd" clip-rule="evenodd" d="M12.8531 1.14688C12.8997 1.19332 12.9366 1.24848 12.9618 1.30922C12.987 1.36996 13 1.43507 13 1.50083C13 1.56659 12.987 1.6317 12.9618 1.69244C12.9366 1.75318 12.8997 1.80835 12.8531 1.85479L1.85453 12.8534C1.76065 12.9473 1.63333 13 1.50057 13C1.36781 13 1.24049 12.9473 1.14662 12.8534C1.05274 12.7595 1 12.6322 1 12.4995C1 12.3667 1.05274 12.2394 1.14662 12.1455L12.1452 1.14688C12.1917 1.10032 12.2468 1.06338 12.3076 1.03818C12.3683 1.01297 12.4334 1 12.4992 1C12.565 1 12.63 1.01297 12.6907 1.03818C12.7515 1.06338 12.8067 1.10032 12.8531 1.14688Z" fill="#A1A5B7"/>
<path fill-rule="evenodd" clip-rule="evenodd" d="M1.14688 1.14688C1.10032 1.19332 1.06338 1.24848 1.03818 1.30922C1.01297 1.36996 1 1.43507 1 1.50083C1 1.56659 1.01297 1.6317 1.03818 1.69244C1.06338 1.75318 1.10032 1.80835 1.14688 1.85479L12.1455 12.8534C12.2394 12.9473 12.3667 13 12.4995 13C12.6322 13 12.7595 12.9473 12.8534 12.8534C12.9473 12.7595 13 12.6322 13 12.4995C13 12.3667 12.9473 12.2394 12.8534 12.1455L1.85479 1.14688C1.80835 1.10032 1.75318 1.06338 1.69244 1.03818C1.6317 1.01297 1.56659 1 1.50084 1C1.43507 1 1.36996 1.01297 1.30922 1.03818C1.24849 1.06338 1.19331 1.10032 1.14688 1.14688Z" fill="#A1A5B7"/>
</svg>

