<svg width="16" height="16" viewBox="0 0 16 16" fill="none" xmlns="http://www.w3.org/2000/svg">
<g id="Group">
<path id="Vector" d="M14.1286 15H1.87137C1.39014 15 1 14.6099 1 14.1286V1.87137C1 1.39011 1.39014 1 1.87137 1H14.1286C14.6099 1 15 1.39011 15 1.87137V14.1286C15 14.6099 14.6099 15 14.1286 15Z" stroke="#1D2971" stroke-miterlimit="10" stroke-linecap="round" stroke-linejoin="round"/>
<path id="Vector_2" d="M1.01477 5.1584H14.985" stroke="#1D2971" stroke-miterlimit="10" stroke-linecap="round" stroke-linejoin="round"/>
<g id="Vector_3">
<mask id="path-3-inside-1_502_54" fill="white">
<path d="M4.21753 3.10567C4.21753 3.3818 3.99366 3.60567 3.71753 3.60567C3.4414 3.60567 3.21753 3.3818 3.21753 3.10567C3.21753 2.82953 3.4414 2.60567 3.71753 2.60567C3.99366 2.60567 4.21753 2.82953 4.21753 3.10567Z"/>
</mask>
<path d="M4.21753 3.10567C4.21753 3.3818 3.99366 3.60567 3.71753 3.60567C3.4414 3.60567 3.21753 3.3818 3.21753 3.10567C3.21753 2.82953 3.4414 2.60567 3.71753 2.60567C3.99366 2.60567 4.21753 2.82953 4.21753 3.10567Z" fill="#1D2971"/>
<path d="M5.21753 3.10567C5.21753 3.93409 4.54595 4.60567 3.71753 4.60567V2.60567C3.44138 2.60567 3.21753 2.82952 3.21753 3.10567H5.21753ZM3.71753 4.60567C2.88911 4.60567 2.21753 3.93409 2.21753 3.10567H4.21753C4.21753 2.82952 3.99368 2.60567 3.71753 2.60567V4.60567ZM2.21753 3.10567C2.21753 2.27725 2.88911 1.60567 3.71753 1.60567V3.60567C3.99368 3.60567 4.21753 3.38182 4.21753 3.10567H2.21753ZM3.71753 1.60567C4.54595 1.60567 5.21753 2.27725 5.21753 3.10567H3.21753C3.21753 3.38182 3.44138 3.60567 3.71753 3.60567V1.60567Z" fill="#1D2971" mask="url(#path-3-inside-1_502_54)"/>
</g>
<g id="Vector_4">
<mask id="path-5-inside-2_502_54" fill="white">
<path d="M5.95654 3.10567C5.95654 3.3818 5.73268 3.60567 5.45654 3.60567C5.18041 3.60567 4.95654 3.3818 4.95654 3.10567C4.95654 2.82953 5.18041 2.60567 5.45654 2.60567C5.73268 2.60567 5.95654 2.82953 5.95654 3.10567Z"/>
</mask>
<path d="M5.95654 3.10567C5.95654 3.3818 5.73268 3.60567 5.45654 3.60567C5.18041 3.60567 4.95654 3.3818 4.95654 3.10567C4.95654 2.82953 5.18041 2.60567 5.45654 2.60567C5.73268 2.60567 5.95654 2.82953 5.95654 3.10567Z" fill="#1D2971"/>
<path d="M6.95654 3.10567C6.95654 3.93409 6.28496 4.60567 5.45654 4.60567V2.60567C5.18039 2.60567 4.95654 2.82952 4.95654 3.10567H6.95654ZM5.45654 4.60567C4.62812 4.60567 3.95654 3.93409 3.95654 3.10567H5.95654C5.95654 2.82952 5.73269 2.60567 5.45654 2.60567V4.60567ZM3.95654 3.10567C3.95654 2.27725 4.62812 1.60567 5.45654 1.60567V3.60567C5.73269 3.60567 5.95654 3.38182 5.95654 3.10567H3.95654ZM5.45654 1.60567C6.28496 1.60567 6.95654 2.27725 6.95654 3.10567H4.95654C4.95654 3.38182 5.18039 3.60567 5.45654 3.60567V1.60567Z" fill="#1D2971" mask="url(#path-5-inside-2_502_54)"/>
</g>
<g id="Vector_5">
<mask id="path-7-inside-3_502_54" fill="white">
<path d="M7.69562 3.10567C7.69562 3.3818 7.47175 3.60567 7.19562 3.60567C6.91948 3.60567 6.69562 3.3818 6.69562 3.10567C6.69562 2.82953 6.91948 2.60567 7.19562 2.60567C7.47175 2.60567 7.69562 2.82953 7.69562 3.10567Z"/>
</mask>
<path d="M7.69562 3.10567C7.69562 3.3818 7.47175 3.60567 7.19562 3.60567C6.91948 3.60567 6.69562 3.3818 6.69562 3.10567C6.69562 2.82953 6.91948 2.60567 7.19562 2.60567C7.47175 2.60567 7.69562 2.82953 7.69562 3.10567Z" fill="#1D2971"/>
<path d="M8.69562 3.10567C8.69562 3.93409 8.02404 4.60567 7.19562 4.60567V2.60567C6.91947 2.60567 6.69562 2.82952 6.69562 3.10567H8.69562ZM7.19562 4.60567C6.3672 4.60567 5.69562 3.93409 5.69562 3.10567H7.69562C7.69562 2.82952 7.47177 2.60567 7.19562 2.60567V4.60567ZM5.69562 3.10567C5.69562 2.27725 6.3672 1.60567 7.19562 1.60567V3.60567C7.47177 3.60567 7.69562 3.38182 7.69562 3.10567H5.69562ZM7.19562 1.60567C8.02404 1.60567 8.69562 2.27725 8.69562 3.10567H6.69562C6.69562 3.38182 6.91947 3.60567 7.19562 3.60567V1.60567Z" fill="#1D2971" mask="url(#path-7-inside-3_502_54)"/>
</g>
<path id="Vector_6" d="M12.3765 8.03528H3.65228V7.22869H12.3765V8.03528ZM7.99988 12.2455H3.65228V10.6056H7.99988V12.2455ZM12.3765 12.2455H9.73892V10.6056H12.3765V12.2455Z" fill="#1D2971" stroke="#1D2971" stroke-miterlimit="10" stroke-linecap="round" stroke-linejoin="round"/>
</g>
</svg>
