<svg width="40" height="27" viewBox="0 0 40 27" fill="none" xmlns="http://www.w3.org/2000/svg">
<path d="M39.7458 12.2685C39.3885 11.7674 30.8741 0 19.9998 0C9.12549 0 0.610775 11.7674 0.253821 12.268C0.0888824 12.4996 0 12.779 0 13.0657C0 13.3525 0.0888824 13.6318 0.253821 13.8634C0.610775 14.3645 9.12549 26.1319 19.9998 26.1319C30.8741 26.1319 39.3885 14.3644 39.7458 13.8638C39.911 13.6323 40 13.3529 40 13.0661C40 12.7794 39.911 12.5 39.7458 12.2685ZM19.9998 23.4286C11.9897 23.4286 5.05212 15.6183 2.99844 13.065C5.04946 10.5095 11.9725 2.70329 19.9998 2.70329C28.0095 2.70329 34.9467 10.5122 37.0012 13.0669C34.9502 15.6223 28.0271 23.4286 19.9998 23.4286Z" fill="#4878BB"/>
<path d="M19.9999 4.95607C15.6372 4.95607 12.0878 8.59427 12.0878 13.066C12.0878 17.5377 15.6372 21.1759 19.9999 21.1759C24.3626 21.1759 27.912 17.5377 27.912 13.066C27.912 8.59427 24.3626 4.95607 19.9999 4.95607ZM19.9999 18.4726C17.0913 18.4726 14.7252 16.0472 14.7252 13.066C14.7252 10.0848 17.0914 7.65944 19.9999 7.65944C22.9084 7.65944 25.2746 10.0848 25.2746 13.066C25.2746 16.0472 22.9085 18.4726 19.9999 18.4726Z" fill="#4878BB"/>
</svg>
