<svg width="32" height="28" viewBox="0 0 32 28" fill="none" xmlns="http://www.w3.org/2000/svg">
<path d="M17.0933 19.8667H3.2V14.6731L6.34933 11.0427C6.50847 10.8618 6.705 10.7175 6.92534 10.62C7.14567 10.5224 7.38457 10.4739 7.6255 10.4777C7.86644 10.4815 8.10368 10.5375 8.32083 10.642C8.53797 10.7465 8.72985 10.8968 8.8832 11.0827L11.5947 14.4224L16.7307 8.20376C16.8873 8.01839 17.0825 7.86939 17.3026 7.76716C17.5227 7.66492 17.7624 7.61191 18.0051 7.61181C18.2478 7.61171 18.4876 7.66452 18.7077 7.76657C18.9279 7.86862 19.1232 8.01745 19.28 8.20269L22.9824 12.6848C21.3759 13.121 19.9454 14.0472 18.89 15.3344C17.8346 16.6216 17.2062 18.2059 17.0933 19.8667ZM11.8347 4.67629C11.2689 4.67629 10.7263 4.90106 10.3262 5.30113C9.92609 5.70121 9.70133 6.24383 9.70133 6.80963C9.70133 7.37542 9.92609 7.91804 10.3262 8.31812C10.7263 8.7182 11.2689 8.94296 11.8347 8.94296C12.4005 8.94296 12.9431 8.7182 13.3432 8.31812C13.7432 7.91804 13.968 7.37542 13.968 6.80963C13.968 6.24383 13.7432 5.70121 13.3432 5.30113C12.9431 4.90106 12.4005 4.67629 11.8347 4.67629ZM17.0933 20.9334H2.66667C2.52522 20.9334 2.38956 20.8772 2.28954 20.7772C2.18952 20.6771 2.13333 20.5415 2.13333 20.4V3.33336C2.13333 3.19191 2.18952 3.05626 2.28954 2.95624C2.38956 2.85622 2.52522 2.80003 2.66667 2.80003H25.0667C25.2081 2.80003 25.3438 2.85622 25.4438 2.95624C25.5438 3.05626 25.6 3.19191 25.6 3.33336V12.4267C26.328 12.4746 27.0458 12.6226 27.7333 12.8667V2.26669C27.7329 1.84248 27.5642 1.43576 27.2642 1.13579C26.9643 0.835825 26.5576 0.667118 26.1333 0.666695H1.6C1.17578 0.667118 0.769063 0.835825 0.469097 1.13579C0.169131 1.43576 0.000423581 1.84248 0 2.26669V21.4667C0.000423581 21.8909 0.169131 22.2976 0.469097 22.5976C0.769063 22.8976 1.17578 23.0663 1.6 23.0667H17.5333C17.2895 22.3792 17.141 21.6613 17.0933 20.9334ZM25.0667 13.4667C23.6954 13.4667 22.3549 13.8733 21.2147 14.6352C20.0745 15.397 19.1859 16.4799 18.6611 17.7468C18.1363 19.0137 17.999 20.4077 18.2666 21.7527C18.5341 23.0976 19.1944 24.333 20.1641 25.3026C21.1337 26.2723 22.3691 26.9326 23.714 27.2001C25.059 27.4677 26.453 27.3304 27.7199 26.8056C28.9868 26.2808 30.0697 25.3922 30.8315 24.252C31.5934 23.1118 32 21.7713 32 20.4C31.9979 18.5618 31.2667 16.7996 29.9669 15.4998C28.6671 14.2 26.9049 13.4688 25.0667 13.4667ZM27.7333 20.4H26.6667V24.6667C26.6667 24.8081 26.6105 24.9438 26.5105 25.0438C26.4104 25.1438 26.2748 25.2 26.1333 25.2H24C23.8586 25.2 23.7229 25.1438 23.6229 25.0438C23.5229 24.9438 23.4667 24.8081 23.4667 24.6667V20.3872L22.4064 20.4C22.308 20.4008 22.2113 20.3745 22.127 20.3239C22.0426 20.2732 21.9739 20.2003 21.9284 20.1131C21.8828 20.0259 21.8622 19.9278 21.8688 19.8297C21.8754 19.7315 21.909 19.6371 21.9659 19.5568L24.6325 15.8235C24.6844 15.758 24.7503 15.7051 24.8255 15.6687C24.9007 15.6323 24.9831 15.6134 25.0667 15.6134C25.1502 15.6134 25.2326 15.6323 25.3078 15.6687C25.383 15.7051 25.449 15.758 25.5008 15.8235L28.1675 19.5568C28.223 19.6369 28.2558 19.7306 28.2621 19.8278C28.2685 19.9251 28.2483 20.0222 28.2037 20.1089C28.1591 20.1955 28.0918 20.2684 28.0089 20.3197C27.926 20.371 27.8308 20.3987 27.7333 20.4Z" fill="#4878BB"/>
</svg>
