<svg width="16" height="15" viewBox="0 0 16 15" fill="none" xmlns="http://www.w3.org/2000/svg">
<path d="M12.9434 3.75H11.2559V5.15625H12.9434C13.3184 5.15625 13.6934 5.53125 13.6934 6.09375V12.5625C13.6934 13.0312 13.3184 13.5 12.9434 13.5H2.25586C1.88086 13.5 1.50586 13.125 1.50586 12.5625V6.09375C1.50586 5.625 1.88086 5.15625 2.25586 5.15625H4.50586V6.375H5.91211V3.28125C5.91211 2.25 6.66211 1.40625 7.50586 1.40625C8.34961 1.40625 9.09961 2.25 9.09961 3.28125V3.75H6.56836V5.15625H9.19336V6.375H10.5996V3.28125C10.5996 1.5 9.28711 0 7.59961 0C5.91211 0 4.50586 1.5 4.50586 3.28125V3.75H2.25586C1.13086 3.75 0.0996094 4.875 0.0996094 6.09375V12.5625C0.0996094 13.875 1.13086 14.9062 2.25586 14.9062H12.8496C14.0684 14.9062 15.0059 13.875 15.0059 12.5625V6.09375C15.0996 4.875 14.0684 3.75 12.9434 3.75Z" fill="#4878BB"/>
</svg>
