<svg width="15" height="15" viewBox="0 0 15 15" fill="none" xmlns="http://www.w3.org/2000/svg">
<path d="M8.81719 0.984375C8.43 -0.328125 6.57 -0.328125 6.18281 0.984375L6.08906 1.30313C6.03121 1.49962 5.93011 1.68067 5.79318 1.83301C5.65625 1.98535 5.48695 2.1051 5.29771 2.1835C5.10847 2.26189 4.90409 2.29693 4.69954 2.28605C4.495 2.27517 4.29548 2.21865 4.11562 2.12063L3.825 1.96125C2.62219 1.30687 1.30687 2.62219 1.96219 3.82406L2.12063 4.11562C2.53875 4.88438 2.14219 5.84156 1.30313 6.08906L0.984375 6.18281C-0.328125 6.57 -0.328125 8.43 0.984375 8.81719L1.30313 8.91094C1.49962 8.96879 1.68067 9.06989 1.83301 9.20682C1.98535 9.34375 2.1051 9.51305 2.1835 9.70229C2.26189 9.89153 2.29693 10.0959 2.28605 10.3005C2.27517 10.505 2.21865 10.7045 2.12063 10.8844L1.96125 11.175C1.30687 12.3778 2.62219 13.6931 3.82406 13.0378L4.11562 12.8794C4.29548 12.7814 4.495 12.7248 4.69954 12.7139C4.90409 12.7031 5.10847 12.7381 5.29771 12.8165C5.48695 12.8949 5.65625 13.0147 5.79318 13.167C5.93011 13.3193 6.03121 13.5004 6.08906 13.6969L6.18281 14.0156C6.57 15.3281 8.43 15.3281 8.81719 14.0156L8.91094 13.6969C8.96879 13.5004 9.06989 13.3193 9.20682 13.167C9.34375 13.0147 9.51305 12.8949 9.70229 12.8165C9.89153 12.7381 10.0959 12.7031 10.3005 12.7139C10.505 12.7248 10.7045 12.7814 10.8844 12.8794L11.175 13.0387C12.3778 13.6931 13.6931 12.3778 13.0378 11.1759L12.8794 10.8844C12.7814 10.7045 12.7248 10.505 12.7139 10.3005C12.7031 10.0959 12.7381 9.89153 12.8165 9.70229C12.8949 9.51305 13.0147 9.34375 13.167 9.20682C13.3193 9.06989 13.5004 8.96879 13.6969 8.91094L14.0156 8.81719C15.3281 8.43 15.3281 6.57 14.0156 6.18281L13.6969 6.08906C13.5004 6.03121 13.3193 5.93011 13.167 5.79318C13.0147 5.65625 12.8949 5.48695 12.8165 5.29771C12.7381 5.10847 12.7031 4.90409 12.7139 4.69954C12.7248 4.495 12.7814 4.29548 12.8794 4.11562L13.0387 3.825C13.6931 2.62219 12.3778 1.30687 11.1759 1.96219L10.8844 2.12063C10.7045 2.21865 10.505 2.27517 10.3005 2.28605C10.0959 2.29693 9.89153 2.26189 9.70229 2.1835C9.51305 2.1051 9.34375 1.98535 9.20682 1.83301C9.06989 1.68067 8.96879 1.49962 8.91094 1.30313L8.81719 0.984375ZM7.5 10.2469C6.77148 10.2469 6.07281 9.95747 5.55767 9.44233C5.04253 8.9272 4.75313 8.22852 4.75313 7.5C4.75313 6.77148 5.04253 6.07281 5.55767 5.55767C6.07281 5.04253 6.77148 4.75313 7.5 4.75313C8.22827 4.75313 8.92671 5.04243 9.44167 5.55739C9.95663 6.07235 10.2459 6.77079 10.2459 7.49906C10.2459 8.22733 9.95663 8.92577 9.44167 9.44073C8.92671 9.9557 8.22827 10.245 7.5 10.245V10.2469Z" fill="#4878BB"/>
</svg>
