<svg width="14" height="14" viewBox="0 0 14 14" fill="none" xmlns="http://www.w3.org/2000/svg">
<rect width="14" height="14" fill="white"/>
<path d="M12.3909 1.31052C12.4778 1.2122 12.5814 1.1341 12.6958 1.08078C12.8103 1.02746 12.9331 1 13.0572 1C13.1813 1 13.3041 1.02746 13.4185 1.08078C13.5329 1.1341 13.6367 1.2122 13.7235 1.31052C14.0875 1.71854 14.0926 2.37788 13.7362 2.79297L6.21039 12.6619C6.12495 12.766 6.02126 12.8496 5.90567 12.9077C5.79008 12.9658 5.66502 12.9972 5.53814 12.9998C5.41126 13.0025 5.28521 12.9764 5.16774 12.9231C5.05026 12.8699 4.94382 12.7906 4.85491 12.6901L0.275536 7.54248C0.09893 7.34269 0 7.07402 0 6.79419C0 6.51438 0.09893 6.24571 0.275536 6.0459C0.362402 5.9476 0.466068 5.86949 0.580476 5.81618C0.694884 5.76285 0.81773 5.73539 0.941823 5.73539C1.06592 5.73539 1.18878 5.76285 1.30318 5.81618C1.41759 5.86949 1.52126 5.9476 1.60811 6.0459L5.49256 10.4128L12.3654 1.34158C12.3733 1.33067 12.3818 1.32029 12.3909 1.31052Z" fill="#0095E8"/>
</svg>
